<mxfile host="app.diagrams.net" modified="2023-09-21T05:12:04.658Z" agent="Mozilla/5.0 (Windows NT 10.0; Win64; x64) AppleWebKit/537.36 (KHTML, like Gecko) Chrome/116.0.0.0 Safari/537.36" etag="3n6IooPlvM9ppdsj1zAD" version="21.8.0" type="device">
  <diagram name="ページ1" id="Ae1pUJb6QWqzn5E66Qym">
    <mxGraphModel dx="2211" dy="1742" grid="1" gridSize="10" guides="1" tooltips="1" connect="1" arrows="1" fold="1" page="1" pageScale="1" pageWidth="827" pageHeight="1169" math="0" shadow="0">
      <root>
        <mxCell id="0" />
        <mxCell id="1" parent="0" />
        <mxCell id="LTjXMn_Se3MsG3HputFX-48" value="" style="rounded=1;whiteSpace=wrap;html=1;" parent="1" vertex="1">
          <mxGeometry x="-200" y="-120" width="240" height="160" as="geometry" />
        </mxCell>
        <mxCell id="LTjXMn_Se3MsG3HputFX-47" value="" style="shape=image;verticalLabelPosition=bottom;labelBackgroundColor=default;verticalAlign=top;aspect=fixed;imageAspect=0;image=data:image/svg+xml,PHN2ZyB4bWxucz0iaHR0cDovL3d3dy53My5vcmcvMjAwMC9zdmciIHZpZXdCb3g9IjAgMCAxNzUgNjEiIGhlaWdodD0iNjEiIHdpZHRoPSIxNzUiPiYjeGE7ICA8Zz4mI3hhOyAgICA8cGF0aCBmaWxsPSIjMDk5ZGZkIiBkPSJNOTgsMjguMTlhOS44NSw5Ljg1LDAsMSwxLDkuODQtOS44NUE5Ljg2LDkuODYsMCwwLDEsOTgsMjguMTlNOTgsLjQ4YTE3Ljg2LDE3Ljg2LDAsMSwwLDE3Ljg2LDE3Ljg2QTE3Ljg5LDE3Ljg5LDAsMCwwLDk4LC40OCIvPiYjeGE7ICAgIDxwYXRoIGZpbGw9IiMwOTlkZmQiIGQ9Ik0xMjcuNjcsNS4wOGwtLjIyLjIyLS4yNC4yMy0uMTYtLjI5TDEyNi45MSw1YTguNTMsOC41MywwLDAsMC02LjM0LTQuNEwxMTkuOS40N1YzNi4yMWwuNjctLjA5YTguMyw4LjMsMCwwLDAsNy4zNS04LjQxVjE4LjM0YTkuOTMsOS45MywwLDAsMSw4LjgzLTkuNzlsLjUzLS4wNnYtOGwtLjY0LjA3YTE1LjIxLDE1LjIxLDAsMCwwLTksNC41NCIvPiYjeGE7ICAgIDxwYXRoIGZpbGw9IiMwOTlkZmQiIGQ9Ik0xNy44NiwyOC4yYTkuODUsOS44NSwwLDEsMSw5Ljg1LTkuODUsOS44Niw5Ljg2LDAsMCwxLTkuODUsOS44NU0yOS4zMyw0bC0uMTUuMi0uMTUuMi0uMi0uMTUtLjE5LS4xNUExNy44NiwxNy44NiwwLDEsMCwxNy44NiwzNi4yMWExNy42NywxNy42NywwLDAsMCwxMC43OC0zLjYzbC4xOS0uMTQuMi0uMTYuMTUuMjEuMTUuMmE4LjUyLDguNTIsMCwwLDAsNS43MywzLjQ0bC42Ni4wOVYuNDhsLS42Ni4wOUE4LjUzLDguNTMsMCwwLDAsMjkuMzMsNCIvPiYjeGE7ICAgIDxwYXRoIGZpbGw9IiMwOTlkZmQiIGQ9Ik0xNTcuMTQsMjguMkE5Ljg1LDkuODUsMCwxLDEsMTY3LDE4LjM1YTkuODYsOS44NiwwLDAsMS05Ljg1LDkuODVNMTc0LjM0LjU3QTguNTcsOC41NywwLDAsMCwxNjguNiw0bC0uMTQuMTktLjE1LjIxLS4yLS4xNS0uMTktLjE1YTE3Ljg2LDE3Ljg2LDAsMSwwLTEwLjc4LDMyLjA5LDE3LjY3LDE3LjY3LDAsMCwwLDEwLjc4LTMuNjNsLjE5LS4xNC4yLS4xNi4xNS4yMS4xNC4yYTguNTYsOC41NiwwLDAsMCw1Ljc0LDMuNDRsLjY2LjA5Vi40OFoiLz4mI3hhOyAgICA8cGF0aCBmaWxsPSIjMDk5ZGZkIiBkPSJNNTguMTgsOC40OWgwYTkuODUsOS44NSwwLDEsMS05Ljg2LDkuODVBOS44Niw5Ljg2LDAsMCwxLDU4LjIsOC40OU02OS4zNSwzMi4yN0ExNy44MiwxNy44MiwwLDAsMCw3Myw4LjMzYy0uMjUtLjM4LS41My0uNzUtLjgyLTEuMTFBOC42Niw4LjY2LDAsMCwwLDc2LDEuMTVsLjEtLjY3SDU4LjExQTE3Ljg1LDE3Ljg1LDAsMCwwLDQ3LDMyLjI3YTE3LjgxLDE3LjgxLDAsMCwwLTIuMTQsMmw1LjQ0LDZhOS44NSw5Ljg1LDAsMSwxLDEzLDE0LjNsNS40NSw2YTE3Ljg0LDE3Ljg0LDAsMCwwLC41MS0yOC4yNiIvPiYjeGE7ICA8L2c+JiN4YTs8L3N2Zz4=;" parent="1" vertex="1">
          <mxGeometry x="-170" y="-46.97" width="180" height="62.74" as="geometry" />
        </mxCell>
        <mxCell id="LTjXMn_Se3MsG3HputFX-14" value="" style="group" parent="1" vertex="1" connectable="0">
          <mxGeometry x="180" y="139.98" width="436" height="210.02" as="geometry" />
        </mxCell>
        <mxCell id="LTjXMn_Se3MsG3HputFX-12" value="" style="rounded=1;whiteSpace=wrap;html=1;strokeColor=default;fillColor=#FFFFFF;" parent="LTjXMn_Se3MsG3HputFX-14" vertex="1">
          <mxGeometry y="0.020000000000010232" width="436" height="210" as="geometry" />
        </mxCell>
        <mxCell id="LTjXMn_Se3MsG3HputFX-10" value="" style="shape=image;verticalLabelPosition=bottom;labelBackgroundColor=default;verticalAlign=top;aspect=fixed;imageAspect=0;image=data:image/svg+xml,PHN2ZyB4bWxucz0iaHR0cDovL3d3dy53My5vcmcvMjAwMC9zdmciIHdpZHRoPSIxNDQiIGhlaWdodD0iMTQ0IiB2aWV3Qm94PSIwIDAgMTQ0IDE0NCI+PHBhdGggZD0ibTcxLjA1IDIzLjY4Yy0yNi4wNiAwLTQ3LjI3IDIxLjIyLTQ3LjI3IDQ3LjI3czIxLjIyIDQ3LjI3IDQ3LjI3IDQ3LjI3IDQ3LjI3LTIxLjIyIDQ3LjI3LTQ3LjI3LTIxLjIyLTQ3LjI3LTQ3LjI3LTQ3LjI3em0tLjA3IDQuMmEzLjEgMy4xMSAwIDAgMSAzLjAyIDMuMTEgMy4xMSAzLjExIDAgMCAxIC02LjIyIDAgMy4xMSAzLjExIDAgMCAxIDMuMi0zLjExem03LjEyIDUuMTJhMzguMjcgMzguMjcgMCAwIDEgMjYuMiAxOC42NmwtMy42NyA4LjI4Yy0uNjMgMS40My4wMiAzLjExIDEuNDQgMy43NWw3LjA2IDMuMTNhMzguMjcgMzguMjcgMCAwIDEgIC4wOCA2LjY0aC0zLjkzYy0uMzkgMC0uNTUuMjYtLjU1LjY0djEuOGMwIDQuMjQtMi4zOSA1LjE3LTQuNDkgNS40LTIgLjIzLTQuMjEtLjg0LTQuNDktMi4wNi0xLjE4LTYuNjMtMy4xNC04LjA0LTYuMjQtMTAuNDkgMy44NS0yLjQ0IDcuODUtNi4wNSA3Ljg1LTEwLjg3IDAtNS4yMS0zLjU3LTguNDktNi0xMC4xLTMuNDItMi4yNS03LjItMi43LTguMjItMi43aC00MC42YTM4LjI3IDM4LjI3IDAgMCAxIDIxLjQxLTEyLjA4bDQuNzkgNS4wMmMxLjA4IDEuMTMgMi44NyAxLjE4IDQgLjA5em0tNDQuMiAyMy4wMmEzLjExIDMuMTEgMCAwIDEgMy4wMiAzLjExIDMuMTEgMy4xMSAwIDAgMSAtNi4yMiAwIDMuMTEgMy4xMSAwIDAgMSAzLjItMy4xMXptNzQuMTUuMTRhMy4xMSAzLjExIDAgMCAxIDMuMDIgMy4xMSAzLjExIDMuMTEgMCAwIDEgLTYuMjIgMCAzLjExIDMuMTEgMCAwIDEgMy4yLTMuMTF6bS02OC4yOS41aDUuNDJ2MjQuNDRoLTEwLjk0YTM4LjI3IDM4LjI3IDAgMCAxIC0xLjI0LTE0LjYxbDYuNy0yLjk4YzEuNDMtLjY0IDIuMDgtMi4zMSAxLjQ0LTMuNzR6bTIyLjYyLjI2aDEyLjkxYy42NyAwIDQuNzEuNzcgNC43MSAzLjggMCAyLjUxLTMuMSAzLjQxLTUuNjUgMy40MWgtMTEuOTh6bTAgMTcuNTZoOS44OWMuOSAwIDQuODMuMjYgNi4wOCA1LjI4LjM5IDEuNTQgMS4yNiA2LjU2IDEuODUgOC4xNy41OSAxLjggMi45OCA1LjQgNS41MyA1LjRoMTYuMTRhMzguMjcgMzguMjcgMCAwIDEgLTMuNTQgNC4xbC02LjU3LTEuNDFjLTEuNTMtLjMzLTMuMDQuNjUtMy4zNyAyLjE4bC0xLjU2IDcuMjhhMzguMjcgMzguMjcgMCAwIDEgLTMxLjkxLS4xNWwtMS41Ni03LjI4Yy0uMzMtMS41My0xLjgzLTIuNTEtMy4zNi0yLjE4bC02LjQzIDEuMzhhMzguMjcgMzguMjcgMCAwIDEgLTMuMzItMy45MmgzMS4yN2MuMzUgMCAuNTktLjA2LjU5LS4zOXYtMTEuMDZjMC0uMzItLjI0LS4zOS0uNTktLjM5aC05LjE1em0tMTQuNDMgMjUuMzNhMy4xMSAzLjExIDAgMCAxIDMuMDIgMy4xMSAzLjExIDMuMTEgMCAwIDEgLTYuMjIgMCAzLjExIDMuMTEgMCAwIDEgMy4yLTMuMTF6bTQ2LjA1LjE0YTMuMTEgMy4xMSAwIDAgMSAzLjAyIDMuMTEgMy4xMSAzLjExIDAgMCAxIC02LjIyIDAgMy4xMSAzLjExIDAgMCAxIDMuMi0zLjExeiIvPjxwYXRoIHN0cm9rZS13aWR0aD0iMyIgc3Ryb2tlLWxpbmVqb2luPSJyb3VuZCIgc3Ryb2tlLWxpbmVjYXA9InJvdW5kIiBzdHJva2U9IiMwMDAiIGZpbGwtcnVsZT0iZXZlbm9kZCIgZD0ibTExNS42OCA3MC45NWE0NC42MyA0NC42MyAwIDAgMSAtNDQuNjMgNDQuNjMgNDQuNjMgNDQuNjMgMCAwIDEgLTQ0LjYzLTQ0LjYzIDQ0LjYzIDQ0LjYzIDAgMCAxIDQ0LjYzLTQ0LjYzIDQ0LjYzIDQ0LjYzIDAgMCAxIDQ0LjYzIDQ0LjYzem0tLjg0LTQuMzEgNi45NiA0LjMxLTYuOTYgNC4zMSA1Ljk4IDUuNTktNy42NiAyLjg3IDQuNzggNi42NS04LjA5IDEuMzIgMy40IDcuNDYtOC4xOS0uMjkgMS44OCA3Ljk4LTcuOTgtMS44OC4yOSA4LjE5LTcuNDYtMy40LTEuMzIgOC4wOS02LjY1LTQuNzgtMi44NyA3LjY2LTUuNTktNS45OC00LjMxIDYuOTYtNC4zMS02Ljk2LTUuNTkgNS45OC0yLjg3LTcuNjYtNi42NSA0Ljc4LTEuMzItOC4wOS03LjQ2IDMuNC4yOS04LjE5LTcuOTggMS44OCAxLjg4LTcuOTgtOC4xOS4yOSAzLjQtNy40Ni04LjA5LTEuMzIgNC43OC02LjY1LTcuNjYtMi44NyA1Ljk4LTUuNTktNi45Ni00LjMxIDYuOTYtNC4zMS01Ljk4LTUuNTkgNy42Ni0yLjg3LTQuNzgtNi42NSA4LjA5LTEuMzItMy40LTcuNDYgOC4xOS4yOS0xLjg4LTcuOTggNy45OCAxLjg4LS4yOS04LjE5IDcuNDYgMy40IDEuMzItOC4wOSA2LjY1IDQuNzggMi44Ny03LjY2IDUuNTkgNS45OCA0LjMxLTYuOTYgNC4zMSA2Ljk2IDUuNTktNS45OCAyLjg3IDcuNjYgNi42NS00Ljc4IDEuMzIgOC4wOSA3LjQ2LTMuNC0uMjkgOC4xOSA3Ljk4LTEuODgtMS44OCA3Ljk4IDguMTktLjI5LTMuNCA3LjQ2IDguMDkgMS4zMi00Ljc4IDYuNjUgNy42NiAyLjg3eiIvPjwvc3ZnPg==;" parent="LTjXMn_Se3MsG3HputFX-14" vertex="1">
          <mxGeometry x="326" width="110" height="110" as="geometry" />
        </mxCell>
        <mxCell id="LTjXMn_Se3MsG3HputFX-11" value="" style="shape=image;verticalLabelPosition=bottom;labelBackgroundColor=default;verticalAlign=top;aspect=fixed;imageAspect=0;image=data:image/png,iVBORw0KGgoAAAANSUhEUgAAAtAAAALQCAYAAAC5V0ecAAABgmlDQ1BzUkdCIElFQzYxOTY2LTIuMQAAKJF1kbtLA0EQhz+jwTcRYmFhEUWtEokKQRvBiKgQJMQIvprkckmEPI67iIitYCsoiDa+Cv0LtBWsBUFRBLGwsla00XDOJYEEMbvszre/nRlmZ8EWTilpo84L6UxOD036XfMLi676V+w0yuzCGVEMbSwYDFB1fD1QY9k7j5Wrut+/ozmmGgrUNAiPKpqeE54SDqzlNIt3hduVZCQmfC7s1qVA4XtLjxb5zeJEkX8s1sOhcbC1CbsSFRytYCWpp4Xl5fSkU6tKqR7rJS1qZm5WbLesTgxCTOLHxTQTjONjgBHZfXgYpF9OVIn3FuJnyEqsIrvGOjorJEiSwy3qqmRXxcZFV2WmWLf6/7evRnxosJi9xQ/2F9P86IX6Hchvm+b3sWnmT6D2Ga4y5fjsEQx/ir5d1noOwbEJF9dlLboHl1vQ8aRF9EhBqpVli8fh/QxaF8B5C01LxZ6V7jl9hPCGfNUN7B9An/g7ln8BE9lnwBFoiRcAAAAJcEhZcwAALiMAAC4jAXilP3YAACAASURBVHic7N13vFxF/f/xVwjMMPTeRKogXXpHKYJIU1AUREVBilhRQSwoFhD0K6IIUgTEws+KSBEFREAB6dJEQZBeVTrDTEju7485kSSk3L179nx2z76fj8d5JCa7c97E5N7Pzpn5zLiRkRFERERERGR0ZrMOICIiIiIySFRAi4iIiIh0QAW0iIiIiEgHVECLiIiIiHRABbSIiIiISAdUQIuIiIiIdEAFtIiIiIhIB1RAi4iIiIh0QAW0iIiIiEgHVECLiIiIiHRABbSIiIiISAdUQIuIiIiIdEAFtIiIiIhIB1RAi4iIiIh0QAW0iIiIiEgHVECLiIiIiHRABbSIiIiISAdUQIuIiIiIdEAFtIiIiIhIB1RAi4iIiIh0QAW0iIiIiEgHVECLiIiIiHRABbSIiIiISAdUQIuIiIiIdEAFtIiIiIhIB1RAi4iIiIh0QAW0iIiIiEgHVECLiIiIiHRABbSIiIiISAdUQIuIiIiIdEAFtIiIiIhIB1RAi4iIiIh0QAW0iIiIiEgHVECLiIiIiHRABbSIiIiISAdUQIuIiIiIdEAFtIiIiIhIB1RAi4iIiIh0QAW0iIiIiEgHVECLiIiIiHRABbSIiIiISAdUQIuIiIiIdEAFtIiIiIhIB1RAi4iIiIh0QAW0iIiIiEgHZrcOICIyqIJ3uwAHdDnMh2LK99YQR0REGqICWkRk7JYHduhyjPnqCNKN4N1rgdWAxyZfMeXnbFOJiPQvFdAiIrIV8L0pfyF49wJTFNTAv4C/T75iyo81HVJEpF+ogBaRgRC8C8BawDrA2sBXYsoP2abiJeP799JclBn25af3m8G7J5mioAZOiSk/1Vw8ERE7KqBFpO8E7xaiFMpTXisD46d42bcMok2rjoKxHzZzjyXDgsAm1TUCnFRrIhGRPqYCWkRMBe+W5eVZ5cnF8qtNQ43ekzWM0Q8F9BJdvv/emPIztSQRERkAKqBFxETwblfg+8BCYxxinhrjjFVbZqC7/cBySy0pREQGRD984RaR4XQ1MH8X739dXUG6UMcM9PhZv6TnVECLiHRABbSImIgpPwr8uYsh1qkrSxfqmIFuQwF9Vy0pREQGhApoEbF0TRfv7YcCeq4axli6hjG61W2Ge+sIISIyKFRAi4ila7t47+uCd9ZfwxatYYyVaxhjzIJ3K9D9B4F/1ZGlG8G7xYN3c1jnEJHhYP3NR0SGWzcF9DzASnUFGaNFahjjtTWM0Y03dPn+DDxcR5AufQr4d/DuF8G79wXvFrMOJCLtpQJaRMzElB8AHu1iiG3ryjJGdRTQpjPQwOu7fP8DMeVJtSTpzqsox6K/HTgDeDR4d03w7gvBu/WCd+Ns44lIm6iAFhFr13Xx3rfVlmJs2jAD3W0B/UgtKbo37Uz6OGBD4EvA9cBDwbtTgnc7BO984+lEpFVUQIuItW7Wz24RvKujiB2r1WoYY/7g3Ro1jNOx4N2rgBW6HMZ89jl4tzKw1CxetiSwH3AB8ETw7mfBuz2Dd/P1PKCItI4KaJEhFLybP3j3XusclSe6eO944K11BRmDzWoaZ+eaxunULjWMMVLDGN16Y4evnxd4B3AWpZj+XfDugOBdP7QUFJEBoAJaZIgE7zYK3p1G2fR1rHWeSjcFNBgt4wjeLUp965etCugP1DCG+Qw0nRfQU3LAm4C3xJQn1pRHRFpOR3mLtFz1iHov4ACmPr1vJHg3vg+Khm4L6G2Dd8vHlJtupbZpjWNtFLxbNKbc7Z/FqAXv1gHWrWEo0xnoqpXhVl0O8xLwyRriiMiQ0Ay0SAsF78YH77YO3n2fMtt8Iq88+npuYMums01Ht0XjeODTdQTp0OY1jjUbzc9C71vTONbLHtYHFuhyjF/GlO+oI4yIDAcV0CItEbybLXj3+uDdCcBDwB8oRdLcM3nbOxoJN3Mv1jDG+4J3S9YwzqhUa2X3rHnYj9U83gwF7+YF3lXTcLPavNdr3SzfmOz4GsYQkSGiAlpkgAXvxgXvNgneHQc8AFwOHAQsPsohdu2DjVPz1jCGp9lH8DtS+g7Xaa3g3Y41jzkjnwEWrGmsZYx7LHe7EfKOmPJVtSQRkaGhAlpksH0WuIoyezmWmcBFsV/GUVcbsQOCd03Nhh7Qo3E/06Nx/yd4tyxwcI1DemCJGscbteDd64CNuhzmh3VkEZHhogJaZIDFlI8EbulymD3qyNKFOmagoRztfUpNY81Q8G4ZYPseDb9Z8K7bo7Vn5RhgzprHXK7m8UbrwC7fPwn4UR1BRGS4qIAWGXw/6fL9725y/fB01FVAA+wYvNu7xvGm5yh6+7Xze8G70IuBg3dvBN7Zg6FX6sGYMxW8m4fSXaYbl8aUH6ojj4gMFxXQIoPvLLrrxTsncEhNWcZi2ZrHO646Ya92wbut6b5om5VVgW/UPWjwbjngp3WPW9myR+POzLvo/sPXmXUEEZHhowJaZMDFlB8EruhymAOCd4vVkWcMNqh5vAWAn9Y9ixu8c5R2gE34UPDuzXUNFrybG/gNsHBdY05j2x6NO13BuzmoZ9Pob2sYQ0SGkApokXbodhnHXMCn6gjSiap7Qx2HeUxrc+Dsquity5HAa2scb1bODN6t2e0gVbH5Q2Ct7iPN0NLBu1V6OP60PkT3p0DeFVP+bx1hRGT4qIAWaYfzahjjoKpDQ5NWAubv0djbA2fV0aYveHcIzX/AWBS4PHg35i4TwbuFgIuA3WpLNWONzEJX/01fqGGoa2oYoxbBuwOCd90eBiMiDVIBLdICMeXHgG6Psp4bOL3hnr51Hoc9PW8DzgneLTrWAYJ3+wNfry9SRxYELqk2/3UkeLcacC3NrU9+X0P3+RL19LC+toYxulYtrzkRuC94d0zwbrQ93EXEkApokfao4zCIrYEP1zDOaL2vgXvsBNwavNuhkzcF70Lw7mjge72JNWrzABcF784K3i0/qxcH75YK3h0LXAes2PN0L1u32mTZM8G7dem+dd1k/TIDvSble/F8wKHAvcG7E0fz/7WI2Bk3MjJinUFEahC8Owg4oYahXgDWjinfVcNYMxS8Wwm4s5f3mI4fA9+b1clzwbttgJNptgAdjQx8H7iM0v/7LmB2ylKYVSjLKN5HOdzEwoUx5Y4+qIxWtXTjBurrOb1ATPnpmsYas+oJx8nT+a2XKF1Tjo4p395sKhGZFRXQIi0RvFsHuLGm4a4Dtowpv1DTeK8QvDuGMuNm4Q7KARp3A/8F/gMsA7wR2IbSSm4QRGAOShHdL14XU+72cJ+pBO9mA84H6upMMgmYPaZs/g0weHc68P6ZvGQE+DVweEz5b82kEpFZUQEt0hJVt4UE1LWG+ffALjHlXNN4/xO8Wxj4O7BI3WOLuRuBTer8exO8+yJwRF3jAU/FlOtYR92V6t/B/ZQuOLMykfKh74iY8n09DSYis6Q10CItEVOeADxZ45BvAn5Uzf7V7XhUPLfVupTTGmsRvPsk8MW6xqs8VfN4Y3UgoyueAcZTlufcGbz7tmHfdhFBBbRILWruN9yNR2se7x3ASXUW0cG7XYE96xpP+tIngnfbdztI8O7rwP9R31OVycwL6Oprxlg27Drgo8DdwbsvB+/mqzeZiIyGCmiRLgTvVg3enQvsZ52lUncBDeW/7eI62msF71YFTuo+kvS5ccCvg3fvHMubg3e+WhvcqyPmu+4NXoN3AUt08f55gMOpcbZfREZPBbTIGATvlgzenQLcCuwMfLBHSx069UiPxt0auCl494axDhC825LSak+PnofDnJQj1Y/o5E3Bu12AvzHzjXXdWrKHY89S8G526tlAexdwWA3jiEiH+uEbvsjACN7NG7z7CvBPyszs5Jms1SnLHaxN7OHYSwJ/CN6d0EmP2uCdC94dSNmUqNPWhs8Xg3fXBe/2Dt7NOb0XBO9mD95tEby7EPgNsEKPMy1cbbq1cjDdd3qZAOwZU36uhjwi0iF14RAZhWrGaH/KZqYZzaDeAawRU57UWLBpBO9+RTPHNk8Efg4cC9wUU35F4R68ezXlz2w/QKerCZR2gedTWgc+TekasynltMR5G86yTEz5gYbvSfBuGcoM+9xdDnVITPn/aogkImOgAlpkFoJ3m1GO2l1rFC/fK6Z8Vo8jzVDw7vfAdg3f9kVKS7rbqp+vSjnUY+GGc4h0YrNZHajTC8G7XwNv7XKYK4Et+qGPtciw6qfm+yJ9JXi3CPB1Suuo0XYBOCJ4d3ZM+cWeBZu5pmfxoKx1Xbu6RAbFVpQ1+Y2p1nd3WzxDmX1W8SxiSGugRaYRvBsXvDsA+AdlI1MnLbRWAo7sSbDRWcjw3iKDpCdHjs9I8G5F4Iwahjo7pnx1DeOISBe0hENkCtXJYBcAG3UxzCRgq5jyFfWkGp3g3fyUg1Tq7pkr0kYTgUVjynUePjRdwbt5gb8Aq3U51EvA6jHlO7tPJSLd0Ay0yNT+C3S7O3824AfBu3lqyNOJDVDxLDJa44Ede32T4N044Md0XzwDnKbiWaQ/qIAWmUK1rrCOvqrLA9+uYZxObNzw/UQG3eeCd70+VOUbwC41jDMCHF3DOCJSAxXQItOIKV8MXFLDUPsE7z5bwzijtVWD9xJpg1WAfXsxcPButuDdScAnaxry8pjyvTWNJSJd0hpokekI3q0LXE89SyL2iyl/v4ZxZih4tzqljZyIdOYR4DUx5RfqGjB454GfAG+ra0zgfTHlM2scT0S6oBlokemIKd8I/LKm4U4K3tXRumpmDu7x+CJttSTwo7qWcgTvFgN+S73F83PU9/VIRGqgAlpkxk6oaZzxwP8L3vXkqO/g3eLAXr0YW2RI7AacGbzr6nti8O49lBNJt64l1ct+FVN+vuYxRaQLKqBFZiCmfDnlhL06zAn8LHh3VLffpKdUzZr9qBpfRMZuL+CM4N18nb4xeLds8O63wA/pTS/2i3owpoh0QQW0yMydUvN4nwHOq3o21+FoYNuaxhIZdu8F7gneHRK8CzN7YbVJcIfqaO5/Am/uYa5rezh2xxroXCLS97SJUGQmgncLAQ9R/wzv/cDngR+P5UjeqrfsR4Hjas4lIsUjwKXA3yjLMh4BlgVWqK7tgGUayPGfmPIiDdxnVKqviVcA+8aUr7HOI2JFBbTILATvfg7s3qPhbwIOjSmPum1e8G4F4PuobZ3IMPhdTLmXs9sdCd59mvLk6yXgC8AxMeVJtqlEmqclHCKzdnEPx14HuDh4d2Pw7svBuw2r2eWpBO/mCt7tFLw7AbgVFc8iw+Im6wCTBe8WAA6p/ufswFHAJcG7pexSidiY3TqAyADoZQE92TrVdTjwePDuASBV1+zAhoBvIIeI9Jf/WgeYwueBhaf5ta2AW4J3+8SUzzXIJGJCSzhERiF4dzdl3aOISJMOjCmfbB2iOlzqL8AcM3nZicAnY8ovNpNKxI6WcIiMTh1He4uIdOpZ6wDBuzkp7TJnVjwDHARcF7xbrfepRGypgBYZnRusA4jIUHrOOgBwJDDaongN4Prg3f49zCNiTgW0yOg8YB1ARIbSgpY3D969Afh4p28DTg7e/aLaeCjSOtpEKDI691sHkIHyAmXz15PTXJnS/mtiB9fk1ztg7ulc88zk112v/0Ol55a3unHV8/kHjH2y7e3ABsG7d8WUr6otmEgfUAEtMjoqoIfXBMoTiHsph+pMWRhP9+cx5WySdBrBu9kpxfRiwFLVteQUP5/ymtsopsycSQEdvPPAb4DluhxqWeDy4N0hMWUd/CStoQJa+lZ1XOz8MWXzNk4x5WeDd89RZvWkXTLlA9J9lCJ5yus+4KFBPSgipvwS8HR13TWz1wbv5uWVRfWywKrVtWRPw8qMNN79p+pF/0Ng85qGnB14sKaxRPqC2thJXwreLQ78lLLre8uqEDAVvJuAPnQOqheB24BbgLuZulh+ZFAL5CZVa1lXneJarfpxOeAVh/9IbV4ElogpP93UDYN3xwCH1jjkKTHlA2ocT8ScCmjpO8G711OK58kzXv8XUz5kJm/pueBdoKxrlf73MHDzNNedMeWJpqlaqvq3sQpTF9br0v2jf3nZPjHlM5q4UfDuE8A3axzyb8D6MeVY45gi5lRAS18J3h1KOR52/BS/PAK81fKUq+DdYsBjVveX6ZpA+eY8VbEcU/63aSoBoDreedPq2oxy0uas+gjL9F0SU962lzeolm0cw8tHddfhRWDDmPKtNY4p0hdUQEtfCN7ND5wJvGUGL3kSWDemfG9joaYQvFsZ+IfFveV//gZcDlxNKZbviClPsI0ko1UdxrEBLxfUmwCLmIYaHBOBVWLK/+zF4MG7OYDTgXfXPHRfnKIo0gsqoMVc8G5t4FfMerPMLcBWFpsKg3fvppzEJc0YAW6nFMyXAVfElB83TSS1qz6YTp6lfiOGLdsGwOWUr3+1ftMO3i0I/Ayoe4b7ZzHlPWoeU6RvqIAWU8G7DwDHA3OO8i03ANs0uaEGIHh3BvC+Ju85ZEaAW5m6YNZSjCETvFsd2BnYBdgIHfY1rYNiyt+ra7Dg3c7AydTfYeWflCeG5seQi/SKCmgxUW08OpGxFaXXANs2+cU5eHc/8Oqm7jcERihPFC6rrj/FlP9jGUj6S/BuUWBHSjG9HepTDfAsZQLhum4GqQ5I+Tb1L9kASMAmMeWbejC2SN9QAS2NC969Bvgl8LouhrkS2D6m/Fw9qWYseLcOcGOv7zME/gtcQDmc4dKY8pPGeWRAVId6bEUppncGlrZNZOoFYM+xbKquWhEeSDmae/G6g1UOiykf06OxRfqGCmhpVPBuN+AMYL4ahrsZ2C2mfE8NY81Q8O63wJt7eY8Wu49SMJ9DmWU27+ctg6/aN/F2yhOsV9mmMTEJ+Bxw6mie3ATvVgQ+CuxDbw+Dupey2TH18B4ifUEFtDQmeLc/Zb1dnZ4C3h1TvqDmcQEI3m0DXNKLsVvsr1RFc0z5r9ZhpL2q00q3Bz4A7MTwHXQ0kdKV5jzKQUEvUdo7jgBrULqdbAos01CevWLKZzV0LxFTKqClMdXpgjdSjgiu0wjwVeCIOk+UC9454C+U/rUyYxOBP1Fmmc+JKd9nnEeGUPX1ZW9gX2Bl4zjD6HpKz2cVFTIUVEBLo4J3G1M6LbgeDH89cHBM+c/dDlT1Rf0FM+5LPexeAH5PKZrPt2gtKDIj1Wmm+1KWecxlHGdYbBlTvtw6hEhTVEBL44J3BwK1tWKajl8Bh451bXTwbnbKUeJvqzXV4BuhzDT/APhFExs4RbpRHdC0J3AAsLZxnDb7a0xZT+pkqKiAFhPBu7Mo39h6JQNnAT+hdHwY1dKO4N2mwBHUf6jAILsX+CFwZq83bIr0SvBuJ+CLwPrWWVroYzHl71iHEGmSCmgxEbxbgnI0dh3dOGblEcqM8h+Be4B7YsqxyjEfsCxldurDwIYN5BkEL1Bm8n8A/FHrGqUtgnc7UApp/VuvRwaWUh93GTYqoMVM8O4TwDcNbj0CPEpZGzm/wf372ZRLNHSKmLRW8O7NlEJ6I+ssA+7smLKWu8nQUQEtZqq1xjcDq1lnGXL38fISjbutw4g0KXj3JkohvYl1lgH1jpjyL6xDiDRNBbSYCt5tD1xonWMITaL0av4uWqIhQvBuO+BLwMbWWQbMMjHlB6xDiDRNBbSYC979DVjVOseQeBY4DfhOTPlf1mFE+knwbhzlUJavAwsYxxkEj8WUl7AOIWJhNusAIsAJ1gGGwL3AJ4ClY8oHq3gWeaWY8khM+VTKB3otS5i166wDTCt4N1fw7uDgneob6Sn9BZN+cCbwjHWIlrqScpjEa2LK34op689ZZBZiyo/GlN8B7AJoecKM3WAdYErV0e4/B44Ffhm8C8aRpMVUQIu56kCOH1vnaJGXKD2wN4wpbx5T/lVMeaJ1KJFBE1M+D1gdOJ6yb0Cm9m/rANP4GLBj9fNdgT8E7xY2zCMtpgJa+oU2EnbvSeBoYLmY8l4x5b57vCoyaGLKz8aUPwpsCtxqnafPJOsAkwXvlqZsAp3SJsBVwbsVDCJJy6mAln5xOWXmVDp3P/Ahyvrmz8SUH7IOJNI2MeVrgPUoRZp23xd9UUBXSzdOBeaZzm+vDFwdvNug2VTSdiqgpS9Uh3Zcb51jwDxEKZxXiimfGFN+wTqQSJvFlCfElI8AdgOeM47TD7J1gKpzymnA9jN52WLAZcG7nZtJJcNABbT0k8usAwyIx4CPUzYGnhhTNv8mJjJMYsrnAJtRDiEaZq+2DkDZMLj3KF43F/Dr4N37e5xHhoQKaOkn91sH6HP/Bg4FVogpfzum/KJ1IJFhFVO+BdiA0ulmWL3O8ubBu8MpkwmjNR44LXi3X48iyRBRAS395HHrAH3qSeBzwPIx5W9oqYZIf4gpPwFsDZxhncWIWQEdvDsY+PIY3joOODl4d1DNkWTIqICWfvKEdYA+8wxlw9LyMeWjqnZ/ItJHYso5prwP8CmGr9XdKsG7+Zu8YfBufPDuO5SlG2M1DjghePfRmmLJEFIBLf3kKesAfeI54ChKO7ojYspPWwcSkZmLKX8T2Al43jpLg2YHDmzqZsG7eYFzgY/UNOS3g3efrGksGTIqoIdc8G6d4N3VwbslrLMAS1kHMDaRcqz5CjHlz8WUn7QOJCKjF1O+ENid4WrJ+fHgne/1TYJ3rwb+DOxQ89D/F7w7rOYxZQiogB5iwbsVKQeYbAxcUX2BsrSc8f0tXQ6sG1P+cLWuUkQGUFVE72+do0FLAPv28gZV54ybgbV6dItdgnfT6yEtMkMqoIdU8G5x4PfA4tUvrUQpope3S4Xlva08AOwRU96y2tUvIgMupnwG8AXrHA36ZvBus7oHDd4tH7y7GDgdWLDu8Slr1o8CXq89JtKpcSMjOlBp2FTryC4H1pnObz8EvCmmfHuzqSB4dxXl6NVh8CLwf8DX1FVDpJ2CdycBB1jnaMiTwGYx5Tu6HSh4NzdwEHAEpX9zLzwMvCemfGmPxpeWUwE9ZIJ3jrJsY+uZvOwF4CMx5dObSQXBu9cBf23qfsbOAT4RU/6XdRAR6Z3qiOmzgV2sszTkEUqv+rNiyh13JKn24nyEsjFxoZqzTekW4I1aLifdUAE9RIJ3swE/pWxyGY2fAAc28WhrSGZq7gA+FlO+2DqIiDQjeBeASyl7TYbFLcBngd/GlGdaZATvFgS2pHzI2BPo9YbEO4AtY8o6d0C6ogJ6iATvjgc+3OHb7qQ85rq2B5EACN6tBVxN7x7VWXuG8ijy+JjyMO3OFxEgeLcwcAOwrHWWhj0DXA9cC9xKaXs3d3UtSSmc16a5/Vh3U9Y7P9zQ/aTFVEAPieDd54GvjPHtI5SZ68/GlO+tLRQQvFsSuAaw7gDSK2cCn44pP2YdRETsBO92AX5jnWOI3Ucpnu+3DiLtoAJ6CATvPgCcWsNQidKn+Kt19CgO3i1E6QSyfrdj9aGHgP2qllYiIgTvzgV2ts4xhF4ANogp/806iLSHCuiWC969BfgVML7GYZ+rxjwTuGxWa9ymk2k2ynrnrwAL15irX/yQstZZJyuKyP8E75YDbqe9y9X61b5NboqX4aACusWCd1sAFwFz9vA291E2G/4JuGlmSxWCd6tT1rx9gLLurW0eAQ6IKZ9nHURE+lPw7rPAkdY5hshPYsrvtg4h7aMCuqWCd6sCVwELNHzrRyjt6J6lbAyZjbKregNgsYazNOksSuu//1oHEZH+VbUSvQV4rXWWIXAX5YRXHZIitVMB3VLBu/mB84HNrbO03GOUVn/nWAcRkcEQvNsGuMQ6xxDYNKZ8tXUIaScd5d1SMeWnge0oh6ZIb/wMWF3Fs4h0Iqb8B0pnI+mdX6p4ll7SDHTLBe/moGxq28M6S4s8ARwUU/6ldRARGUzBu3UpvaGlfhOA1WLK/7QOIu2lGeiWiylPAPYCfmydpSUuoMw6q3gWkTGLKd8I/MM6R0udpOJZek0F9BCIKU+idL74i3WWATYJ+Dywc0z5CeswItIK/886QAslxn5omMioqYAeEjHlBOxKOeBDOvM4sF1M+chOe16LiMzEWdYBWug8TXJIE1RAD5GY8qPAW4FonWWAXEVpg/QH6yAi0i4x5bvQOui6nWkdQIaDCughE1O+HjjYOseAOA7YMqasWXsR6RXNQtfnceB31iFkOKiAHk6nAGrvM2PPAu+IKR9cbcIUEemVn1L2WEj3fhZTfsk6hAwHFdBDqFrHeyCgLzSvdDuwQUz5F9ZBRKT9YsoPA3+yztESV1kHkOGhAnpIxZRvAb5jnaPP/ATYKKas1lIi0qSbrQO0xE3WAWR4qIAebl8EnrQO0QdeAj4cU353TPl56zAiMnQetA7QAs8Dd1mHkOGhAnqIxZSfA75vncPY88BbYsonWAcRkaGlArp7t1VnHog0QgW0nABMtA5h5Algq5jyb62DiMhQUwHdPbVnlUapgB5yMeX7gHOtcxi4G9g0pnyddRARGXpqldm9vqpngndzBO9OC96taJ1FeqOv/sKJmVOsAzTsekrx/E/rICIilAJap5x2p2/qmeDdHMDPgX2A84N3CxhHkh7om79wYuoKYFj6HV9IORzlcesgIiIAMeUE/Ns6x4CbyzoATFU8v7X6pVWAnwfvZrdLJb2gAlqIKb9AmZVtuzOAXdRpQ0T6kNZBd2fN4N3clgGCdwtTJmneOs1vbQsc33wi6SUV0DLZZdYBeuwrMeV9dEqViPSpOa0DDLg5gM2tbh68W5syEbXNDF5yYPDuYw1Gkh5TAS2TtXUz3UTgwJjyF6yDiIjMxLLWAVpgS4ubBu/2pJyCuNwsXvrN4N0OvU8kTVABLZM9ax2gByYB740pn2wdRERkRoJ3i9Ina3gH3D7Bu/mbulnwbp7g3beBs4AwireMB34avFujt8mkCSqgZbK2rQseAfaPKZ9lHUREZBaWsw7QEosBX2riRsG73YG/Ax/tfvAMtQAAIABJREFU8K3zAr8K3s1TfyppkgpomewF6wA1+1hM+TTrECIio7CcdYAW+VAvZ3iDdysF735P6bTxqjEOszKgJ6MDTgW0TNbYY68GfCamrB3PIjIotP65PrMDFwfv1q9z0ODd6sG7U4Fbge1qGPJdwbv9ahhHjKiAlsk2sQ5Qk6/GlI+2DiEi0oHlrAO0zBLA5cG7XbsZJHg3Lni3Q/DuIuA24AOAryNg5dvBuzVrHE8apMbeMlkbCuhvxZQPtw4hItIhzUDXby7KWuOLgFOBc2PKszwwLHg3H7A1ZZZ5e2D5HmYMlENW1tf5BINn3MiITg+1FrzbA3gupny+0f3nAe4FFra4f01OiSkfYB1CRKQT1cl1jwILWWdpuceA31MOrHkQeAAYBywJLFVdqwIb0/zk4o9iyu9t+J7SJRXQxoJ3y1LWVM1L2VTwiepkwCYzfAP4VJP3rNmPgb1jypOsg4iIdCJ4tyNgMnkifeMlYJuY8hXWQWT0tAbaUPBuHHA6pXgGOAC4KXi3QYMZVgc+3tT9euBs4H0qnkVkQO1pHUDMPElpg7ekiufBoxloQ8G7jwDfmc5vvURZs3VkTPmhHt5/CcojrbV6dY8e+yuwaUw5WgcREelU8C4AjwPqCTx8fgfsG1N+2DqIjI1moI0E71YGjpnBb88OfBD4Z/DuuODd4j26/9UMbvH8X2A3Fc8iMsB2QsXzsJkIHAbsoOJ5sKmANhC8Gw/8gFkf/Tkn8DHgnuDd8cG7rjtlBO/GV5sWr2JwWydNAvaMKf/LOoiISBf2sA4gjXoY2DqmfExMWY//B5yWcBgI3h0GfG2Mb78X+Fl13Tzatb/BuzmBvYFDgBXHeO9+8Rn1ehaRQVa1S3uMMlEi7XcJsFdM+XHrIFIPFdANq5qmXw+4GoZ7AbgduKW6HgFGKDO0k4DFgPWAdYE1qbcBvJVfxpR3tw4hItKN4N3elCeR0n4nAwdps3u7qIBuUNXv81pgbessA+p2YOOY8nPWQURExqpaxncLsJp1Fum542PKH7UOIfXTGuhmfQEVz2P1NLCrimcRaYH9UPE8DI5V8dxemoFuSPBuQ8rGvfHWWQbQCPCWmPJ51kFERLpRrX2+i7LETtrrmJjyYdYhpHc0A92AagPfmah4HqsjVTyLSEt8FhXPbfdzFc/tpxnoBgTvjgUOts4xoG4D1o0pT7AOIiLSjeDdssA/aMeGbpm+vwEbablh+2kGuhn3AyoAOzcJ2E/Fs4i0xNGoeG6zZykHfKl4HgIqoBsQUz4O2JzSw1lG76SY8l+sQ4iIdCt4tzE6OKXt3h9T/od1CGmGlnA0KHi3AHAasJt1lgHwMLBqTPkZ6yAiIt0I3s0G/Bno+jRZ6Vvnx5R3tg4hzdEMdINiyk/FlN9GaWcnM/cRFc8i0hKH01/FcwaeBB4HHgT+Vf1cxuYl4FPWIaRZmoE2Erw7GDjWOkef+k1M+a3WIUREuhW8exPwW+wmrEaA66rrhur6W0z5pWlfGLxbEHgtsArl9NrdgOUaSzq4dFjKEFIBbSh4dwDwPWCcdZY+8iywWkz5QesgIiLdCN4tA9wILGxw+0eBM4BTY8r/GusgwbtNgD2BdwCL15StTZ4BVogp/8c6iDRLBbSx4N3elC9yKqKLj8WUv2MdQkSkG8E7R1n3vEHDt74Z+DJw7vRmmceq+u/5OPB5YN66xm2B02LKH7AOIc3TGmhjMeUzgaOsc/SJG4HvWocQEanBt2m2eH6RckjL+jHls+ssngFiyjmm/HVgZcrBYJp9K35iHUBsaAa6D1Q7tM8FdrTOYuxtMeWzrUOIiHQjePdu4EcN3vIKSs/8O5u6YfBua+BsYP6m7tmHHgKWiSlPsg4izdMMdB+o/vHtBTT2xa8P3QmcYx1CRKQbwbs1gJMbvOUPgS2bLJ4BYsqXAq8HHmnyvn3mFyqeh5cK6D4RU34a2B2YaJ3FyDf0hUhEBlnwbjHKrOxcDd3yAmDfmLLJo+SY8i2U9nzDenjIrdYBxI4K6D5SfTE60TqHgUdo9nGniEitgneLAH8AVmrollcBu9e91rlTMeX7gK0Yzj7S91gHEDsqoPvPF4AnrEM07Nsx5WQdQkRkLIJ3CwGXAGs0dMt/ADvFlGND95upmPIjwN4M38bCu60DiB0V0H0mpvwU8BnrHA16BjjJOoSIyFgE7xYALgZe19AtR4B9YspPNnS/UYkp/47hOxxsGGfdpaICuj/9gOHZmHFStf5bRGSgBO/mBy4C1m3wtqfElK9q8H6d+AzlxMNhsaR1ALGjAroPxZQnUvpstl0CjrMOISLSqeDdvMDvaLbX86PAYQ3eryMx5QnAR6xzNGgZ6wBiRwV0/zrdOkADflatnRMRGRjBu3mAC4GNG771p6plfn0rpnwNcJl1joYsax1gWsG72YJ3e1jnGAYqoPtUTPku4ErrHD32G+sAIiKdCN7NTWkft1nDt34E+FnD9xyro60DNGQX6wBTCt7NRfk7clbwbh3rPG2nArq//cU6QA9NoGy8EREZCMG7VwGXUw4QadqZ1i3rRium/HvgRuscDdg1eNcXs9DBu12AvwFvB8YBR9omaj8V0P2tzU3ar4wpP2sdQkRkNIJ36wHXAusZ3H4EOM3gvt34gXWABozHeM138G7V4N25lCe6Uxbzbw7ebW4UayiogO5vbS6gf2sdQERkNIJ3bwOuAJYyinBFTPmfRvceq8utAzTkQ8G77Zq+afBu6eDdaZQ6YecZvOyoBiMNHRXQ/e0+6wA9pAJaRPpe8O5zwC9o7nju6RnEYvRWoK96VffInMC5wbs3N3Gz4N2CwbtjgDuBfSiz4DOyRVO5hpEK6P42r3WAHrk/pny7dQgRkRkJ3vng3Y+Br1LWlFoauKeRMeUR4M/WORrigXOCd3v26gbBuw2rGecHgUOBMMq3Hhm8s/7720oqoPvb/NYBeuRC6wAiIjMSvFuc0optL+Mokw1cAV0ZpkNVHKX7xeXBuw3rGDB4N3/w7oDg3Y3ANZQZ506fhKwD7F5HHpna7NYBZKYWtA7QI1q+ISJ9KXi3JnA+/XNIxovAoK1/nmwYN4q/HrgmeHc2ZenPpTHlUR35HbxzwKbAG4FtKIf0zGyJxmh9OXj3q+qQNqmJCuj+9kbrAD1ymXUAEZFpBe/2Br4LzGOdZQpPDHDhE60DGNqtukaCd7dSznX4D+VDxTPAC8BilA9qk6/X0pu19q8F9mY4DmhrjAro/vZO6wA98GxM+RnrECIikwXvFgBOoj+/5s5pHaALL1gH6APjgLWqy9IXg3c/iSkn4xytoTXQfSp4ty7wGuscPaCju0WkbwTv3gDcQn8WzzDYBbSKtf6xDHCgdYg2UQHdh4J344HjrHP0iApoETEXvJsjePc14FLg1dZ5ZmKQC+h+/nMdRp8N3vXT8qSBpgK6P30R2MI6RI+ogBYRU8G7lYGrgMPo/++DcwTvLHtQd2N16wAylcWAj1uHaIt+/8Jhquq7eEvwbp/gnW/onm8BPtfEvYyogBYRM8G7/YAbgfWts3RgE+sAY7SadQB5hU8F7xayDtEGKqBn7nBgTeA04L7g3eHBu4V7caPgnQveHQv8mnb//6ICWkQaF7xbuGotdgowt3WeDr3eOsAYqYDuP9fQ3ha5jWpzodaV4N3awE5T/NLiwJeBB4J3Zwfv9q6jmA7ejQvebQ1cDRyM/YlXvaYCWkQaFbzbnXIYya7WWcboDdYBOlUdJtLW03QHzdPAj4GNY8pviinfbR2oDdTGbsZmtIwiUL4I7wpMDN5dBZwL3ADcPpqG6cG72SgdNvYE3gcsV0PeQaECWkQaEbxbETgBeJN1li5tFLwLMeVB6qv8fusAwpXA0cBFMeVsHaZtxo2MjFhn6DvBu9WA2xjbbPC/gduBeygtfCZU10RgWWAVYCVGf45922wbU77EOoSItFe1Z+XTwGcY7C4WU/pITPm71iFGI3g3J2WyZAHrLEPqauCLMeWLrYO0mWagp++zjH0pxSKUx20D98itIWprJCI9E7x7I2XWeWXrLDU7NHh3ckx5gnWQUdgVFc8WbgA+F1P+vXWQYaA10NMI3r0G2MM6R4upgBaR2gXvlgjenQVcTPuKZyhfO99jHWJWqiWKB1vnGDKZMvG3kYrn5qiAfqXDgfHWIVpMBbSI1CZ4N1vw7sPA3yn7StrsM9VBW/3sQGAD6xBD5BZgg5jy12LKE63DDBMV0FMI3q3HAHzCH3AqoEWkFsG79SltuY4H5jeO04TXAF+1DjEjwbslgKOscwyRYyjF8y3WQYaRCuipfZP2t5GzpgJaRLoSvFsuePdj4FoG60CUOnw6eLejdYgZ+BbD8UHG2kTgAzHlw9Rdw466cFSCd2+lHGIivfVsTHk+6xAiMniCd4tQltkdCDjjOJb+C6wbU77POshkwbv3AWdY5xgCLwJ7xJR/Yx1k2KmABoJ3c1Baz61knWVILBBTfto6hIgMhuDd3MAngU+hwzkmuxbYsh96QwfvdqJMQKmzV289DewSU77COohoCcdkB6HiuUn6sxaRWQrezRG8+xBwN/AlVDxPaUPgouCdabu44N0mwM9R8dxrE4HdVDz3DxXQxbusAwyZt1gHEJH+FbwbF7zbA7gD+C6wuHGkfrU58Kfg3VIWNw/erQGcz/AeDNakT8WUL7UOIS9TAV1sBuwPPGAdZEjsbh1ARPpT8G5b4Hrg/wErGscZBGsAVwXvGu19XX3AuRpYqMn7DqkfxpSPsw4hU9Ma6ClUx78eQGlIrhmP3lo7pnyzdQgR6Q/Buy2BzwPbGEcZVE9Tji4/Kabcs2/swTtH6bZxUK/uIVO5HVg/pvyidRCZmmagpxBTTjHl7wCrAD+yztNy77AOICK2qqUauwTvrgb+iIrnbswPnAhcWS2tqF3w7rXAn1Hx3KRDVTz3J81Az0TwblfgJGAx6ywtdFdMuY3H7YrILFSn6e0BHEZZgiD1mkA5XOa7MeV/dTtY8G4typPZ3dHEW5MujSnrQ2WfUgE9C8G7RYHTgZ2ss7TQujHlm6xDiEgzgndzAu8HDgGWN44zDEYoM/vfB86OKafRvrH6/2oz4GOU7386ZKxZI5RTBm+wDiLTpwJ6FIJ3swEnUJr3S32Ojil/xjqEiPRW8G4+4IPAx4EljOMMq6comzNvneJ6nNJBY87qWpBSNL+B0ibPmyQVgD/GlLe2DiEzpgK6A8G7L1B6kUo9HgFeG1N+1jqIiNSveoL3ccqaWdN+xSID5pMx5WOtQ8iMaS1TB2LKX0abJ+q0JPBV6xAiUq/g3arBu+8C91HWzqp4FunMBdYBZOY0Az0GwbtvAp+wztESE4GNtM5LZLBVGwPfAnwI0KNnkbG7O6b8GusQMnOagR6bQ4GLrEO0xHjgpGqduYgMmODdYsG7zwP3Ar9CxbNIt+63DiCzpqJlDGLKEyktmO6xztIS61NmrURkQATvNg3e/YRygutXgKWNI4m0xai7pYgdFdBjFFN+Ei3jqNNXg3dLWYcQkRkL3s0VvPtA8O4m4ErgXYAzjiXSNiqgB4AK6C7ElH8D/Mk6R0vMBxxnHUJEXil495pq78eDwKnA2saRRNpM7QMHgDYRdil4txHwF+scLfLRmPLx1iFEhl3wbh7g7cB7gS3RQRoiTXkOWDimnK2DyIypgK5B8O4qYBPrHC0xAuwfU/6+dRCRYVNt5t0K2BvYDZjbNpHI0NompnypdQiZMS3hqMd51gFaZBxwcvBuL+sgIsMiePfa4N1RlE4alwDvQcWziKUdrQPIzGkGugbBuzUox6JKfSYC74wp/8o6iEgbBe8WonQT2ptybLOI9I/ngDViyvdZB5HpUwFdk+DdI8AS1jlaZgKwa0xZJzKJ1CB4NwewA2Vd806og4ZIP7s4pryddQgoy7tiypOsc/QTLeGoz3+sA7TQHMAvg3fbWAcRGVTBu/HBu62DdycADwHnUNY3q3iWfjdCaen2DPBvyt/fe4A7gEcNczVl2+DdRywDBO+2Dd5dQ9lQLFPQDHRNgndXAxtb52ipF4CPxJRPtw4iMgiqmeZtgLcBbwUWsU0kMksPAldMcd09qy4UwbtXAxtQliBtCKxHaYnaNscCh1aHuPVc8G4cZQ3254GNql++IKa8UxP3HxQqoGsSvLsI2NY6R8v9DDggpvy0dRCRfhO8mxPYjlI07wIsYJtIZKbuphTKlwNXxJT/1e2AVeG3CqWY3oXy4bEtT9ovAfaOKT/cqxsE71YD3k05IGnZaX77JWDpmPJjvbr/oFEBXZPg3S3AmtY5hsC9wLtiyldbBxGxFrybi7Km+W2UGaN5bROJzNSLwI+B42LKt/f6ZsG7FYGDgfcDc/X6fg3IlImkY2PKf61jwODdSsBbgL2Y9QFJn4gpf6uO+7aBCugaVN/EngHGW2cZEi8BXwKO0qYGGTbBu3mBnSlF8/a0ozCQdnscOBE4Mab8RNM3rzrOfBD4MO3Z7H8VcBlwDXDNaGaGqz+HNYFNq2tjOlvedXNMWaeQVlRA1yB4twXlUZQ063Lg3THlB62DiPRS8G5V4M3VtQU66lcGw23At4CfxJSTdZjgnacsUfgksKpxnLo9CPyX0v5u8jU7sCTlQ8Pi1LNxeO2Y8s01jDPwVEDXIHj3ZeBw6xxD6r/Ap4EfxJRfsg4jUofqGO1tKDPMb+aV6xFF+tllwNdiyhdZB5me4N3slKeYh9GeNdJNOTam/EnrEP1ABXSXgndLAncC81hnGXJ3AUcA/y+mrL/UMnCCd6vz8izz5qjNnAyef1PWyf7IOshoVC1Sf0SZpZXReZSymbCRjiD9TAV0l4J3P6Cc5CX94Vbg8Jjyb6yDiMxMtZb5jZRZ5u2BZWwTiXTlh5TieaDORAjeLQacSfk3KKOzY0z5t9YhrKmA7kLwbl/gVGCcdRZ5hWuBz8eUL7YOIgL/W3+5IfAGyvKMzSiHBYkMsrsp7UX/YB1krKr2d58CjkT/JkfjZzHlPaxDWFMBPUbBu49TmpureO5vl1EK6Sutg8hwCd4FYBNKwfwGyoEEc5qGEqnPS8A3gS/FlKN1mDoE7zYEfgosb52lz70ILDHsZzKogO5Q8G5+4CuA6fGa0rGbgR9QdoM33kZJ2q/a+LcZLxfM66N1zNJO1wEfiCnfYh2kbsG7RShdtdrWpaNu+8eUT7UOYUkF9CgF78YD+1N27i5qHEfGbgJwAaWYvkCdO2SsgncLUDb7TS6Y16G0jRJpsxOBj7X5a2fw7lXAn9BM9Mz8Oaa8hXUIS60roKvjbN8JXB1TvrOG8dYF3lFd+sfULo9TTsU6I6Z8m3UY6V/Bu7kpBfK61bUOsAZqgSXDYwLwoWGZdQzerUApopeyztLHVowp32MdwkobC+i3AOdU//MJ4C+UE3vuAh6efMWUJ0zzvtmApYHVprjeALymmeRi7AbKLvILY8p3WYcRO9XM8rrTXCuhYlmG1+PA22LKf7YO0qTg3WqU5RwLW2fpU1+KKR9hHcJKGwvoHwLvmcXLRoCnKEdvu+rSN0eZ7F7g4ur6Q0z5v7ZxpFeCd4sC6zF1sawnTSIvuxF4a0z5AesgFoJ36wGXAvNZZ+kjE4C/A+fHlD9rHcZKqwro4N0cwGPAgtZZpDUmUWanJxfUV8WUs20k6VTwbnFglepatfpxdcpTJxGZvp8C+7Sly8ZYBe+2AH4PBOssRiZSZuJ/CVwJ3KHvg+0roLej/CUX6ZXngcspMxI3An+NKT9pG0ngfxt9V+CVhfIq6EO1SCcmAZ+LKR9tHaRfBO/eDJzP8Dytnlw0/wI4O6b8mHGevtO2AvpkSqcMkSY9APy1um6ufrxHR4rXL3g3O2XWeBlgWWBlXi6UV0Jt40S6FYF3xJTPtw7Sb4J3RwOfts7RYwk4HTgmpnyfdZh+1poCutoE+DCwuHUWEeAZ4BZeLqhvBe4HHlVhPWNVL+Vlp7iWmebHJSl7F0Skfi8AO8WU/2gdpB8F7xzllNvXWWfpgRcpJysfE1N+yDrMIGhTAb0F5XGDSD/LwIOUYvq+6seprpjyC3bx6lfNGi9M6Z++yBQ/LgIsxtRFspZaiNh4Htgxpny5dZB+Frxbk3KQjLfOUqMfA4fElB+1DjJI2tT0fzvrACKj4CjrdFeY0QuCd/+hFNOPAE9Pcz01nV+bfD1T9+x2dRx1AOaazo+Tfz43UxfF0/58fnTkvUg/ew7YIab8J+sg/S6mfGvw7nDg69ZZavA4cEBM+ZxZvlJeoU0z0JcCW1nnGGITgTuA6yldK64Hpn0M5CmPvtaf4lqgwYxtNwI8C7xE2QQ05TVxJr82Uv3ombpIDqjwFWm7Z4E3x5SvtA4yKKolo38EXm+dpQu/Ag6MKf/bOsigakUBXT0ifooyEybNepCyburUmPIjnbwxeDcO2Bb4VPWjiIg05xlg+5jy1dZBBk3wbjnKPpd5jaN0aoSyXOOb1kEGXVsK6PUoM57SnGuBrwHnxZQndjtY8O51lEJ6D9q1tEhEpB89A7wppvwX6yCDKni3D3CadY4OTAT2iymfYR2kDdrSz3BT6wBD5AXgYGCTmPI5dRTPADHlm2PK7wE2pCwFERGR3nga2FbFc3diyqcD51nnGKUEvF3Fc31UQEsn/gisGVM+LqY8qRc3iCnfRDla+YRejC8iMuSepRTP11oHaYlDKDO7/W5PbRasV1sK6M2sAwyB7wHbxJTv6fWNYsoxpvxhYCfK7nAREeneROCdMeXrrIO0RUz5H8CPrHPMwjdjyr+2DtE2A19AB+/moKzHHfpz2Xvo2JjyQU0fABJTvgDYmXIyloiIdOcjMeULrUO00Jfo3xrkKuAw6xBtNPAFdEx5Qkz57cBSwMcop75Jfb4aU/6k1c1jypcBu1LWb4mIyNgcG1P+nnWINoop30t/biZ8jvLE4SXrIG3Uii4c0wrerQ98gTJ7KWP3g5jy+61DAATvdgF+TQs+9ImINOzXlA1kPdm7IhC8Wwr4J6V/fr/4Vkz5E9Yh2qqVxUhM+fqY8i7ARsDvrfMMqLuBj1iHmCymfC5wvHUOEZEBcx3wbhXPvRVTfhg40TrHFCYAx1qHaLNWzkBPK3j3euAU4LXWWQbES8AW/dbiKHg3F3ArMzkGW0RE/uc+YKOY8mPWQYZB8G4R4B7643CVvnmC3FatnIGeVkz5CmBtyqcxfQqfta/1W/EMEFN+AdiPcpKSiIjM2NPAjiqem1Mdi32cdY6KWtb12FDMQE8peLc58ENgeessfeop4NUx5b5tHxe8+wnwLuscIiJ9agKwQ0z5EusgwyZ4Nz/wL2BB4yiviSnfbZyh1YZiBnpKMeU/AxsDN1hn6VMn9XPxXNFaaBGRGTtIxbONmPLTwPeNY7xAWUoiPTR0BTRATPlxYEvgd8ZR+k0GvmMdYlaq5SU3WecQEelDp8eUrQu4YWf9539/0+c2DKOhLKABqlnWnSntfaQ4K6b8iHWIUVI/UxGRqd0GfNg6xLCLKd8J/MkwwquDd+MM7z8UhraABqiai78HuMU6S5842zpAB86irPMTERF4Htg9pqyTW/uD5Sz03MDShvcfCkNdQAPElJ8H3gL8xzpLH7jOOsBoVf+/3WadQ0SkT3wwpvx36xDyP7+gbMq3sqrhvYfC0BfQ8L9jOPezzmHsoZjyo9YhOqSNoCIicEZM+UfWIeRl1ZOAswwjvN3w3kNBBXQlpvxroO96HzfoeusAY6ACWkSG3W3Ah6xDyHSdanjvvYJ3Cxjev/VUQE/ts9YBDN1qHWAM1IlDRIbZ88A7tO65P8WU/wrcaHT7uYB9jO49FFRATyGm/EeGd0Nhtg4wBs9bBxARMfTBmPId1iFkpiw3Ex4RvFvb8P6tpgL6lS6zDiAiIjILWvc8GM6iHGxiYV7gguDdq43u32oqoF/pCusAIiIiM3E76vc8EKqTCS3Pm1gKuDB4t6JhhlZSAf1Kd1oHEJHWmwg8Atw9g+sJQCeJyfRMAPaKKVvNakrnzjO+/+rALcG7j+qAlfrMbh2gD81jHcDIMtYBxmAR6wAiM/FvygaiG4B/Ao9SiuZHgMdjypNm9ubg3ezA4sCSwBLVj6sA6wLrAPP3LLn0s6Niyjdbh5CO/J7yoXm8YYa5gG8Dbw/efT6m3MjT9uDdnECe1de7QaQC+pXmsw5gZD3rAGOwgXUAkcok4GrKHoobgBtiyvd3M2B1UupD1TWVahZpBUoxvS6wDbA+oNmldrsZONI6hHQmpvxU8O5qYHPrLMAWwOXBuzspGxzPjCk/XsfAwbvFgA2BNYGVKB/41wPWBlq32VUF9CutZh3AyBrBOx9TTtZBOqACWiw9R5lZOg+4IKb876ZuHFMe4eXlHr8ACN4tDuwI7ARsy/A+TWurl4D3x5QnWAeRMbmA/iigJ1sZ+DpwVPDuVspZEJOvO2bUGrH68L4gsChlffX6lKJ5Q2b8JHstWlhAjxsZ0TK7KVV/kdawzmFkw5jywBznHby7B1jeOocMlQmUDUFnAH/s1w+cwTsHbEXpA7srMIdtIqnBV2PKh1uHkLEJ3q1FeYIwKF4Cnp3imgQsBixM55OvR8WUP1dvPHsqoKcQvNsQuMY6h6HPxZSPsg4xGtVs26AdPS6D62HgFOCUmPIj1mE6Uf1b2QfYH1jONo2M0W3AejHlQezXL5Xg3QPA0tY5DJwfU97ZOkTd1IVjaq37hNSh/YN3g/J34l3WAWQoXAnsDiwbU/7SoBXPADHlx2LKXwNWBHagLDuRwTGRsnRDxfPg+611ACNrWQfohUEplnouePchYBfrHMaWpXyDHQTvtw4grXYbsFNMefOY8i+rDX0DLaY8KaZ8YUx5e+D1wJ+tM8mofCOmfL11CKnFsBbQywTvWtc1SAU0UB11+U3rHH3ig9YBZiV4tz5ll69I3R6gLHd4XUz5AuswvRJT/lNJ8iavAAAgAElEQVRMeQvKB+abrPPIDP0NOMI6hNTmEmBYnyS0bhZ66Avo4N3GlEea3jpLn9g+eNfv3S32tQ4grfM88Glg5ZjyGW3sWTo9MeULKW2m3sl02uWJqYnAPv26UVU6F1N+HrjcOocRFdBtErzbE/gjZWepFLMBp1e7+PtO8G5d4APWOaRV/kyZcf56TPlF6zBNiymPxJR/Tjmt7HTrPPI/34opD/Om9rZq7ZOtWVAB3QbBu8WCd98DzgLmtM7Th9YAPm8dYlpVUX8m6l8u9UjAocAbYsp3W4exFlN+Oqa8L7AdcJ91niF3N6CWde2kGeiWGKo2dsG7uYBPAocA8xrH6XcTKH2h/2odZLLg3VHAZ6xzSCvcBLw3pnybdZB+FLybBziGsidCpxs2b5eY8nnWIaR+wbvZKX2Vh23y7jlgvuoQqFZofQFdnZqzBbAHpR3VIraJBsqDwOtjyv+yDhK8eyPwO2C8dRYZeCcCH9eJbrMWvNuN8tRHpxo258KY8qB0Q5IxqI713tg6h4HXtOlpX+sehVeP+VcH1qFsjtkZeLVpqMG1NHBp8G6LmP4/e/cdbldRtn/8GwgzjnQQEKRIDVIVpEoVBEEpShGRIgKCFUWwgQoiRVFUwJ8U5UX0BRHpCNKbhSpVmjQp0iHUYYYk5/fHWnkNITk5Za/9rHJ/rmtfXpJkzw05yXn2rGeeyY9ZhQjebQachYpnGZ2JwFdjysdYB2mKmPJZwbv7gHOBJazzdEAG9rEOIZW7kW4W0CtRtCe1QmMK6ODdFRRtF88DLwDPUTxanBOYo3zNA4xD19b20rspiuj1Ysp9v/kveLc1cDpQy0ON0hgvAzvElLs6h3XEYsp3lpN5/gBsZJ2n5X4aU/6XdQip3I3WAYysBJxtHaJXGtPCEbx7DQjWOTrsUWDnmHLfDkAE7/YCjqVBH/Sklh6huBTlDusgTRa8mxn4MfAV6ywt9Tgwrhx1Ji0WvHsPxYzvrjkrpryNdYheacQUjuDd3Kh4trYIxU70EcG7Snf4g3dLlk8cjkPFs4zOncAaKp5HL6Y8Mab8VeDb1llaan8Vz51xL8VTsa5p1SSOphQn77IOIEDxgesbwMbBu8/HlG/o5ZuXhflXgIPRByYZvbuAjWLKT1sHaZOY8uHBu4kUUzqkN66JKZ9mHUL6I6Y8KXh3M7CBdZaKjAdupZh29OwU/3yiTZxqNKWAXsg6gLzJqsD1wbtrKR7pnj+a0TTBu8WBzwK7AQv0JqJ03D3AB1U8VyOm/KPg3STgSOssLTAR+JJ1COm7G2lPAX0bcCFwM3BLTPlB4zx90ZQCWjvQ9bRu+bonePcr4HqKPzyDPoYs52CuQFGIb0dxcYNmzUqv3EdRPD9lHaTNYso/Lovon1hnabjjYsq3W4eQvmvyQcIB4AbgTIq+5tZM1hiOphTQ2oGut2UpdqIBJgXv7qH4JDp5UsrkVwBWpuiD8gY5pf3uBzaMKT9hHaQLYspHlYcLf2SdpaGeRTcOdtVN1gFG4GWKs0nHxJQftQ5jTQW09NpMwHLlS6SfxgObxZT/Yx2kS2LKRwbvxgG7W2dpoG/HlF+wDiH9F1N+KHj3LM243O054GiKwllfr6VGTOEAFrcOICK1NolizvP91kE66nPANdYhGuYW4NfWIcTULdYBZuAN4CBgsZjy91U8v1lTCuj3WAcQkVr7dkz5YusQXVVei74N8JB1lgb5Vkx5knUIMVXn3uFbgdViygdrvOK01b6ADt4FYDHrHCJSW6fHlDVSzVhM+VlgS7o533a4rtIHPqGeBfREilGyq8eUb7MOU2e1L6AprubWhAYRmZbbgM9Yh5BCTPlOYFfrHA3wLesAUgt1G/eWge1iygeVT5VkEE0ooNW+ISLTkoFPxZRfsw4i/xVTPhv4rXWOGjs3pnyddQiphToV0K8BW5R/fmUIVECLSFP9IKb8T+sQMk1fBjQN5a0mAQdYh5DaqEsLx2vApjHlS6yDNEkTCuhlrQOISO3cChxuHUKmLaY8HtjDOkcN/U4f+mSymPLLvPmqayv7xZT/Yh2iaZpQQDdhRqKI9M8E4DMx5QnWQWT6YsoXASdZ56iRDHzPOoTUjnUbx4Ux5V8aZ2ik2hfQMeUPUrRxfAk4F3jRNpGIGPtRTLnu81Ol8FXgcesQNXF8TPlh6xBSO5YF9PPoEPaI1b6ABogp3xNTPjamvDUwL7AmcCBwFZAss4lIXz0OHGIdQoYmpvwS2nUFeAX4gXUIqSXLPuiTYspPGa7faI0ooKcUU54YU74+pnxoTHlDYG5gR+p/o4+IjN4hMeXXrUPIsJwM3GMdwtjPYspPW4eQWrLcgVaL1Sg0roCeWkw5xpRPiymvAmwMaDi9SDs9gK4+bpyY8kS6PXniOeBI6xBSW1YF9HUx5buN1m6FxhfQU4opXx5T/jCwCfaN+SLSW9/TwcFmiimfBdxgncPIEWUri8i0WNUqfzNatzVaVUBPFlO+FFiR4lO/vuGKNN8dwGnWIWRUvmkdwMATwLHWIaTWHqOY0NJvzxms2SqtLKABYsqvxZS/DmwEjLfOIyKjclBMeZJ1CBm5mPKVwF+tc/TZUerZl8GUf689b7C0xZqt0toCerKY8jXAOsCj1llEZEQeoxhhKc3XpXmzzwPHWYeQRnjBYM2xBmu2SusLaIDy5qe1UF+0SBP9qjyIJs13BvCMdYg+OSam/Ip1CGkEi93gDQ3WbJVOFNAAMeXHge2x6TUSkZGZCPzKOoT0Rkw5043RWa8AR1uHkMaw2IHeMHjXmRqwCp36jxdTvhn4mnUOERmyC8oPv9IexwNt72c/PqasHlMZKouvlbkpzojJCHWqgAaIKR8LXGOdQ0SG5HjrANJbMeWHgD9b56hQAn5iHUIaxerD1jHBO2+0duN1roAu/cw6gIjM0NPoYqS2OsM6QIV+E1N+wjqENIpFCwfAOOA7Rms3XlcL6POAh61DiMigLtTouta6kHa2cUwEfmgdQhrHst3n68G7TQ3Xb6xOjjGJKU8M3v2ebg72H6kB4H7gNooB7BPL16Rp/O8kYD5gifK1KB39WpNRucA6gFQjpvx08O4GYE3rLD12ekxZ055kuKx2oAFmAc4L3u0YUz7TMEfjdLmouc86QI29RnHz223AreXrjpGOZArejaUoopcAluS/hfU4YAVgTA8yS7tk4BLrEFKp82lXAT0AHG4dQhrJ+sCpA04P3u0ZU/4f4yyNMWZgYMA6g4ng3XrA1dY5auRl4HcUI8Nu7dej8+DdPMD6wAcp5lIu3491pfYuiyl/yDqEVCd4tyJwu3WOHjovpryVdQhpnuDdGsB11jlKfwT2iSn/xzpI3XW5gF4CeMA6Rw3cQXE72O9iyi9bhwnezU9RSE9+LWObSIx8Naasw74tF7x7BFjEOkePrBlTvt46hDRP8G4Z4F7rHFN4GTgQ+IUusZq+LhfQ6wNXWecwkig+Zf4ypvxX6zCDCd69i2JW5SeATeh221GXrBpT/od1CKlW8O6PwDbWOXrgipiyZurKiATv3kE9b+j8F3AicHJMuY75THV1CgcU/bdddBqwSEx5p7oXz1DcIBlTPiWm/BFgIeDLwA3GsaRaGbjTOoT0RVs+JGnus4zGeOsA07E08CPgseDd6cG7TYN3s1qHqosu70D/DNjHOkcfvQR8Pqb8v9ZBeiF4tzSwE/ApioOJ0h63xJRXsQ4h1QvefRi4yDrHKP0LGBdT7uY3U+mJ4F1Tvn4mUAwY+Gv5upVi93z89P4MlIME5gImX9oyMab8ZB+yVqqTBXTwLlDMgZ7fOEq//AXYOab8sHWQKgTv1qIopj8BzGscR0bvpJjy7tYhpHrlmYenrHOM0ldiyj+3DiHNFrybRLMnUk2gGHH7DPAiMAfFdeFzAbNN9XOfiCkv1N94vdfVFo7P0o3ieQLFQYAN2lo8A8SU/x5T/gKwILAd9TnNLCPTlsf6MgMx5aeBx61zjMIrgMZ+SS80/WKhscACFKNpPwCsCCzMW4vn1uhcAR28mw3YzzpHH9wPrB1TPrQrp2hjym/ElP8YU14LWAc4m+b/pdRFKqC75VbrAKPwm5jyS9YhpBX0vaphOlVAB+9mpjhEt7B1loo9AqwXU77ROoiVmPJfY8ofpzgs+ksgGkeSodNNbt3ymHWAERoAjrUOIa2hArphOlVAA0cBH7UOUbHxwGYx5Sesg9RBTPn+mPLnKWbNfhd42jiSDG4i9RznJNVp6mGiS2PK91iHkNZQAd0wnSigg3czB+9+RDECrc0y8LGY8l3WQeompvxcTPkQYDGKHnh946unp/t1C6bURlM/7B9jHUBaRX/vNUzrC+jg3YLAFcD+1lkqNgB8OqZ8lXWQOospvx5TPhFYjuICBxXS9dLUYkpGrom/5w8AF1qHkFZRAd0wrS2gg3djgnfbA7cA61nn6YNvxZRPsw7RFDHlgZjyWRQnhveguX2YbdPUx/kyck0soH+hJyXSY/p6aphWFtDBu49QnOQ/nWKsStv9v5jyD61DNFFMeWJM+dcUNy59HXjBOFLXqYDunqadS3gVOMk6hLSOCuiGaU0BHbybK3i3Z/Du78AFwHutM/XJdbS/t7tyZWvHkcASwA/R1A4rr1sHkL5rWuFwSkz5ResQ0jpN+3PQeY0uoIN3CwTvtg/enU1xm9UJwJrGsfppgOIWrE7Mee6HmPL4mPI3KXakT6SYCiEiMpkOD0oVVEA3zFjrAEMRvPMUs5sXAd5DccvNWhS7hV32+5jy9dYh2iim/Djw2eDdT4BDKQ4ciki3XRZTvts6hLSSNmsaptYFdPDu+8BewHw0+474KrwOfNM6RNvFlO8Ftg3erQn8AljFOJKI2DnOOoC0lgrohql7C8ciwPyoeJ6Wo2LKj1iH6IqY8nXA6sA+gK7uFemeZ4HzrENIa3nrADI8dS+gZdqeAg63DtE15cSOo4FlKSa8iMjozWwdYIh+F1N+wzqEtNbs1gFkeFRAN9OBMeVXrEN0VUz5iZjyDsAmwL+s87TMXNYBpO/mtw4wRL+2DiDtFLybBe1AN06te6Blmm5HM0hrIaZ8afBuReAbwLeAtxlHaoN3WgeQvlvQOsAQ3BRTvtM6hLTWbNYBRulVis2kfwGPAhMopooMlP879YSRVrRBqoBunv+nG7DqI6acgO8H704FjgU2NY7UdE0opqS3mvB7rk0LqVKT2jcGgJso7tu4Brgvpvwf20g2VEA3ywTgj9Yh5K1iyvcDHw7ebQf8DFjIOFJTaQe6e+peQL8OnGYdQlqt7gX0RIqC+RzgopjyU8Z5akE90M1yWUz5OesQMn0x5TMoDhn+0jpLQ80dvFMrTLfUvYA+O6Y83jqEtFpdC+gEHA8sG1PeOqZ8sorn/1IB3SzaBWmAmPLLMeXPAx8GHrfO00Dahe6Wha0DzIDaN6RqdeuBfgP4MfDumPLe5RNWmYoK6OZ4neLxiTRETPliYEXgVOssDbOcdQDpq5WtAwzi38Dl1iGk9eq0A30PsFZMef+Y8pPWYepMBXRzXBRTbsXJ1S6JKb8QU/4UsD2g9puh0W2PHRG8W4B6nxc4OaY8YB1CWq8uBfQvgFViyjdbB2kCFdDN8XvrADJyZW/0ChQHMWRwq1oHkL6p84elAeBk6xDSCXUooD8fU/5iTDlaB2kKFdDN8AoqvBovpvxkTHkLYE/gZes8NVbnokp6q86/11fGlB+2DiGdYN0D/c2Ysg6+D5MK6Ga4MKb8mnUI6Y2Y8q+AlYCrrbPU1KLBu3mtQ0hf1LmA1uFB6RfLHegfxpR/aLh+Y6mAboYbrQNIb5U7WxsCX6M4ICpvpjaObljdOsB0vAicZR1COsOqgL4HOMBo7carewH9IsUVkV13u3UA6b2Y8kBM+SiKYvGf1nlqZhPrAFKt4N1K1HeE3TnqBZU+siqgvx1Tnmi0duPVuoCOKX8lpjwbxY2J8wDvBj4A7AUcA1wJPG8WsH9UQLdYTPkuip2431hnqZEtrANI5T5iHWAQf7AOIJ2ygMGa18WUzzZYtzUacZV3+QnphfL1b+Bvk38seDeGovjYonytZJGxQk9rFmP7lT3unw7eXQMcCwTjSNaWCd4tE1O+zzqIVOaj1gGm43ngUusQ0invMljzTIM1W6XWO9BDUT4Gvz6mfGBMeWVgKeBo2tP6cYd1AOmfmPJJwBrAvdZZakC70C1VHhJd0zrHdJwdU37DOoR0ikUrk2qLUWp8AT21mPIDMeV9gEUomuObfnnFbdYBpL9iyncA70dXt9d1h1JGb3Pq+/3ndOsA0h3Bu7cBFlOH1Bo6SnX9C2zUyhvgDqO4FvgM6zyjoC/yDoopvxJT3hH4HJCs8xhZJ3j3DusQUontrANMx7PAFdYhpFOsbuIcb7Rua7S2gJ4spvx0THl7YBuKvxybRgV0h8WUjwPWAh6wzmJgLLCbdQjpreDdIhQ70HV0pqYSSJ9Z9D8DLGO0bmu0voCeLKZ8FrAe8IR1lmGYANxlHUJsxZRvobhwoouHPvYqDwpLe+wBzGwdYjrUviH9ZjXK8T1G67ZGZwpogJjy3RRF9CPWWYbokZhyVx/fyxRiyi/FlLcF9gGydZ4+WhLNhG6N4N1YigK6jp5Et4NK/1ntQOuyqlHqVAENEFO+H9iMZhQhL1kHkHqJKR8NrE/xzb4rPm8dQHpmC+x6PmfkzJjyJOsQ0jlWBfTuwbs5jNZuhc4V0PB/F1ccYp1jCF6xDiD1E1O+DlgN+Id1lj75SNk3K823t3WAQah9QyxYtXDMjTYnRqWTBXTpCOBO6xAz8LJ1AKmnmPJjwLp048a0mYGvWoeQ0QnerU5923EeB/5iHUI6yWoHGmDf4N1chus3WmcL6JjyBOB/rHPMgApoma6Y8msx5U8A3wUGrPNU7PPBu0WtQ8ioHGYdYBBnxJTb/mdI6smygJ4P+H3wrq6HemutswV06SzrADOgAlpmKKZ8CLAt7bl9c1o8cLB1CBmZ4N0HgY2scwyiC09ypGaCdzMBCxrH2BQ4yjhDI3W6gI4pPwzcY51jECqgZUjKMY0fAP5tnaVCOwfvlrMOISNyqHWAQTwKXGcdQjppfmAW6xDAl4N3X7EO0TSdLqAbQIcIZchiyrdRHC5say/nzNS7DUCmIXi3JbCmdY5BXKD2DTFi2b4xtZ8G744L3tWhoG8EFdAwu3WAQWgHWoYlpvwMxaPyk6yzVGSr4N061iFkaIJ3juLAdp1dYB1AOmtp6wBT2Qu4PHg3v3WQJuh0AV0O9Z/bOscgVEDLsMWUc0x5d4rJFW28lvjE4N3brEPIkHyXet949hpwhXUI6aw6tqStC9wavPu0boEdXKcLaGAD4O3WIQahFg4ZsZjyz4DNgRets/TYssAPrEPI4IJ37wW+YZ1jBq6IKb9uHUI6q44FNBQHG/8HuCl4t551mLrqegG9jXWAGVAvkoxKTPkSYB2KObdt8tXg3drWIWTayqd7JwFjrbPMgNo3xFJdC+jJVgGuDt6dF7z7cDk1REqd/Y8RvJsV+Lh1jhmY0zqANF9M+U5gLeAu6yw9NBNwcvAuWAeRafoG8D7rEEPwJ+sA0k3lYb2lrHMM0RbARcDDwbuDg3fvNs5TC50toIEDKUbI1JkKaOmJmPKjFDvRbZrQsTRwuHUIebPg3crAd6xzDMFt5Y2eIhaWpnlPmRehONfwYPDuxuDdUcG7rYJ381gHs1D3x2uVCN6NA/a1zjEEKqClZ2LKLwTvPgScCnzMOk+PfDl497eYsi7CqIHg3bzAORQX39Sddp/FUt3bNwYzBnh/+foqMBC8+ydwK/AYxWz1ya8n+O9h9ldjyrH/cavRuQI6eOeBXwHOOssQzGEdQNolpvx68G5b4Bjg89Z5emAMRSvHAzHlm63DdFnZ9/wH4N3GUYZK/c9iqckF9NTGACuUr8HsCpxSfZz+6FQLR9kA/1uKR9lNoB1o6bmY8qSY8heAA6yz9EgAzg3eWV+J23U/Bj5oHWKIngWutw4hndamAnqobrcO0EudKqCBnwPbWYcYBhXQUpmY8mHAbsAE6yw98C7gHM2HthG82wXYxzrHMFwUU55kHUI6rWsF9ATadZC9GwV08M4H734NfNE6yzCpgJZKxZRPBrYEXjWO0gurAydp+H9/lXNij7fOMUxq3xAzwbuZgWWsc/TZvTHlbB2il1pfQAfvFqGYPPAZ6ywjoAJaKhdTvgjYEHjGOksPfBI4TkV0fwTvPkBxGK9JO/8TgIutQ0inLUkzDtr2UqvaN6DlBXR5WOpmipOiTaRDhNIXMeUbgbWBB62z9MBngV9p6H+1gndrUsyGnc06yzD9Jabctts5pVm61r4BKqCbIXi3avDuGuAMYD7rPKOgHWjpm5jy/RRF9J3WWXrgMxTtHK38O85a8G51il3c2a2zjIDaN8SaCugWaNU3l+DdKsG73wA3Auta5+mBELxTES19E1N+CtgAuMU4Si/sCpxS9htKjwTvVqUonpv6hOwy6wDSeSqgW6DxBXTwbu7g3ReDd7dQtGvsQjGTsC26dtBAjMWUn6MYR9aGMV+fAk4P3r3dOkgbBO8+AlwJzGWdZYSeo4XfyKVxVrIO0GfPt/HWz8ZdpBK8m4PiMfMHytfatLsZfxzFjrpI38SUx5e3Fv6J5j/N2QZYKni3dUz5YeswTRW82x84gmZvvFwdUx6wDiHdVdYwy1vn6LNWfmhtVAEdvPsMcCLN/gt8uLQDLSZiyi8H7z4MnAtsbJ1nlFYGbgrebR9TvsI6TJME7xxwAkVLTNNdaR1AOm91ulXDQEsL6Kb9Jv6b5mUerXHWAaS7YsqvAVtQ7EQ33bzAxcG7r1gHaYrg3fwURWcbimdQAS321rYOYEAFdA204WDTcKmAFlMx5deBjwNnW2fpgbHAT4N3pwXv5rEOU2fBu80p/s5tyzf8p2PK/7QOIZ23lnUAAyqgrcWUnwcetc7RZ0vrUgixVt4gtT1wmnWWHtkBuKucFS9TCN7NGbw7ieKpw0LWeXroKusA0m3l9/I1rXP02STaMRr1LRpVQJe6tgv9dmBh6xAiMeUJwE7AycZRemUB4Izg3R+DdwtYh6mD4N0mwB3AbtZZKqDed7G2LM2dYDNS98eUo3WIKjTqEGHpFmBL6xB9tgzd23mXGoopTyoP874O7G2dp0e2ATYM3u0LnNLFKQ3Bu/mAQ4E9rbNUSP3PYq0J7RsZ+DvwT+BhirNnDwOPAIliTPDk10zA3MDiwLvL1+LAohRnTpakpe0b0MwC+lbrAAbGAZdbhxABKAvMzwXvXgfaciBvHoqd9a8G7w6MKXfitrrg3WzA18pXE28VHKr/xJTvsw4hnVfXAvpu4M/ApcA1MeVXh/FrnwbundYPBO+WoF1tYG/SxAK6ay0coFF2UkMx5a8G7yYB+1pn6aGVgfODd38Dvh1Tvto6UBXK0XR7AwcA8xvH6QftPksd1OlA7gBwIfDjmPJVVSwQU34QeLCK966DxvVAx5T/DTxvnaPPNIlDaimm/DXgl9Y5KrA2cFXw7pLg3QbWYXolePf24N2ewD3Az+lG8QwqoMVY8G4u4D3WOUqnAcvHlD9aVfHcBY0roEu3WQfos/dZBxAZxBeA31iHqMiHgCuDd/cE7/Zt6ui74N2ywbujgf9QXIqyuHGkflMBLdbWoOgbtjQe2CGmvGNM+W7jLI3X1AK6a20cCwTvlrIOITItZU/07sDp1lkqNA74CfB48O6U4N06dR8vGbx7W/Buu+DdlRQ9jl8C5jSOZeGR8lGyiCXr/ue/A++NKbf57+m+amIPNHSvgAZYB7jfOoTItMSUJwbvdgLeBmxlnadCbwN2Ll9PBu8uBC4ALo0pv2KaDAjevRP4aPnaGJjVNlEtaPdZ6sCygL4d2KQOf0e1yZiBgeZNbAreLU9LB3MP4lcx5TaPmJIWCN554DxgE+ssfZaAq4GLgBuBW4d5kn1EgnfvAFahuJzho8D7sX9MXDefjSmfaB1Cuqt8WvUCNk+AngJWjyk/YrB2qzW1gJ4ZeIViN6gr7okp1+UAgsh0Be8CRSG5vnUWQ5OA+yielv2DYgfoceCJ8kbVIQvezQTMB7wTWITiTMSqFIXzIj3M3FYrx5RbO4tW6i94tyJ285DXjSn/xWjtVmtkAQ0QvLsBWM06R5/NF1N+1jqEyIyU84UvpXvX1g5FBp4sX89QFNtTG0txU+KCFMVzU9vtrL0KzBlTnmgdRLoreLcfcKTB0n+NKa9jsG4nNPkv5UsoHps+TnGy/HGKE6YzU/x7zQw4YDFgaWApiltymvzvvDbF43GRWospvxK824zi+mRNkXkzR3FT16LWQTrgZhXPUgObG637C6N1O6GxxWRM+cDh/pqyP3M9il7Bj1BcM9kk66ACWhoipjw+eLcJcBWwvHEc6abrrQNItwXvZqf43t1v44EzDdbtjKaOsRuRmHKKKV8aU94nprwUxYGbcyhu5GkCPYqRRilbjjYG/mWdRTrpBusA0nkbAbMYrPufmHI2WLczOlVATy2mfHNM+WPAeymutKy7VYN3XTo4KS0QU36S4pvIv62zSOdoB1qsbWa07otG63ZGpwvoyWLKt8eUPwJ8Hahzv5yjewcnpQViyo9SfCMZb51FOuOJ8utOxJJVAf2S0bqdoQJ6CjHlIykeN9f5C09tHNJI5dWxW1NMoRCpmto3xFTwbgXsRk0ubbRuZ6iAnkpM+SpgV+rbF93l2brScDHlq4FPU98/X9Ieat8Qa1a7zwBLBO+aNiihUVRAT0NM+RzgUOsc07FBOWNXpJFiyqcBB1jnkNbTDrRYsyygAT5kvH6rqYCevoOBx6xDTIPH/g+lyKjElA8HjrfOIa01ieJKdREThuPrprRbeY24VEAF9HTElCdQ32/wW1kHEOmBLwB/sg4hrXRPTLnOZ1mk/TbGZnzdlCjOBkkAACAASURBVFYHdjHO0FoqoAd3IjDBOsQ0bB68a+wlOCIA5Q1xnwButs4iraP2DbFWlyfFRwTv5rAO0UYqoAcRU34KqOMYpLkpblQUabSY8qsUt4I+bBxF2kUHCMVaXQrodwI/sQ7RRiqgZ6yOBTQU48BEGq/8oLo58IJ1FmmNW6wDSHcF71YEFrbOMYU9gnfftQ7RNiqgZ6yuBbT6oKU1yhnRH0MzomX0BoB/WoeQTqvL7vOUDg7e7W0dok1UQM/Y3NYBpmPR4N17rUOI9IpmREuP/Dum/Ip1COm07a0DTMcvgnefsQ7RFiqgZ6zOt/loF1papZwR/W3rHNJod1oHkO4K3i0DrGqdYzpmAn4dvDs+eOeswzSdCuhBlJMuFrfOMQj1QUvrxJSPAE61ziGNpQJaLO1oHWAIPgtcG7yzuma8FVRAD24ToM7j4t4bvFvMOoRIBfZA4+1kZNT/LJY+aR1giFYHbgne7Rm8Uy04AvqPNrgm9AptaR1ApNdiypHiUOFT1lmkcbQDLSaCd+8HlrHOMQzzAicA/wjebWgdpmlUQE9H8O4dwBbWOYagrocVREYlpvwosA2azCFDNxG42zqEdFYT2jemZWXgiuDdOcG7lazDNIUK6Ok7AGhCk/06wbs6H3QUGbGY8l+BL1nnkMa4P6acrENI95RtEJ+wzjFKWwG3Be/+FrzbJXj3NutAdaYCehqCd6vSrG/au1kHEKlKTPkE4DjrHNIIat8QKxsAC1mH6JG1gN8Ajwfvfhq8WyN4N7N1qLpRAT2V8ovkBKBJXyy76ItbWu7LwDXWIaT2dIBQrDS1fWMw8wBfAa4DnitbPL4UvHuPca5aUAH9VkcBq1iHGKZ3AZtahxCpSkz5DWBb4BHrLFJr2oGWvgveeYrzGm02J0WLx9HAXcG78cG7Z4J3nR1koAJ6CsG7r1PsdDWR2jik1WLKz1DMPn/NOovUlgposbA5MJd1iD6bk2KKx9+tg1hRAV0K3u0MHGGdYxS2DN7Nax1CpEox5VtoxnhJ6b8E/Ms6hHRSG9s3huLWcmOjk1RAA8G7bwEnA2OMo4yGA3ayDiFStZjy6TT7w65U496Y8gTrENItwbvZgY9a5zByqXUAS50uoIN3IXh3GnAY7fhvoZ056YoDgD9Zh5Ba0e6zWPg40NVxb5dYB7DUhqJxRIJ37wP+CuxgnaWHVgreNe0ApMiwxZQnATsD/7bOIrXxsHUA6aSutm9E4C/WISx1roAO3s0bvDsOuAl4n3WeCmgXWjohpvwCxcUFb1hnkVp4yDqAdEvwbglgY+scRq7t+qVFnSmgg3dzBO++AtwH7EV7/913LEfqiLReTPl64BvWOaQWHrYOIJ3zOdpbS8xIp/ufoQO/8cG79wfvfgX8B/gpxWDwNpsb+Jh1CJF+iSn/FDjXOoeY0w609E3wLtDdJ74DwBnWIay1uoAO3n0WuBHYHZjVOE4/7WUdQKTPdkM7kF33sHUA6ZRP0v4Nuem5Oqbc+fMnrS6ggSusAxjZIHi3qnUIkX5RP3TnPR1T1gU70k9fsA5g6GTrAHXQ6gI6pnw/8A/rHEa+Zh1ApJ9iyjcAX7fOISYetg4g3RG8WxNowsSriRTtq/8ArgZupWh1egGYNML3fBU4syfpGm6sdYA++APN+ELvte2Cd9+MKT9iHUSkX2LKPwverU9x5bd0h/qfpZ/quPs8QFEoXwRcTDEX/Zly5OdbBO/GAAsDq5evNYD3M+N21zNjyq/0KnSTjRkYGLDOUKng3eLAg9Y5jPw0pryvdQiRfgrezQXcArzbOIr0zw9jyt+0DiHtF7ybH3gEqMu0qyeBQ4EzYspPjeaNgnczUxTTu1C0xM09jZ+2UUy5q+2xb9LqFg6AmPJDFAcJu2iP4N2c1iFE+immPB7YHsjWWaRvtAMt/bIH9SieXwG+BywVUz52tMUzQEx5Ykz57zHlzwELAtsC5/PfsyWPAFeOdp22aH0BXfqDdQAjs6OJHNJBMeUbUT90l6iAlsqVO7R7W+cA7gDGxZS/H1N+tYoFYsoppnxmTHlLiqd5BwKHxpTb3bYwDK1v4QAI3i1KcchkjHEUC48Di8eUNZ1AOid4dxaai94F42LK91mHkHYL3m0NnG0c42Zgk5jy88Y5Oq8TO9DlQbrrrXMYeRfFvEqRLvoM8Jh1CKnUAND5mbTSF9aHB2+m6EFW8VwDnSigS6dbBzCkkXbSSWU/9G4URZa005Mx5WQdQtoteLcssJFxjC/ElF80ziClLhXQZ9Ddb6IrBe82sQ4hYiGmfBlwrHUOqcwz1gGkEz6PbRvouTHlrj5Jr6XOFNAx5ceBv1rnMLSfdQARQ98A7rEOIZVQAS2VKkdj7moc40Dj9WUqnSmgS12dxgHwoeDdStYhRCzElCOwMzDBOov03LPWAaT19gHmMFz/sZjynYbryzR04SbCKf0R+Blv/uAwQHHV5UMUkzoeAp4uf87M5Ws2YBzwHmAZIPQtcW99A/iUdQgRCzHlm4J3PwAOss4iPaUCWioTvJudooC2dJfx+jINnSqgY8pPBO+uBZYALi1fl8eUh/wIMHg3E/A+igHj2wFLVpG1IjsE7w7XJ1npsEOBjwCrWQeRnlELh1TpC0z7Rr5+utt4fZmGThXQpS1iyi+P9BeX98rfXL6+FbxbCzgcWL9H+ao0E/ADYGvrICIWYsoTgnc7U1z13dQnSfJm2oGWSgTv3g7sa52D4qm41EzXeqAZTfE8nff7e0x5A2AL4IFevndFtgrerWEdQsRKTPleinYmaQftQEtV9gLmsw4BLGYdQN6qcwV0VWLKFwBrAH+zzjIEh1kHEDF2LHCZdQjpCe1AS88F7zywv3WOUpNaRTtDBXQPxZSfoxi0foF1lhn4YPDOeiC8iJmY8gDFBSvjrbPIqGkHWqqwO7CgdYjSEtYB5K1UQPdYTPl1YBfgSessM3CodQARSzHlx7C/mldGTzvQ0lPBu1moV5vX4sG75axDyJupgK5ATPkF4HPWOWZgjeDdVtYhRCzFlE+lGG8pzaUCWnptV2BR6xBT+ax1AHmzMQMDXb3dunrBu39Tvz+EU7oTWLmcLCLSScG7d1KMiZrLOosM24sxZf2+Sc8E72YG7qV+fcfPAwvFlJN1ECloB7paV1sHmIEVgB2tQ4hYiik/Sb0e18rQqf9Zem1H6lc8A8wD7GQdQv5LBXS16l5AAxxU9nuJdNmJwF+sQ8iwPWcdQNqjvCjt29Y5BnFE8K4OY/UEFdBVe8Q6wBAsSXHaWKSzyqkcewHZOosMy2vWAaRVtgWWtQ4xiHcAR1uHkIIK6Go1pcH8O8G7t1mHELEUU74L+JF1DhkW9YNKT5S9z9+zzjEEOwTvtrAOISqgq9aUAnoh4MvWIURq4AfAfdYhZMhUQEuv7AE0ZVTcr4N3y1iH6DoV0NWa1zrAMBwYvKvL0HgRE+UJ972tc8iQvW4dQJoveDc78H3rHMMwH3BJ8O5d1kG6TAV0tda0DjAMswNHWocQsRZTvhI42TqHDIl2oKUXvgnMbx1imBYDLg7ezW0dpKtUQFerSQU0wKeCd+tZhxCpgf3QBR1NoAJaRiV4tzDwVescI7Q8cFHw7h3WQbpIBXRFgndzAatY5xiBY4N3Y61DiFiKKT8H7GudQ2ZILRwyWocBwTrEKKwB3BS8W9k6SNeogK7O7oC3DjECKwJfsA4hYi2m/FvgMuscMijtQMuIBe9WpR2XkywG/DV4t611kC5RAV2Bchh7k4vQg4N3C1iHEKmBvYFoHUKmSwW0jMaPgTHWIXpkVuAPwbsjNJa2P1RAV2NrYHHrEKMwJ5qHK0JM+QHgJ9Y5ZLpUQMuIBO+2BDawztFjY4BvAHcE7za1DtN2KqB7LHg3G3CUdY4e2Dl49wHrECI1cATwhHUImSb1QMuwled82rxJtBTw5+DdH4J3C1mHaSsV0L13OEU/UtONAX5R3s4k0lkx5VeBA6xzyDRpB1pGYm9gnHWIPtgOuCd490PNjO49FdA9FLxbG/i8dY4eWhn4nHUIkRr4DXCLdQh5CxXQMizBuzlpxpXdvTI78HXgoeDd/wbvmjgdrJZUQPdI8G4R4Aza99/0kOBd0wbMi/RUTHkSzZ0V22aTrANI43wb6OLc5FmAHYGbg3fXBu82MM7TeG0r9kyUn2gvBNrYazQXRQ+oSKfFlK8GzrbOIW+iaQMyZMG7JYB9rHPUwGrAP61DNJ0K6FEK3jngLGAF6ywV+nTZniLSdfsD2TqE/B8V0DIcx9HM+xl67fSY8jPWIZpOBfQoBO9mB84DPmidpWJjgJOCd02+rUlk1MqxdsdY55D/o2JIhiR4tzPwIescNfFz6wBtoAJ6hIJ3CwLXAF2ZtTgOONQ6hEgNHAI8ax1CAO1AyxAE7+alHeNle+FvMeV/WIdoAxXQIxC8Wx64DnivdZY+2yd4t651CBFLMeUX6dYp/jpTAS1DcRTdPDg4LXqC1iMqoIcpeLcnRfG8qHUWAzMBJwfvZrUOImLseOAu6xCiAloGF7zbCNjFOkdNPA780TpEW6iAHqLg3QLBu/OBE4DZrPMYWoJ23+AkMkMx5YnA16xziHqgZfrKczvHW+eokeNiyhOsQ7SFCughCN5tAtwJfNQ6S018rvxUL9JZMeU/A1dY5+g47UDLYL4LLGkdoibGA8dah2iTsdYBGmIi6p+a0uSpHCvGlF+yDiNi6CDaP4WnzlRAyzQF71YC9rPOMYiJwJXAZcCDwEPl/44HZqW4QXB2YB6K81ZrlK9xFN+Dh+vImPL40ceWycYMDAxYZ2iE4N1lgHZd3+zXMeU9rEOIWAreXY6KaCvnx5S3tA4h9RK8mwn4O7C6dZZpuAP4NcUs5ieH+4vLi9s2BnYFNmNoG6FPAUvGlF8d7noyfWrhGLpvWQeood2Dd5tbhxAxdpB1gA7TDrRMyxepX/H8OvB14H0x5Z+PpHiGYgpQTPnM8oPju4B9gdtn8MsOU/Hce9qBHobg3ZnAx61z1Mx/gBViyi9YBxGxol1oM9fGlNezDiH1EbxbhGJCTp0O+98I7BRTvq+qBcrNrCOAFaf6oUeAZWLKqaq1u0o70MNzIEXfkvzXQsDR1iFEjB1kHaCj5rIOILXzC+pVPN8DbFpl8QwQU76Qolf608CjU/zQ91U8V0M70MMUvPsfii9QebOPxZTPsQ4hYkW70CaejSnPZx1C6qG8rvsU6xxTeBpYM6b8UD8XDd69jaK1Y2dgRY2uq4YK6GEK3i0K3It676b2NMUf1Ketg4hYKG/pvMY6R8cMAD6m/IZ1ELEVvFsCuJVickVdbBVTPs9q8eDdPDHl563Wbzu1cAxTTPkR4FDrHDU0P3BqefpZpHNiyteiudD9NgZ4p3UIsRW8GwucSr2K55eBP1sGUPFcLRU7I/Mj4G7rEDW0EeoFlW47yDpABy1oHUDMfY9iRnKdXBJTztYhpDpq4Rih8nHt1QxvoPlLFIX3g8AbFAcSJwJzAssBywCz9DZp3w0Am8WUL7YOImJBvdB9t3VM+VzrEGKj/F58FfXbENw9pnySdQipjm4iHKGY8rXlgcLPDPLTHgTOBS4G7owpPz7Ye5aPoZYHdqIYkt7EwzFjgN8F794XU37MOoyIgYNQAd1P2oHuqODdXMDvqF/xDDCiOc/SHHX8omuSrwPPTvXPHqEYd7dCTHnJmPK+MeWLZ1Q8A8SUJ8SUb4sp708xIH1XoInzld8BnF5+IBDplLIX+lrrHB2iArq7jgcWtQ4xHZp80XIqoEchpvwcsF/5f28FPkVxXeahMeV/jvK934gpn0Ix1/Evo0tqYm3gh9YhRIwcYx2gQ1RAd1Dwbjdge+scg9BkmJZTD3QPBO/Wjin/rcL3nxm4HFi/qjUqpPnQ0jnl05eHgIWts3TABTHlLaxDSP8E75YCbqFeF6ZMbfOY8kXWIaQ62oHugSqL5/L9JwI7As9UuU5FTi7nc4p0RnlxwS+tc3SEdqA7JHg3C8XIujoXzwCrWweQaqmAboiY8n+A3a1zjMCcwBnBO28dRKTPTgBetw7RASqgu+X7wGrWIYZgbesAUi0V0A0SUz4f+Kt1jhFYBfi5dQiRfoopPwv83jpHB7wzePd26xBSveDdBhSH95tgTV0s1m76zW2e71kHGKG9gnefsg4h0mdHWwfogJkoxn9KiwXvFqb4QNqUumUOYEPrEFKdpnwhSimmfDnNvQXx+ODde6xDiPRLTPkWmvnUqGlWsg4g1QneBeAcYAHrLMO0r3UAqY4K6Ga6xTrACM0KnBO8m9s6iEgfaRe6eiqg2+1EYFXrECOwmTaN2ksFdDPdbh1gFJYBzipPUot0wVnADC9SklFRAd1Swbv9KO5YaKIxaBe6tVRAN9ND1gFGaQOKHQWR1tNIu75Y0TqA9F7wbhPgCOsco/Tp4N37rENI76mAbqY5rQP0wK7BuwOtQ4j0yQlAsg7RYvMG7xayDiG9U16W8ntgZussozSW4j4EPXVtGRXQzTSPdYAe+X7wbgfrECJViyk/A5xnnaPl1MbREsG72YFzgbacl1kJ+I51COktFdDNNL91gB4ZQ/HJXAPnpQtOsw7QciqgWyB4Nwb4LbCcdZYe+1bw7v3WIaR3VEA30wbWAXrIA+fqum/pgAuBF61DtJgK6HY4CNjKOkQFxgLnBe8Wsw4ivaECumGCdwsAbTuQ8A7gT8G7uayDiFQlppwoJnJINXSQsOGCdx+n3a0OCwJ/Dt61pQ2z01RAN8+HKVof2mZZNN5O2k9tHNV5T/BuNusQMjLBu5WA39DO729TWhY4v7wcRhpMBXTzfMY6QIU2BI63DiFSoSuAp6xDtNQs6OrkRgreLQ5cBHTlA9DawJnBu1mtg8jIqYBukPKw3XrWOSq2W/DuW9YhRKoQU54I/ME6R4t92DqADE/ZlngJ0LUxhJsBV5f//tJAKqCbpSuF5aHBu+2tQ4hURG0c1dnUOoAMXfBuTuBiYCnrLEZWBa7Tdd/NNGZgYMA6gwxB8G514Dra3x822evAR2PKl1sHEem14N1DwLutc7TU0jHl+61DyODKHuCLgXWts9TAeGCbmPIV1kFk6LQD3QDlwbpf053iGeBtFCN/2t6yIt30e+sALaZd6JoL3o2laGVS8VyYC7g0eHdk8M5bh5GhUQHdDN8GVrAOYeDtFOPtdNGKtM2p1gFaTH3QNVZelHIS8FHrLDUzE7AfcFPw7r3WYWTG1MJRc8G7FYGbAGedxdBLwIdiyjdYBxHpleDdPcA46xwt9CowT0w5WweRtwre/QzYxzpHzb0BHBRTPsw6iEyfdqBrLHi3CPAnul08A8wBXBy8W8U6iEgPXWYdoKVmBdaxDiFvFbw7EBXPQzELMKd1CBmcCuiaCt7NSzHaZxHrLDUxF3BJOWxfpA10YKg66oOumeDd3sAh1jka4mqK1k2pMbVw1FA5XP0KYHXrLDX0DLBBTPku6yAioxG8mxt4Fm1kVOHumPJy1iGkELzbEfgt+lofiieB98WUn7QOIoNTAV0zwTsHnA9sYp2lxp6kKKLvtQ4iMhrBu5sBtSZVY92Y8l+sQ3Rd8G5P4DiaUTxPAO4FbgXuo8jsy9dswMrlq6pJGROBjWLKV1f0/tJDY60DyH8F72YCTkHF84y8E7gieLe+5r1Kw12BCuiqfA5QAW0oeLcv8BPrHENwKfBj4JqY8uuD/cRyrOyKFE+It6L4ft2rDwcHqHhuDu1A10jw7ljgC9Y5GuRRYL2Y8sPWQURGInj3YeAi6xwtlYGFY8rPWAfpouDdwcB3rXPMwJ8pitZ/jPQNgnfvAnYBPg0sM4os5wFbx5RVlDVEEx6pdEI5G3NZ6xwNswjFTrQOWkpTXUsxskp6zwGfsQ7RNcG7McG7n1L/4vkY4COjKZ4BYsqPx5QPjymPAzYCbhzB2zwI7KriuVm0A10jwbuFgduBua2zNMz9wMYx5X9bBxEZruDdtTRn7Np44CrgAeChKV4JmHeK1zuB9YEPUoyVs/IQsFRMeZJhhs4o2xBPAHa3zjID34wp/7CKNy43w3YADgPePYRf8jqwVkz51irySHVUQNdM8G574HTrHA30OPDhmPKd1kFEhqMBj7pfAs6luHr5kuFcUFIeil4X2AzYFXhHJQkHt3lMWW0yFSt7g38HbG+dZQYuiClvUfUi5ZXcXwQOZvAPkXvGlH9VdR7pPRXQNRS8+y2wk3WOBnoB+GhM+W/WQUSGKni3HsXc17p5FDgA+ENMOY32zYJ3swFfAb5GMde9X86PKW/Zx/U6J3gXgD8Cm1tnmYEBihFxt/VrweDdshQfPlecxg+fHFPerV9ZpLdUQNdQ8G4OilaOxayzNFAEtosp/8k6iMhQlLu0r1KfqUivAEcAR8WUY6/fPHg3F7B/+Zql1+8/DZOAxWPKj/Rhrc4J3s1OMXp1fessQ3BOTPlj/V60/IDxc2DPKf7xbRStGz3/Myb9oUOENRRTfgnYmeIvfhmeAJwTvNvFOojIUJQtEQ9a5yidBSwdUz60qm/sMeXxMeUDKPqjn6pijanMBHy5D+t0Tnlu50qaUTyD0e2fMeUYU/4ssCPwMkVb1LYqnptNBXRNxZSvBX5gnaOhxgInB+/2sw4iMkR3WwcADqX4pt6XG9DKS05WBa7vw3JfCt4t3Yd1OiN4tw5wE8XvYVPcYrl4TPk0YANgJ91h0Hxq4aix8jTvmcBIHzndC1xO8c353vL1EjBz+ZqD4hKH1Sh2EFYbZeQ6+nFMeX/rECKDCd4dAXzDaPlMcZDpFIvFyxaW31L94bMLY8ofqXiNTgje7Q0cTX9acHppjpjyy9YhpB1UQNdc8G5Witu03jvEX3IdxWPYc2PK9w1zrbWBrwNbAmOG82tr7mSKAmGCdRCRaQnefRr4H4OlM7BZTNnk0fZk5cSCy6h+nN8WMeULKl6jtcoPO8cAn7XOMkJjY8oTrUNIO6iAboDyopAbKGarTssk4GzgRzHlG3qw3hbAadjOb+2184FPqOdM6ih4tybwd4Ol944pH2+w7lsE795BsQGwZIXLPAAs34upIl0TvHsnxRPRta2zjMJcMeUXrUNIO6gHugFiyo9StHFM/Zf+AMXu6riY8ra9KJ7L9c6nmN36RC/erya2AC4pJwCI1M09Bmv+qi7FM0BM+VngIxSXtVRlSUBnI4YpeLc6cDPNLp4BZrcOIO2hArohYsrX8ebbne4G1o8p71bFYYSY8i3Ax4E2tT2sA1wTvFvIOojIlGLK44G+HN4r3UBxyUOtxJTvBb5d8TLfLp/qyRCU7UXXAG34e3M+6wDSHiqgGySm/L/AQRS3lr23nNRR5XrXAd+rcg0DKwLXB++adHJcuqFfu9ADwF41bmM4Afhnhe//duDHFb5/KwTvZgneHU3Rm++t8/RI1T320iEqoBsmpnxwTPmQ4VynO0pHAHf1aa1+WRi4Nni3o3UQkSn0q4A+M6Z8a5/WGrbykNfXKl5m++DdthWv0VjBu5WBG4EvWWfpsQ2sA0h7qICWQcWUJwGnWueoQAD+N3j3o+Cd/hxIHdzbhzUmUTzBqrWY8sXARRUvc0rwbo2K12iUctf5exTF88rWeSqwfjkeVmTUVDjIUPzeOkCF9gcuCN7NaR1EOq/Kw3OTnRpTrsOlLUNxdMXvH4Bzg3eLVbxOI5S7zjdQtAk2bb7zUM0LrGUdQtpBBbTMUEz5AeAh6xwV2gy4IXg3zjqIdNprfVjjN31Yo1cuA56veI0FgD91+QN08G5s8O67FLvOQ71voMl0rbv0hApoGaqnrANUbBmKw4WbWweRzqp6RvmrQKUHj3upvPjo7D4stTxwRvBubB/WqpXg3UoUu84H095d56ltE7xb2DqENJ8KaBmqp60D9MGcwPnBu29aB5FOqrqAvrLGkzem5/Q+rfMh4P/1aS1z5a7zdyh2nd9nnafPxlLDEY7SPCqgZaj60Z9ZBzMBhwfvTg3eBesw0ilVF9BVH8qrwhX0p7UFYM/g3QF9WstM8G5r4Fbg+4AzjmNlr/LmS5ERUwEtQzW9a8Tb6pPAX3ThgvRR1QV0T24q7adypF0/n379IHh3SvDu7X1csy+Cdx8M3l1H0RazvHUeY3MBP7EOIc2mAlqGqouF5CrATcG7da2DSCdUXUA/W/H7V6XfuXemOA+xTJ/XrUTwbrXg3aXA5YDG9v3XLsG7Da1DSHOpgJah6mIBDTA/cGXw7juaFy0Vq7pV4bmK378qFoX/ChQfnrcxWLsngnfLBe/OonjysLF1npo6LnjXllsWpc9UEMgMBe+WBWazzmFoZop+wSt0elsqVOUO9Bsx5ZcrfP8qWRX+swN/DN4d1aQJHcG7dwfvfgPcAXzMOk/NLQP8wDqENJMKaBmKzawD1MT6wG3lIRyRXptU4Xu/UOF7V+0V4/W/ClxVbiTUUnmD4MeDd+cB/wJ2Qd/fh2q/4N3O1iGkefQHTIZCs5H/ax7g7ODd/wvevc06jLTKQhW+95wNvsJ4QesAwAeAu4J359XpTETwbpXg3dHAf4AzgS0oxrTJ8JwYvFvTOoQ0y5iBgQHrDFJjwbs5gGfo7rijwdwJfDKmfKd1EGm+8hKfP1W4xMIx5ccrfP9KBO9uAla1zjGV64EfA2fFlKt8cvAWwbv5gZ2AXYGV+rl2yz0FrBZTftQ6iDSDdqBlRvZAxfP0rEBxBfjnrINIK1R9UHfxit+/Ku+yDjANawBnAPcF775Q5di74J0P3q0RvPtS2aLxOMUINhXPvbUAcIHmQ8tQaQdapqs8OPMAsKh1lgY4B9g9pvy8dRBppuDdIcCBFS6xS0z5txW+f88F72YBXqf+mz2vUhzau43ikpJbgTtiyq8O503KNptlgdWneK2ENjH66W5gk5jyY9ZBpN7UKyWD2RYVz0O1NfD+4N1OMeWrrcNII1W9Az2u4vev6/PdOwAAGYlJREFUwkrUv3gGmBVYs3xNNil4dz9FUX0HMAHwU7zcVP9/PopWlTn6F1um4T0Ul2htHFO+3zqM1Jd2oGWagnczA/9AjwmHaxJwGPD9mPIb1mGkOYJ3lwEbVbjEnTHlFSt8/54L3h0EfM86h/RNBK6jOHczqXzNTPHhb3lglj5meRLYNKZ8ex/XlAbRDrRMz5dR8TwSM1E8ht8qeLdHTLlx1yeLmap3oFcI3i0XU76r4nV6aQvrAFK5l4BjgEuA62PKaVo/KXjnKIro9wPbUXzYrPLpxDuBbQAV0DJN2oGWtygvC7mbbl+e0guTgJ8DB8aUq75lThouePcqUNlhtNLBMeWDKl6jJ4J37wLUh9peA8DJwLdiyk8N9xeX36d2pphGUkV70k9iyvtV8L7SEk3oLZP++xkqnnthJopLGO4M3n3IOozUV/BuIaovnqHYuWuK7a0DSGUSsHFM+TMjKZ4BYsqPxZQPjykvS/G10st+ZRXPMkMqoOVNgnd7Ujy2kt5ZHLgkeHdy8G4e6zBSS/267XO54N0mfVprxMqxcF+3ziGVGAA+HVO+oldvGFM+A1gO2Ad4dpRvp+JZhkQFtPyf4N3awLHWOVpsV+Du4J121mRqH+3jWj8pDwnX2ZcoelClfb4XU/59r980pvxGTPloYCngpBG+jYpnGTL1QAvwf/2GN6FvWv1yHvD5Jt4MJ70VvPMUu2b9bJvaO6Z8fB/XG7Lg3ZzAg4Ce1rTPk8Ci/ZhQFLzbETgOmH2Iv0TFswyLdqBlsk+i4rmftgTuCt7tXV6eIN21Af0/c/D94F1d5w0fjIrntjqhX+M9Y8qnAqtQjGOdERXPMmwqoAWAmPKPKa6H7aeXgacoZn4+RzG1okvmAH4JXB28W9Y6jJjpZ/vGZPMDx9ftw1vwbgeKPlZpnzcodoT7prwIZS3gfwf5aSqeZUTUwiFvErw7DPhWRW9/K3AucAtwW0z54anWngNYG1gX2BF4d0U56mgCRTF9kK4D75bg3YMUB00tHBJT/q7R2m8SvFsJ+Dv9mUYi/fePmPKqFgsH72YCjgf2mOqHVDzLiKmAlrfo8e1fTwCnAL+NKf9zGBkcsDfFpSTz9ShLE7wAHAIcq5sM2y94tzxwp3GMXWLKv7UMELybF7gBWMIyh1Tq9JjyDlaLl09bjga+WP4jFc8yKiqgZZqCdwcAPxjFWzwHHA78Iqb8+ihyzA1cDrxvFFma6F/A/jHlc62DSHWCdwdSfGCylIGPxZQvtFg8eLc08CdgaYv1pW9+EFP+jnWI4N2PgJlUPMtoqYCW6Qre7Q/8aJi/LAFHAkfGlF/qUY55gauAFXrxfg1zJbBvTPlW6yDSWzWbNjEJ+E5M+bB+Lhq8Wxc4G5i3n+uKid1jyiMdLydSOzpEKNMVUz4S+CzF4Y+huANYLab8nV4Vz2WO54BNKA4dds2GwM3Bu5OCdwtah5Ge+ib1KJ6h+F5waPDuj8G7yieCBO/GlJc2XYaK565w1gFEekkFtAwqpnwisCkw2MG2AeAoiuL5jopyPEH/p4TUxUzAbsB9wbsDg3fBOpCMTjl3vY7TJrYBbgrebVXVAsG7dYDrgRNQUdUlc1sHEOklFdAyQzHlK4E1gHun8cOvAVvGlL8WU04VR/kJ8HTFa9TZbBT9svcG7z5VtxFkMiwHA3X9IDQOOCd4d0PwbtNevWnwbpng3R+Aa4HVevW+0hgqoKVVVEDLkJTzNNcELp3iHz8LbBhTvqBPGV4BTu/HWjW3CPA74Pbg3Q7liCZpiODde4BPW+cYgtWAPwfv/ha827fMPSzBuyWCd98I3t1M8QF8u56nlKZ4h3UAkV7SIUIZluDdWOBnwGbAh2PK/+rz+h8Dzurnmg1wL3AYcGpMeYJ1GBlc8O5cipsom+jfwJ+Bf1J8gH6ufL0ELEQxz3rya0XgvTYxpYbuiCmvZB1CpFdUQMuIBO9mjSm/arDuPBTfuNW+8FYPUowO/I1mSNdT2f97rXUOEQMDwHzloXCRxtOjXxkRi+K5XPd54FGLtRtgCeBE4F/Bu88F77x1IPmv8uDgadY5RP5/e/cfb9tc53H8Jaw1i6KkaNymqfEjUmLyq0wqqkEaITIjRM0kE9Ogx1QPQz+mMozGKMUj/dYQUtFNoZia6PpRiQn5zZUUoet+fb/XvXf+WOvmupx7zjr7u/Y6++7X8/HYD5yz9+f7eXCd897f/f3Rk5WAV/bdhJSLAVqjaF7fDcxwzwNOBm6uyuJQT+3oX3NN/WxgVt+9SD3avu8GpFwM0BpFBuipWQ84Ebi1KosjqrJYve+GxlGzb+BswPWfGnd7VGWxct9NSDkYoDWKelk+MsLWob4d8s6qLE5ork7W8JwKvLbvJqQZYBbQ2Rnj0jAZoDWKPA5pep4BvIf6HOkLq7LY3dmgblVlcTT1JTiSaof03YCUg6dwaORUZfEAsGbffawg5lJvPDy1ue1RmVRlcQDw+b77kGagjUNM1/fdhDQIZ6A1UprNWIbnfNYDjgHuqMri7KosXtNzPyOvKounVGXxPuo3JpKe6Ii+G5AG5Qy0RkpVFpsBP+u7jxXcDcBngC+EmB7ou5lRUpXFc4Ev42kD0vIsArYOMV3ZdyPSdDkDrVHjOaLd2wj4BDC3Koszq7LYsyqL1fpuaqarymIv4BoMz9JkngJ8qioLL8TSyHIGWiOlKotzgd367mMMPUx9jvHXgNkhpvk99zNjVGXxNOCTwH599yKNmLeHmE7ruwlpOgzQGhlVWTyF+hrvZ/Tdy5hbEqbPAr49zmG6KottgNOpb4GURsEc6nPJbwNuB+4C1gKe3zxeRD1J8ewh9PI74IVe761RZIDWyKjKYmvg8r770OPM57GZ6bEJ01VZ7AgcBuyMS+E08y0GzgE+EWL68WRPbo63fA2wD7AHsEaHvV0E/HWIaWGHY0jZGaA1Mqqy+Arwd333oQnNBy5tHpcAV4WYHu21o4yaK9HfChxKPUsnjYJF1EslpnWkYlUWzwT+FTgYWDVnY0s5PsR0ZEe1pU4YoDUSqrKYBdwKrNJ3L5qyecCPqcP0pcAVIaYFvXY0Dc2fvUOAdwDP7LkdqY2FwAEhpq8MWqgqi/WBY4HdB+7qye0TYjqjo9pSdgZojYSqLI4HDu+7Dw1kPnWgXjJDPSfElHrtaAJVWWwIbAfsRL0e1DduGkVHhZg+krNgVRa7AV8g/3n884GtQkzXZa4rdcIArRmvuTzlTrpdh6fhe4T6zOklj+uX/H2Iad6wmqjKYlVgC+rAvB3wcoazgUrq0h3ARiGmR3IXbmajzwY2y1j2DOBtXfQrdcEArRmvKosjgOOGNNw84BfATcCvqDffrNc8/gp4+pD6GHdzeSxQL/nrPdT/feYB86a6YbEJyGs/yWMW8ApgK6DK3L/Ut31DTKd3VbzZE/BpYP8BSy0Gjg4xfXjwrqThMUBrRmvCzy3UYacrC4DvUB9Hdl6IKUzQSwXsDbwL2LLDfjQ1i6iP1Ju3zCNQv9FZEpT95ELj5m5gVoip81/wAy6vmw/sH2I6O2NL0lAYoDWjVWWxL/XVyF1YBHyRep3g3BY9rQR8APggHmEmaeb5XIjpoGENVpXFfwHvbvmyu4C/CTFd3UFLUuf85a+Z7p87qnsxsHmI6cA24RkgxLS42ZizE/BgJ91J0vRdMOTxDgNOafH8OdQbBg3PGlkGaM10R1JvhsklAf8UYtoxxHTNIIVCTN8DDszTliRlc+EwB2uWihxMvQxuMp8Btg8x/brbrqRuuYRDM15zCseJwAEDlroF2DvEdOXATS1lmh9fSlIXHgwx9bLZuSqL1YArgE2e5Nv3AgeFmM4fbldSNwzQGhlVWewKnAqsO42XXwbsFGLKvuSiKosCuJluNzpK0lT8KsS0YV+DV2XxIuolGqst9eXzqcPzvf10JeXnEg6NjBDTecCmwFktX3o1HYVngOYykE91UVuSWvptn4M3F6Es+URuPnBwiGlXw7NWNM5AayRVZfEW6tC61iRPvRZ4VYjpvo77WYt6V7nnCUvq0/khpl37bqIqi6OAM0NMN/bdi9QFZ6A1kkJMZ1DPRs9eztNuBHbsOjw3/dwPnNf1OJI0iaf23QBAiOnDhmetyAzQGlkhpl+HmHYB3g78YZlv3wrsEGL6zRBb+skQx5KkJ7N23w1I48AArZEXYjoNeDHwg+ZLd1GH57uG3MqcIY8nScsyQEtD4BporTCaGwLfBVwUYrqhh/FXo54J942ppL4sCDEVfTchregM0FJGVVk8BDyt7z4kjbUNQkw39d2EtCJzpkzKK/TdgKSxt23fDUgrOgO0lJcBWlLfDNBSx1bpuwFpBZP6bkBSLxYBVwIXAN8F7qG+jW914E+BnYE3ML2bVNsyQEsdcw20lFFVFg8Ca/Tdh6ShugZ4W4jp6uU9qdnovCVwJLBnh/0sBJ7dnE8vqQMu4ZAyqcpiTQzP0jhZDHwIeNlk4RkgxLQ4xDQnxPRmYCvg+x31tTKwV0e1JWGAlnJ6Xt8NSBqq94WYjg4xLWj7whDTFSGmHahnoh/M3xr7dVBTUsMALeVjgJbGx2khpmMHLRJiOgd4GfUykJy2rcpi/cw1JTXcRCjls80Qx/ol8C3qK8vvax6zgL+kXmO5LbDSEPuRxsm1wMG5ioWYbqrKYhvg08D+ueoC+wLHZKwnqeEmQimTqiwuB7bucIgHgE8AZ05202JVFlsCJwDbddiPNK72CjGd1UXhqixOAv4xU7l7gBeEmDxeU8rMAC1l0GwgvI96805uEfgk8NG2u+qrstgf+Cx+2iTlch3w4hBTJ788m5M6TgHekanke0NMx2WqJanhGmgpj+3pJjxfAWwSYjpiOkdShZi+COwDPJq9M2k8Hd9VeIb6pA7gncCXMpV8b1UWT81US1LDAC3lsVsHNU8Gtgsx3TJIkRDT2cBb87QkjbXFwOyuBwkxLQIOBC7KUG5t4LAMdSQtxQAtDahZvrF3xpILgH1DTIeEmLLcbBhiOgP4Wo5a0hi7NsR07zAGCjEtpH7jm2O8V2SoIWkpBmhpcPtRX9mbwwLqDUqnZ6q3tPcAf+igrjQuLh7mYCGme6h/vkx3ychtwD4hpp2zNSUJMEBLOfxDpjqPAm8JMX0jU73HCTHdDfxbF7WlMXHlsAcMMX0XOL7lyx4C/gV4YfPpk6TMDNDSAKqy+Atgg0zl3hpi+nqmWhP5HPUst6T2ftPTuB8AbpzC8xZSnyW9fojp2BBT7LYtaXwZoKUBhJhuBjYEPk/9y2u6jhvGTFGI6bfAd7oeR1pB9RKgm6vC37+cpzxK/TNo4xDTu5r/zyV1yHOgpUyqstgI+BDwZtrdAngJsGOzaahzVVm8Ceh6plvK4TrgbOoLQe4BHqZ+w7op8BLq2z+HORG0boipr1loqrL4MfUto0tE6uD88RDT7f10JY0nA7SUWVUWLwU+DLxhCk+/G9himL+Uq7JYg/pWQ6/61kw1Fzga+MLy3lg2S6gOoT7ybc0h9LVan7f6VWXxCuBHQABOpf7kam5f/UjjzAAtdaQqi22pN+29ejlP2y3E9M0htfRHVVncSL6121JOFwFvCjHNm+oLqrJYnTpwH063M9LrDOsYu4lUZXEAMLvvPqRxZ4CWOlaVxQ7UQXrrZb51fohp1x5aoiqLr1LfUNiH+4CrqNdtrgQ8B3hpT71oZjmL+gz0aZ1/XpXF9tQ3+P1Z1q4es1GIaSqb+SSt4NxEKHUsxHRxiGkb4I3ANUu+DBzaX1f8dMjjzaU+Vmtz4FkhpteHmHYJMe0cYtoc2JJ6LaenBoyvc6iPcZz25UEhpkup10Z3tVF2GMtEJI0AZ6ClIarKYiXqWwvXCDGd2mMf+wFfHMJQ9wAfB04JMT0y2ZOrsticetPYC7puTDPKHcBmIaYHchSryqIEzgV2ylFvKa8LMV2YuaakEeQMtDREIabFIaYz+gzPjYeGMMa51Bc5nDiV8AwQYvopsAXwrU4700yyiHrZRpbwDNCcf/wm4Lu5ajY2ylxP0ogyQEvj6cEOaz8KHB5i2j3E1Hqc5jV7Aj/I3plmok+HmH6Yu2gToncDLstYdouMtSSNMAO0NJ66moGOwC4hphMGKdJcHLEH8KssXWmmWgD8e1fFm08+/pZ8f943z1RH0ogzQEvjqeqg5gLgzSGm7+UoFmL6PfXGy2lvKsvsfurNkHcCd1HPtI+Sh6hPQJlJfX81xHRHlwOEmG4D3pmp3Iuqsigy1ZI0wgzQ0nhaK3O9hdTrWM/LWTTEdD1wUs6aLd0MfAx4WYjpmSGmWSGmPwsxPRdYDdgY2B34BjATd2T/HjgZ2AFYK8S0dohpVWB1YEfgs9RvDPpy7DAGCTH9N/XxdoNaFWehJeEpHNJYai5j+HzGkseEmD6Ysd4fVWWxJvVSjmd1UX8CC4CPAB8NMU1pxrYqi5cAx1BvXpsJzgEOmeyWy6osVqWeof0o8NRhNNb4RYjpJcMarCqLpwO3Ak8fsNTHQkzvz9CSpBHmDLQ0np6Rsdb/UIfNTjSbCjur/yT+j3rG+UNTDc8AIaZrQky7A0fQ72x0pD5Pec+pXBEfYloQYjoJ2ATI+gnCJLo6q/lJNad8HJeh1B4ZakgacQZoaTw9P1Od+6mXbizMVG8iXwKmdBTegG4AXh1iumbSZ04gxPQfwF4Mp99lLVmHfmbbF4aY7gwxvZF6Fn0YZg9pnKWdCEz6pmISG1ZlsWmOZiSNLgO0NJ5yHcd1WIjpzky1JtTMHp7b8TC3AzuGmO4dtFCI6WzggIE7amfJecoDzSI3S3EOz9PShP4A/G/HYzxBiOlh6jXtg3IWWhpzBmhpzFRl8RRgswylrgJOz1BnqnKu2V5WAF4fYrorW8F6FniYF+acEGL6Wo5CzTGEh+SoNYEb2yyPyewzwHTfJC0ALgCuzteOpFFkgJbGzwbk2Sx2RIhpmGt9Lway3Va3jKNCTDd0UPcw4Bcd1F3WjcBROQuGmE6mPqWjC7d0VHdSzQUrZ7R4yaPAhcA7gHVDTDvlPm1G0ugxQEvjZz71bO4gYfS8ENMledqZmhDTIuDyDkrPAf6zg7pLLvL4+y5qL2UxcNBUr0tv6d3Azzqoe2sHNdv48iTfXwh8n/p0kueEmF4XYvpsiKnPI/8kzSAGaGnMNJvFDgTWAXalDhNtb2rr5Mi6Kci9bnYR8PYuN0GGmC6n2xMnvhli+lEXhZtQvif5b67sbQYaIMR0JXD9Ml9eBFxKvXRlvRDTDiGmU0JMvxt6g5JmPAO0NKZCTCnEdH6IaT/g2cBuwFeBeZO89MoQ01WdN/jkcgfoc0NMw1hicXSHtXMczTahENPN5D9G8MHM9abjy9Sz9z8CDgVmhZheFWI6eSrH/0kab16kIulxqrL4E2BnYG9gF+pb65Z2UIjpc0NvjD9ehvH7jCW3DjHNyVhvQlVZnE/97zOny0JML89c8wma66uvA9bPVHLfENMwN6A+QVUWawFViGlun31IGk3OQEt6nBDTIyGmr4eY9qaemd6L+la7QL1uus0GrNy9PUC9hjuHS4YVnhtdnCLSydrtZYWYEnBkxpKrZKw1LSGm+w3PkqbLAC1pQiGm+SGms0JMe1Jfpf3aEFOuADtdv85U56RMdaZqNvX5x7k8Anw7Y73lCjF9g/rWyRxWzlRHknphgJY0JSGmh5vNV327O0ONhcBFGepMWYgpAN/KWPL7zcUgw3RCpjplpjqS1AsDtKRRk2MG+ooQU+6TJaYi5/KXPs4iPg+4LUOdF2SoIUm9MUBLGjU5dj4PdfZ5KT+gnv3OYXamOlPWnMV9coZSG2eoIUm9MUBLGjU5NqD1EqCbJRfXZSh1X4jpjgx1puM06vXXg3hhjkYkqS8GaEmjZtAAPR+4LEcj0/STDDVyhPBpaW7jG/QNyJ9XZeE6aEkjywAtadQMGqB/2BzL1pccAXoYl78sz3Q2Qy6mvoHwHOqLZVbN2pEkDVHvZ3FKUkvHA3OATZrHhrQ71aGv9c9LXJGhxrUZagziPOpAvNIE318A/BL46VKPn4eYZsINhJI0MAO0pJESYroEuGTJP1dlsTL1DXlLAvX6wHOWeqzN44Ne3wH69gw17sxQY9pCTPdUZXEFsBX11e8/B37GY2H5uhBT7LFFSeqUV3lLWqFVZbEKsA51mF4X+HaIqdcffFVZzOOJV6S38coQ0w9z9TMdVVlsCiTgpuZ0DkkaGwZoSRqyqixuBDYYoMRLQ0w/z9WPJKkdNxFK0vDNHfD1fVwCI0lquAZakobvAurj9KbrvlyNSJLacwmHJEmS1IJLOCRJkqQWDNCSJElSCwZoSZIkqQUDtCRJktSCAVqSJElqwQAtSZIktWCAliRJklowQEuSJEktGKAlSZKkFgzQkiRJUgsGaEmSJKkFA7QkSZLUggFakiRJasEALUmSJLVggJYkSZJaMEBLkiRJLRigJUmSpBYM0JIkSVILBmhJkiSpBQO0JEmS1IIBWpIkSWrBAC1JkiS1YICWJEmSWjBAS5IkSS0YoCVJkqQWDNCSJElSCwZoSZIkqQUDtCRJktSCAVqSJElqwQAtSZIktWCAliRJklowQEuSJEktGKAlSZKkFgzQkiRJUgsGaEmSJKkFA7QkSZLUggFakiRJasEALUmSJLVggJYkSZJaMEBLkiRJLRigJUmSpBYM0JIkSVILBmhJkiSpBQO0JEmS1IIBWpIkSWrh/wE7ZrzV4CArGAAAAABJRU5ErkJggg==;" parent="LTjXMn_Se3MsG3HputFX-14" vertex="1">
          <mxGeometry x="336" y="110" width="90" height="90" as="geometry" />
        </mxCell>
        <mxCell id="LTjXMn_Se3MsG3HputFX-13" value="&lt;span id=&quot;generated-id-1695256723420-k3xlq1dxu&quot; style=&quot;&quot;&gt;&lt;b style=&quot;&quot; id=&quot;generated-id-1695256762705-z5atwp1ln&quot;&gt;&lt;font id=&quot;generated-id-1695256765906-nrp94r0nq&quot; style=&quot;font-size: 24px;&quot;&gt;Server&lt;/font&gt;&lt;/b&gt;&lt;br&gt;&lt;/span&gt;" style="text;strokeColor=none;align=center;fillColor=none;html=1;verticalAlign=middle;whiteSpace=wrap;rounded=0;" parent="LTjXMn_Se3MsG3HputFX-14" vertex="1">
          <mxGeometry x="16" y="10.02000000000001" width="120" height="40" as="geometry" />
        </mxCell>
        <mxCell id="LTjXMn_Se3MsG3HputFX-1" value="" style="rounded=1;whiteSpace=wrap;html=1;" parent="1" vertex="1">
          <mxGeometry x="196" y="200" width="310" height="130" as="geometry" />
        </mxCell>
        <mxCell id="LTjXMn_Se3MsG3HputFX-2" value="" style="shape=image;verticalLabelPosition=bottom;labelBackgroundColor=default;verticalAlign=top;aspect=fixed;imageAspect=0;image=data:image/svg+xml,PHN2ZyB4bWxucz0iaHR0cDovL3d3dy53My5vcmcvMjAwMC9zdmciIGZpbGw9IiNlMTAwOTgiIHZpZXdCb3g9IjAgMCAxMzEgMTQ0Ij48c3R5bGU+c3Zne2ZpbGw6Y29sb3IoZGlzcGxheS1wMyAwLjg4MjQgMCAwLjU5NjEpO308L3N0eWxlPjxwYXRoIGQ9Ik02NS41IDYuNDY3NzdMMTAzLjIgMjguMjMzOVY3MS43NjYxTDY1LjUgOTMuNTMyMkwyNy44IDcxLjc2NjFWMjguMjMzOUw2NS41IDYuNDY3NzdaTTMyLjAzIDMwLjY3NjFWNjIuNjUxN0w1OS43MjE3IDE0LjY4ODNMMzIuMDMgMzAuNjc2MVpNNjUuNSAxMy4xNEwzMy41NzgzIDY4LjQzSDk3LjQyMTdMNjUuNSAxMy4xNFpNOTMuMTkxNyA3Mi42NkgzNy44MDgzTDY1LjUgODguNjQ3OEw5My4xOTE3IDcyLjY2Wk05OC45NyA2Mi42NTE3TDcxLjI3ODMgMTQuNjg4M0w5OC45NyAzMC42NzYxVjYyLjY1MTdaIiBjbGlwLXJ1bGU9ImV2ZW5vZGQiIGZpbGwtcnVsZT0iZXZlbm9kZCIvPjxjaXJjbGUgcj0iOC45MSIgY3k9IjI5LjQ1IiBjeD0iMjkuOTEiLz48Y2lyY2xlIHI9IjguOTEiIGN5PSI3MC41NDUiIGN4PSIyOS45MSIvPjxjaXJjbGUgcj0iOC45MSIgY3k9IjkxLjA5IiBjeD0iNjUuNSIvPjxjaXJjbGUgcj0iOC45MSIgY3k9IjcwLjU0NSIgY3g9IjEwMS4wODUiLz48Y2lyY2xlIHI9IjguOTEiIGN5PSIyOS40NTUiIGN4PSIxMDEuMDg1Ii8+PGNpcmNsZSByPSI4LjkxIiBjeT0iOC45MSIgY3g9IjY1LjUiLz48cGF0aCBkPSJNOS42MTIgMTM3Ljg0QzYuNzc4NjcgMTM3Ljg0IDQuNTggMTM3LjAyNCAzLjAxNiAxMzUuMzkyQzEuNDUyIDEzMy43NiAwLjYyNDY2NyAxMzEuNTczIDAuNTM0IDEyOC44M0MwLjUxMTMzNCAxMjguMTUgMC41IDEyNy4wNzMgMC41IDEyNS42QzAuNSAxMjQuMTI3IDAuNTExMzM0IDEyMy4wNSAwLjUzNCAxMjIuMzdDMC42MjQ2NjcgMTE5LjYyNyAxLjQ1MiAxMTcuNDQgMy4wMTYgMTE1LjgwOEM0LjU4IDExNC4xNzYgNi43Nzg2NyAxMTMuMzYgOS42MTIgMTEzLjM2QzExLjUzODcgMTEzLjM2IDEzLjE1OTMgMTEzLjcyMyAxNC40NzQgMTE0LjQ0OEMxNS43ODg3IDExNS4xNzMgMTYuNzYzMyAxMTYuMDM1IDE3LjM5OCAxMTcuMDMyQzE4LjA1NTMgMTE4LjAwNyAxOC40MDY3IDExOC44NzkgMTguNDUyIDExOS42NVYxMTkuNzE4QzE4LjQ1MiAxMTkuODk5IDE4LjM4NCAxMjAuMDQ3IDE4LjI0OCAxMjAuMTZDMTguMTEyIDEyMC4yNzMgMTcuOTQyIDEyMC4zMyAxNy43MzggMTIwLjMzSDE2Ljk5QzE2Ljc4NiAxMjAuMzMgMTYuNjM4NyAxMjAuMjg1IDE2LjU0OCAxMjAuMTk0QzE2LjQ1NzMgMTIwLjEwMyAxNi4zNjY3IDExOS45MjIgMTYuMjc2IDExOS42NUMxNS44OTA3IDExOC40NDkgMTUuMTQyNyAxMTcuNDQgMTQuMDMyIDExNi42MjRDMTIuOTQ0IDExNS44MDggMTEuNDcwNyAxMTUuNCA5LjYxMiAxMTUuNEM3LjUwNCAxMTUuNCA1LjgzOCAxMTUuOTc4IDQuNjE0IDExNy4xMzRDMy40MTI2NyAxMTguMjkgMi43NjY2NyAxMjAuMDkyIDIuNjc2IDEyMi41NEMyLjY1MzMzIDEyMy4yMiAyLjY0MiAxMjQuMjQgMi42NDIgMTI1LjZDMi42NDIgMTI2Ljk2IDIuNjUzMzMgMTI3Ljk4IDIuNjc2IDEyOC42NkMyLjc2NjY3IDEzMS4xMDggMy40MTI2NyAxMzIuOTEgNC42MTQgMTM0LjA2NkM1LjgzOCAxMzUuMjIyIDcuNTA0IDEzNS44IDkuNjEyIDEzNS44QzExLjcyIDEzNS44IDEzLjQyIDEzNS4xOTkgMTQuNzEyIDEzMy45OThDMTYuMDA0IDEzMi43OTcgMTYuNjUgMTMxLjAxNyAxNi42NSAxMjguNjZWMTI2LjkyNkgxMC43MzRDMTAuNTA3MyAxMjYuOTI2IDEwLjMyNiAxMjYuODU4IDEwLjE5IDEyNi43MjJDMTAuMDU0IDEyNi41NjMgOS45ODYgMTI2LjM3MSA5Ljk4NiAxMjYuMTQ0VjEyNS42NjhDOS45ODYgMTI1LjQ0MSAxMC4wNTQgMTI1LjI2IDEwLjE5IDEyNS4xMjRDMTAuMzI2IDEyNC45NjUgMTAuNTA3MyAxMjQuODg2IDEwLjczNCAxMjQuODg2SDE4LjAxQzE4LjI1OTMgMTI0Ljg4NiAxOC40NTIgMTI0Ljk1NCAxOC41ODggMTI1LjA5QzE4LjcyNCAxMjUuMjI2IDE4Ljc5MiAxMjUuNDE5IDE4Ljc5MiAxMjUuNjY4VjEyOC42NkMxOC43OTIgMTMwLjQ3MyAxOC40MjkzIDEzMi4wNzEgMTcuNzA0IDEzMy40NTRDMTYuOTc4NyAxMzQuODM3IDE1LjkyNDcgMTM1LjkxMyAxNC41NDIgMTM2LjY4NEMxMy4xNTkzIDEzNy40NTUgMTEuNTE2IDEzNy44NCA5LjYxMiAxMzcuODRaIi8+PHBhdGggZD0iTTI0LjMzNjEgMTM3LjVDMjQuMTA5NSAxMzcuNSAyMy45MjgxIDEzNy40MzIgMjMuNzkyMSAxMzcuMjk2QzIzLjY1NjEgMTM3LjE2IDIzLjU4ODEgMTM2Ljk3OSAyMy41ODgxIDEzNi43NTJWMTIwLjYwMkMyMy41ODgxIDEyMC4zNzUgMjMuNjU2MSAxMjAuMTk0IDIzLjc5MjEgMTIwLjA1OEMyMy45MjgxIDExOS44OTkgMjQuMTA5NSAxMTkuODIgMjQuMzM2MSAxMTkuODJIMjQuODgwMUMyNS4xMDY4IDExOS44MiAyNS4yODgxIDExOS44OTkgMjUuNDI0MSAxMjAuMDU4QzI1LjU4MjggMTIwLjE5NCAyNS42NjIxIDEyMC4zNzUgMjUuNjYyMSAxMjAuNjAyVjEyMi4xNjZDMjYuNDc4MSAxMjAuNjAyIDI4LjAxOTUgMTE5LjgyIDMwLjI4NjEgMTE5LjgySDMxLjU0NDFDMzEuNzcwOCAxMTkuODIgMzEuOTUyMSAxMTkuODg4IDMyLjA4ODEgMTIwLjAyNEMzMi4yMjQxIDEyMC4xNiAzMi4yOTIxIDEyMC4zNDEgMzIuMjkyMSAxMjAuNTY4VjEyMS4wNDRDMzIuMjkyMSAxMjEuMjcxIDMyLjIyNDEgMTIxLjQ1MiAzMi4wODgxIDEyMS41ODhDMzEuOTUyMSAxMjEuNzI0IDMxLjc3MDggMTIxLjc5MiAzMS41NDQxIDEyMS43OTJIMzAuMDgyMUMyOC43MjIxIDEyMS43OTIgMjcuNjQ1NSAxMjIuMTg5IDI2Ljg1MjEgMTIyLjk4MkMyNi4wNTg4IDEyMy43NzUgMjUuNjYyMSAxMjQuODUyIDI1LjY2MjEgMTI2LjIxMlYxMzYuNzUyQzI1LjY2MjEgMTM2Ljk3OSAyNS41ODI4IDEzNy4xNiAyNS40MjQxIDEzNy4yOTZDMjUuMjg4MSAxMzcuNDMyIDI1LjEwNjggMTM3LjUgMjQuODgwMSAxMzcuNUgyNC4zMzYxWiIvPjxwYXRoIGQ9Ik0zOS45MDI4IDEzNy44NEMzOC44MTQ4IDEzNy44NCAzNy44MDYxIDEzNy42MTMgMzYuODc2OCAxMzcuMTZDMzUuOTQ3NSAxMzYuNzA3IDM1LjE5OTUgMTM2LjA5NSAzNC42MzI4IDEzNS4zMjRDMzQuMDg4OCAxMzQuNTUzIDMzLjgxNjggMTMzLjcwMyAzMy44MTY4IDEzMi43NzRDMzMuODE2OCAxMzEuMjc4IDM0LjQxNzUgMTMwLjA1NCAzNS42MTg4IDEyOS4xMDJDMzYuODQyOCAxMjguMTUgMzguNDg2MSAxMjcuNTM4IDQwLjU0ODggMTI3LjI2Nkw0NS45MjA4IDEyNi41MThWMTI1LjMyOEM0NS45MjA4IDEyNC4wODEgNDUuNTM1NSAxMjMuMTI5IDQ0Ljc2NDggMTIyLjQ3MkM0NC4wMTY4IDEyMS43OTIgNDIuODYwOCAxMjEuNDUyIDQxLjI5NjggMTIxLjQ1MkM0MC4xNDA4IDEyMS40NTIgMzkuMTg4OCAxMjEuNjc5IDM4LjQ0MDggMTIyLjEzMkMzNy43MTU1IDEyMi41ODUgMzcuMjUwOCAxMjMuMTI5IDM3LjA0NjggMTIzLjc2NEMzNi45NTYxIDEyNC4wMzYgMzYuODQyOCAxMjQuMjI5IDM2LjcwNjggMTI0LjM0MkMzNi41OTM1IDEyNC40MzMgMzYuNDM0OCAxMjQuNDc4IDM2LjIzMDggMTI0LjQ3OEgzNS43NTQ4QzM1LjU1MDggMTI0LjQ3OCAzNS4zNjk1IDEyNC40MSAzNS4yMTA4IDEyNC4yNzRDMzUuMDc0OCAxMjQuMTE1IDM1LjAwNjggMTIzLjkzNCAzNS4wMDY4IDEyMy43M0MzNS4wMDY4IDEyMy4yMzEgMzUuMjMzNSAxMjIuNjUzIDM1LjY4NjggMTIxLjk5NkMzNi4xNDAxIDEyMS4zMTYgMzYuODQyOCAxMjAuNzI3IDM3Ljc5NDggMTIwLjIyOEMzOC43NDY4IDExOS43MjkgMzkuOTE0MSAxMTkuNDggNDEuMjk2OCAxMTkuNDhDNDMuNzIyMSAxMTkuNDggNDUuNDQ0OCAxMjAuMDU4IDQ2LjQ2NDggMTIxLjIxNEM0Ny40ODQ4IDEyMi4zNyA0Ny45OTQ4IDEyMy43NzUgNDcuOTk0OCAxMjUuNDNWMTM2Ljc1MkM0Ny45OTQ4IDEzNi45NzkgNDcuOTI2OCAxMzcuMTYgNDcuNzkwOCAxMzcuMjk2QzQ3LjY1NDggMTM3LjQzMiA0Ny40NzM1IDEzNy41IDQ3LjI0NjggMTM3LjVINDYuNjY4OEM0Ni40NDIxIDEzNy41IDQ2LjI2MDggMTM3LjQzMiA0Ni4xMjQ4IDEzNy4yOTZDNDUuOTg4OCAxMzcuMTYgNDUuOTIwOCAxMzYuOTc5IDQ1LjkyMDggMTM2Ljc1MlYxMzUuMTU0QzQ1LjQyMjEgMTM1LjkwMiA0NC42ODU1IDEzNi41MzcgNDMuNzEwOCAxMzcuMDU4QzQyLjc1ODggMTM3LjU3OSA0MS40ODk1IDEzNy44NCAzOS45MDI4IDEzNy44NFpNNDAuMjQyOCAxMzUuODY4QzQxLjg5NzUgMTM1Ljg2OCA0My4yNTc1IDEzNS4zMjQgNDQuMzIyOCAxMzQuMjM2QzQ1LjM4ODEgMTMzLjE0OCA0NS45MjA4IDEzMS41ODQgNDUuOTIwOCAxMjkuNTQ0VjEyOC4zODhMNDEuNTM0OCAxMjlDMzkuNjc2MSAxMjkuMjQ5IDM4LjI3MDggMTI5LjY4IDM3LjMxODggMTMwLjI5MkMzNi4zNjY4IDEzMC45MDQgMzUuODkwOCAxMzEuNjc1IDM1Ljg5MDggMTMyLjYwNEMzNS44OTA4IDEzMy42NDcgMzYuMzIxNSAxMzQuNDUxIDM3LjE4MjggMTM1LjAxOEMzOC4wNjY4IDEzNS41ODUgMzkuMDg2OCAxMzUuODY4IDQwLjI0MjggMTM1Ljg2OFoiLz48cGF0aCBkPSJNNTQuMTUzMyAxNDMuOTZDNTMuOTI2NyAxNDMuOTYgNTMuNzQ1MyAxNDMuODkyIDUzLjYwOTMgMTQzLjc1NkM1My40NzMzIDE0My42MiA1My40MDUzIDE0My40MzkgNTMuNDA1MyAxNDMuMjEyVjEyMC41NjhDNTMuNDA1MyAxMjAuMzQxIDUzLjQ3MzMgMTIwLjE2IDUzLjYwOTMgMTIwLjAyNEM1My43NDUzIDExOS44ODggNTMuOTI2NyAxMTkuODIgNTQuMTUzMyAxMTkuODJINTQuNzMxM0M1NC45NTggMTE5LjgyIDU1LjEzOTMgMTE5Ljg4OCA1NS4yNzUzIDEyMC4wMjRDNTUuNDExMyAxMjAuMTYgNTUuNDc5MyAxMjAuMzQxIDU1LjQ3OTMgMTIwLjU2OFYxMjIuMTY2QzU2Ljc5NCAxMjAuMzc1IDU4LjY5OCAxMTkuNDggNjEuMTkxMyAxMTkuNDhDNjMuNjM5MyAxMTkuNDggNjUuNDQxMyAxMjAuMjYyIDY2LjU5NzMgMTIxLjgyNkM2Ny43NzYgMTIzLjM2NyA2OC4zOTkzIDEyNS4yNzEgNjguNDY3MyAxMjcuNTM4QzY4LjQ5IDEyNy43NjUgNjguNTAxMyAxMjguMTM5IDY4LjUwMTMgMTI4LjY2QzY4LjUwMTMgMTI5LjE4MSA2OC40OSAxMjkuNTU1IDY4LjQ2NzMgMTI5Ljc4MkM2OC4zOTkzIDEzMi4wNDkgNjcuNzc2IDEzMy45NjQgNjYuNTk3MyAxMzUuNTI4QzY1LjQ0MTMgMTM3LjA2OSA2My42MzkzIDEzNy44NCA2MS4xOTEzIDEzNy44NEM1OC43MjA3IDEzNy44NCA1Ni44MTY3IDEzNi45NDUgNTUuNDc5MyAxMzUuMTU0VjE0My4yMTJDNTUuNDc5MyAxNDMuNDM5IDU1LjQxMTMgMTQzLjYyIDU1LjI3NTMgMTQzLjc1NkM1NS4xMzkzIDE0My44OTIgNTQuOTU4IDE0My45NiA1NC43MzEzIDE0My45Nkg1NC4xNTMzWk02MC45ODczIDEzNS44NjhDNjIuODIzMyAxMzUuODY4IDY0LjE2MDcgMTM1LjI5IDY0Ljk5OTMgMTM0LjEzNEM2NS44NjA3IDEzMi45NTUgNjYuMzI1MyAxMzEuNDQ4IDY2LjM5MzMgMTI5LjYxMkM2Ni40MTYgMTI5LjM4NSA2Ni40MjczIDEyOS4wNjggNjYuNDI3MyAxMjguNjZDNjYuNDI3MyAxMjYuNTUyIDY2LjAxOTMgMTI0LjgyOSA2NS4yMDMzIDEyMy40OTJDNjQuMzg3MyAxMjIuMTMyIDYyLjk4MiAxMjEuNDUyIDYwLjk4NzMgMTIxLjQ1MkM1OS4xOTY3IDEyMS40NTIgNTcuODQ4IDEyMi4wNTMgNTYuOTQxMyAxMjMuMjU0QzU2LjAzNDcgMTI0LjQzMyA1NS41NDczIDEyNS44MjcgNTUuNDc5MyAxMjcuNDM2TDU1LjQ0NTMgMTI4Ljc2Mkw1NS40NzkzIDEzMC4wODhDNTUuNTAyIDEzMS4wNjMgNTUuNzE3MyAxMzEuOTkyIDU2LjEyNTMgMTMyLjg3NkM1Ni41MzMzIDEzMy43MzcgNTcuMTQ1MyAxMzQuNDUxIDU3Ljk2MTMgMTM1LjAxOEM1OC43NzczIDEzNS41ODUgNTkuNzg2IDEzNS44NjggNjAuOTg3MyAxMzUuODY4WiIvPjxwYXRoIGQ9Ik03My45MDkyIDEzNy41QzczLjY4MjUgMTM3LjUgNzMuNTAxMiAxMzcuNDMyIDczLjM2NTIgMTM3LjI5NkM3My4yMjkyIDEzNy4xNiA3My4xNjEyIDEzNi45NzkgNzMuMTYxMiAxMzYuNzUyVjExNC4xMDhDNzMuMTYxMiAxMTMuODgxIDczLjIyOTIgMTEzLjcgNzMuMzY1MiAxMTMuNTY0QzczLjUwMTIgMTEzLjQyOCA3My42ODI1IDExMy4zNiA3My45MDkyIDExMy4zNkg3NC40ODcyQzc0LjcxMzggMTEzLjM2IDc0Ljg5NTIgMTEzLjQyOCA3NS4wMzEyIDExMy41NjRDNzUuMTY3MiAxMTMuNyA3NS4yMzUyIDExMy44ODEgNzUuMjM1MiAxMTQuMTA4VjEyMi4xNjZDNzUuOTE1MiAxMjEuMjgyIDc2LjY4NTkgMTIwLjYxMyA3Ny41NDcyIDEyMC4xNkM3OC40MzEyIDExOS43MDcgNzkuNTY0NSAxMTkuNDggODAuOTQ3MiAxMTkuNDhDODMuMTY4NSAxMTkuNDggODQuODc5OSAxMjAuMTk0IDg2LjA4MTIgMTIxLjYyMkM4Ny4yODI1IDEyMy4wMjcgODcuODgzMiAxMjQuODUyIDg3Ljg4MzIgMTI3LjA5NlYxMzYuNzUyQzg3Ljg4MzIgMTM2Ljk3OSA4Ny44MTUyIDEzNy4xNiA4Ny42NzkyIDEzNy4yOTZDODcuNTQzMiAxMzcuNDMyIDg3LjM2MTkgMTM3LjUgODcuMTM1MiAxMzcuNUg4Ni41NTcyQzg2LjMzMDUgMTM3LjUgODYuMTQ5MiAxMzcuNDMyIDg2LjAxMzIgMTM3LjI5NkM4NS44NzcyIDEzNy4xNiA4NS44MDkyIDEzNi45NzkgODUuODA5MiAxMzYuNzUyVjEyNy4yNjZDODUuODA5MiAxMjUuNDMgODUuMzU1OSAxMjQuMDAyIDg0LjQ0OTIgMTIyLjk4MkM4My41NjUyIDEyMS45NjIgODIuMjg0NSAxMjEuNDUyIDgwLjYwNzIgMTIxLjQ1MkM3OC45NzUyIDEyMS40NTIgNzcuNjcxOSAxMjEuOTczIDc2LjY5NzIgMTIzLjAxNkM3NS43MjI1IDEyNC4wMzYgNzUuMjM1MiAxMjUuNDUzIDc1LjIzNTIgMTI3LjI2NlYxMzYuNzUyQzc1LjIzNTIgMTM2Ljk3OSA3NS4xNjcyIDEzNy4xNiA3NS4wMzEyIDEzNy4yOTZDNzQuODk1MiAxMzcuNDMyIDc0LjcxMzggMTM3LjUgNzQuNDg3MiAxMzcuNUg3My45MDkyWiIvPjxwYXRoIGQ9Ik0xMDkuMDU5IDEzOS43MUMxMDguNzE5IDEzOS43MSAxMDguMzU2IDEzOS40NDkgMTA3Ljk3MSAxMzguOTI4TDEwNi40NzUgMTM2Ljg1NEMxMDUuMTE1IDEzNy41MTEgMTAzLjUyOCAxMzcuODQgMTAxLjcxNSAxMzcuODRDOTUuODg5NyAxMzcuODQgOTIuODk3NyAxMzQuNzEyIDkyLjczOTEgMTI4LjQ1NkM5Mi43MTY0IDEyNy43NzYgOTIuNzA1MSAxMjYuODI0IDkyLjcwNTEgMTI1LjZDOTIuNzA1MSAxMjQuMzc2IDkyLjcxNjQgMTIzLjQyNCA5Mi43MzkxIDEyMi43NDRDOTIuODI5NyAxMTkuNjYxIDkzLjY2ODQgMTE3LjMyNyA5NS4yNTUxIDExNS43NEM5Ni44NDE3IDExNC4xNTMgOTguOTk1MSAxMTMuMzYgMTAxLjcxNSAxMTMuMzZDMTA0LjQzNSAxMTMuMzYgMTA2LjU4OCAxMTQuMTUzIDEwOC4xNzUgMTE1Ljc0QzEwOS43NjIgMTE3LjMyNyAxMTAuNiAxMTkuNjYxIDExMC42OTEgMTIyLjc0NEMxMTAuNzM2IDEyNC4xMDQgMTEwLjc1OSAxMjUuMDU2IDExMC43NTkgMTI1LjZDMTEwLjc1OSAxMjYuMTQ0IDExMC43MzYgMTI3LjA5NiAxMTAuNjkxIDEyOC40NTZDMTEwLjU3OCAxMzEuNjk3IDEwOS43NSAxMzQuMDc3IDEwOC4yMDkgMTM1LjU5NkwxMTAuMzg1IDEzOC42NTZDMTEwLjQ1MyAxMzguNzkyIDExMC40ODcgMTM4LjkxNyAxMTAuNDg3IDEzOS4wM0MxMTAuNDg3IDEzOS4yMTEgMTEwLjQxOSAxMzkuMzcgMTEwLjI4MyAxMzkuNTA2QzExMC4xNDcgMTM5LjY0MiAxMDkuOTg4IDEzOS43MSAxMDkuODA3IDEzOS43MUgxMDkuMDU5Wk0xMDEuNzE1IDEzNS44QzEwMy43NTUgMTM1LjggMTA1LjM3NiAxMzUuMTg4IDEwNi41NzcgMTMzLjk2NEMxMDcuODAxIDEzMi43MTcgMTA4LjQ1OCAxMzAuODI1IDEwOC41NDkgMTI4LjI4NkMxMDguNTk0IDEyNi45MjYgMTA4LjYxNyAxMjYuMDMxIDEwOC42MTcgMTI1LjZDMTA4LjYxNyAxMjUuMTY5IDEwOC41OTQgMTI0LjI3NCAxMDguNTQ5IDEyMi45MTRDMTA4LjQ1OCAxMjAuMzc1IDEwNy44MDEgMTE4LjQ5NCAxMDYuNTc3IDExNy4yN0MxMDUuMzUzIDExNi4wMjMgMTAzLjczMiAxMTUuNCAxMDEuNzE1IDExNS40Qzk5LjY5NzcgMTE1LjQgOTguMDc3MSAxMTYuMDIzIDk2Ljg1MzEgMTE3LjI3Qzk1LjYyOTEgMTE4LjQ5NCA5NC45NzE3IDEyMC4zNzUgOTQuODgxMSAxMjIuOTE0Qzk0Ljg1ODQgMTIzLjU5NCA5NC44NDcxIDEyNC40ODkgOTQuODQ3MSAxMjUuNkM5NC44NDcxIDEyNi43MTEgOTQuODU4NCAxMjcuNjA2IDk0Ljg4MTEgMTI4LjI4NkM5NC45NzE3IDEzMC44MjUgOTUuNjE3NyAxMzIuNzE3IDk2LjgxOTEgMTMzLjk2NEM5OC4wNDMxIDEzNS4xODggOTkuNjc1MSAxMzUuOCAxMDEuNzE1IDEzNS44WiIvPjxwYXRoIGQ9Ik0xMTYuOTE3IDEzNy41QzExNi42OSAxMzcuNSAxMTYuNTA5IDEzNy40MzIgMTE2LjM3MyAxMzcuMjk2QzExNi4yMzcgMTM3LjE2IDExNi4xNjkgMTM2Ljk3OSAxMTYuMTY5IDEzNi43NTJWMTE0LjQ0OEMxMTYuMTY5IDExNC4yMjEgMTE2LjIzNyAxMTQuMDQgMTE2LjM3MyAxMTMuOTA0QzExNi41MDkgMTEzLjc2OCAxMTYuNjkgMTEzLjcgMTE2LjkxNyAxMTMuN0gxMTcuNTYzQzExNy43ODkgMTEzLjcgMTE3Ljk3MSAxMTMuNzY4IDExOC4xMDcgMTEzLjkwNEMxMTguMjQzIDExNC4wNCAxMTguMzExIDExNC4yMjEgMTE4LjMxMSAxMTQuNDQ4VjEzNS40NkgxMzAuMDQxQzEzMC4yOSAxMzUuNDYgMTMwLjQ4MyAxMzUuNTI4IDEzMC42MTkgMTM1LjY2NEMxMzAuNzU1IDEzNS44IDEzMC44MjMgMTM1Ljk5MyAxMzAuODIzIDEzNi4yNDJWMTM2Ljc1MkMxMzAuODIzIDEzNi45NzkgMTMwLjc0MyAxMzcuMTYgMTMwLjU4NSAxMzcuMjk2QzEzMC40NDkgMTM3LjQzMiAxMzAuMjY3IDEzNy41IDEzMC4wNDEgMTM3LjVIMTE2LjkxN1oiLz48L3N2Zz4=;" parent="1" vertex="1">
          <mxGeometry x="396" y="215.53" width="90" height="98.93" as="geometry" />
        </mxCell>
        <mxCell id="LTjXMn_Se3MsG3HputFX-4" value="" style="rounded=1;whiteSpace=wrap;html=1;" parent="1" vertex="1">
          <mxGeometry x="216" y="220" width="160" height="39.97" as="geometry" />
        </mxCell>
        <mxCell id="LTjXMn_Se3MsG3HputFX-5" value="&lt;font id=&quot;generated-id-1695256051513-y0d345dh5&quot; style=&quot;font-size: 14px;&quot;&gt;Query / Mutation&lt;/font&gt;" style="text;strokeColor=none;align=center;fillColor=none;html=1;verticalAlign=middle;whiteSpace=wrap;rounded=0;" parent="1" vertex="1">
          <mxGeometry x="216" y="229.98000000000002" width="160" height="20" as="geometry" />
        </mxCell>
        <mxCell id="LTjXMn_Se3MsG3HputFX-7" value="" style="rounded=1;whiteSpace=wrap;html=1;" parent="1" vertex="1">
          <mxGeometry x="216" y="270" width="160" height="40" as="geometry" />
        </mxCell>
        <mxCell id="LTjXMn_Se3MsG3HputFX-8" value="&lt;font id=&quot;generated-id-1695256051513-y0d345dh5&quot; style=&quot;font-size: 14px;&quot;&gt;Subscription&lt;/font&gt;" style="text;strokeColor=none;align=center;fillColor=none;html=1;verticalAlign=middle;whiteSpace=wrap;rounded=0;" parent="1" vertex="1">
          <mxGeometry x="201" y="280" width="190" height="20" as="geometry" />
        </mxCell>
        <mxCell id="LTjXMn_Se3MsG3HputFX-15" value="" style="image;aspect=fixed;html=1;points=[];align=center;fontSize=12;image=img/lib/azure2/app_services/App_Services.svg;" parent="1" vertex="1">
          <mxGeometry x="196" y="100" width="30" height="30" as="geometry" />
        </mxCell>
        <mxCell id="LTjXMn_Se3MsG3HputFX-16" value="&lt;span id=&quot;generated-id-1695256723420-k3xlq1dxu&quot; style=&quot;&quot;&gt;&lt;span style=&quot;&quot; id=&quot;generated-id-1695256762705-z5atwp1ln&quot;&gt;&lt;font id=&quot;generated-id-1695256765906-nrp94r0nq&quot; style=&quot;font-size: 16px;&quot;&gt;Azure App Service&lt;/font&gt;&lt;/span&gt;&lt;br&gt;&lt;/span&gt;" style="text;strokeColor=none;align=center;fillColor=none;html=1;verticalAlign=middle;whiteSpace=wrap;rounded=0;" parent="1" vertex="1">
          <mxGeometry x="226" y="110" width="150" height="20" as="geometry" />
        </mxCell>
        <mxCell id="LTjXMn_Se3MsG3HputFX-24" value="" style="rounded=1;whiteSpace=wrap;html=1;strokeColor=default;fillColor=#FFFFFF;" parent="1" vertex="1">
          <mxGeometry x="-200" y="139.98" width="240" height="230.02" as="geometry" />
        </mxCell>
        <mxCell id="LTjXMn_Se3MsG3HputFX-25" value="&lt;span id=&quot;generated-id-1695256723420-k3xlq1dxu&quot; style=&quot;&quot;&gt;&lt;b style=&quot;&quot; id=&quot;generated-id-1695256762705-z5atwp1ln&quot;&gt;&lt;font id=&quot;generated-id-1695256765906-nrp94r0nq&quot; style=&quot;font-size: 24px;&quot;&gt;Client&lt;/font&gt;&lt;/b&gt;&lt;br&gt;&lt;/span&gt;" style="text;strokeColor=none;align=center;fillColor=none;html=1;verticalAlign=middle;whiteSpace=wrap;rounded=0;" parent="1" vertex="1">
          <mxGeometry x="-200" y="149.98000000000002" width="120" height="40" as="geometry" />
        </mxCell>
        <mxCell id="LTjXMn_Se3MsG3HputFX-26" value="" style="shape=image;verticalLabelPosition=bottom;labelBackgroundColor=default;verticalAlign=top;aspect=fixed;imageAspect=0;image=data:image/svg+xml,PHN2ZyB4bWxuczp4bGluaz0iaHR0cDovL3d3dy53My5vcmcvMTk5OS94bGluayIgeG1sbnM9Imh0dHA6Ly93d3cudzMub3JnLzIwMDAvc3ZnIiB4bWw6c3BhY2U9InByZXNlcnZlIiB2aWV3Qm94PSIwIDAgNDEzIDY2Ny4wOCIgaGVpZ2h0PSI2NjcuMDhweCIgd2lkdGg9IjQxM3B4IiB5PSIwcHgiIHg9IjBweCIgaWQ9ImNvbnRlbnQiIHZlcnNpb249IjEuMSI+JiN4YTs8Zz4mI3hhOwk8ZyBvcGFjaXR5PSIwLjU0Ij4mI3hhOwkJPHBhdGggZD0iTTkzLjAzLDU2OS4zaDI3LjY0YzkuMzgsMCwxNy41NywxLjk0LDI0LjU3LDUuODJjNi45OSwzLjg4LDEyLjM3LDkuMjgsMTYuMTIsMTYuMTlzNS42MywxNC44NCw1LjYzLDIzLjgmIzEwOyYjOTsmIzk7JiM5O3MtMS44OCwxNi44OS01LjYzLDIzLjhzLTkuMTMsMTIuMy0xNi4xMiwxNi4xOGMtNywzLjg4LTE1LjE4LDUuODItMjQuNTcsNS44Mkg5My4wMkw5My4wMyw1NjkuM0w5My4wMyw1NjkuM3ogTTEyMC42Nyw2NTAuNTUmIzEwOyYjOTsmIzk7JiM5O2MxMC44MywwLDE5LjQzLTMuMTEsMjUuNzgtOS4zNGM2LjM1LTYuMjMsOS41My0xNC45Myw5LjUzLTI2LjFzLTMuMTgtMTkuODctOS41My0yNi4xYy02LjM2LTYuMjMtMTQuOTUtOS4zNC0yNS43OC05LjM0aC0xNi44OSYjMTA7JiM5OyYjOTsmIzk7djcwLjg4SDEyMC42N3oiLz4mI3hhOwkJPHBhdGggZD0iTTE4My43NCw2NjAuMTRjLTMuNzUtMS44OC02LjY1LTQuNDYtOC43LTcuNzRjLTIuMDUtMy4yOC0zLjA3LTcuMDItMy4wNy0xMS4yYzAtNi45MSwyLjYtMTIuMyw3LjgtMTYuMTgmIzEwOyYjOTsmIzk7JiM5O3MxMS43Ny01LjgyLDE5LjctNS44MmMzLjkyLDAsNy41NywwLjQzLDEwLjk0LDEuMjhjMy4zNywwLjg1LDUuOTUsMS44NCw3Ljc0LDIuOTR2LTMuOTdjMC00Ljg2LTEuNzEtOC43Ni01LjEyLTExLjcxJiMxMDsmIzk7JiM5OyYjOTtjLTMuNDEtMi45NC03LjcyLTQuNDEtMTIuOTItNC40MWMtMy42NywwLTcuMDQsMC43OS0xMC4xMSwyLjM3cy01LjUsMy43Ny03LjI5LDYuNTlsLTguMTktNi4xNGMyLjU2LTMuOTIsNi4wOC02Ljk5LDEwLjU2LTkuMjEmIzEwOyYjOTsmIzk7JiM5O2M0LjQ4LTIuMjIsOS40NS0zLjMzLDE0LjkxLTMuMzNjOC44NywwLDE1Ljg0LDIuMzIsMjAuOTIsNi45N2M1LjA3LDQuNjUsNy42MSwxMC45OCw3LjYxLDE5djQxLjMzaC0xMC4zNnYtOS4zNGgtMC41MSYjMTA7JiM5OyYjOTsmIzk7Yy0xLjg4LDMuMTYtNC42OSw1Ljg0LTguNDQsOC4wNnMtNy45OCwzLjMzLTEyLjY3LDMuMzNDMTkxLjc2LDY2Mi45NiwxODcuNDksNjYyLjAyLDE4My43NCw2NjAuMTR6IE0yMDcuNzksNjUwLjU1JiMxMDsmIzk7JiM5OyYjOTtjMy4xNS0xLjg4LDUuNjctNC4zOSw3LjU1LTcuNTVjMS44OC0zLjE1LDIuODEtNi42MSwyLjgxLTEwLjM2Yy0yLjA1LTEuMzYtNC41Ni0yLjQ3LTcuNTUtMy4zM2MtMi45OS0wLjg1LTYuMTQtMS4yOC05LjQ3LTEuMjgmIzEwOyYjOTsmIzk7JiM5O2MtNS45NywwLTEwLjQ3LDEuMjQtMTMuNSwzLjcxYy0zLjAzLDIuNDctNC41NCw1LjY3LTQuNTQsOS42YzAsMy41OCwxLjM2LDYuNDgsNC4wOSw4LjdjMi43MywyLjIyLDYuMTgsMy4zMywxMC4zNiwzLjMzJiMxMDsmIzk7JiM5OyYjOTtDMjAxLjIyLDY1My4zNiwyMDQuNjQsNjUyLjQyLDIwNy43OSw2NTAuNTV6Ii8+JiN4YTsJCTxwYXRoIGQ9Ik0yNDAsNTk2LjY4aDEwLjM2djEwLjM2aDAuNTFjMS41NC0zLjg0LDQuMTQtNi44Miw3LjgtOC45NmMzLjY3LTIuMTMsNy42OC0zLjIsMTIuMDMtMy4yYzEuODgsMCwzLjQ1LDAuMTMsNC43MywwLjM4JiMxMDsmIzk7JiM5OyYjOTt2MTEuMTNjLTEuNDUtMC4zNC0zLjQxLTAuNTEtNS44OS0wLjUxYy01LjU1LDAtMTAuMDQsMS44NC0xMy41LDUuNWMtMy40NSwzLjY3LTUuMTgsOC40NC01LjE4LDE0LjMzdjM2LjIxaC0xMC44OHYtNjUuMjRIMjQweiYjMTA7JiM5OyYjOTsmIzk7IE0zMDcuNTMsNjYxLjY1Yy0yLjI2LTAuODctNC4xNi0yLjA0LTUuNjktMy41MmMtMS43MS0xLjY1LTIuOTktMy41Ni0zLjg0LTUuNzNjLTAuODUtMi4xNy0xLjI4LTQuODItMS4yOC03Ljk1VjYwNS41aC0xMS4zOSYjMTA7JiM5OyYjOTsmIzk7di05Ljg1aDExLjM5di0xOC40MmgxMC44OHYxOC40MmgxNS44N3Y5Ljg1aC0xNS44N3YzNi4zNWMwLDMuNjYsMC42OCw2LjM3LDIuMDUsOC4xMWMxLjYyLDEuOTIsMy45NywyLjg4LDcuMDQsMi44OCYjMTA7JiM5OyYjOTsmIzk7YzIuNDcsMCw0Ljg2LTAuNzIsNy4xNi0yLjE3djEwLjYyYy0xLjI4LDAuNi0yLjU4LDEuMDItMy45LDEuMjhzLTMuMDEsMC4zOC01LjA1LDAuMzhDMzEyLjI0LDY2Mi45NiwzMDkuNzksNjYyLjUyLDMwNy41Myw2NjEuNjUmIzEwOyYjOTsmIzk7JiM5O3oiLz4mI3hhOwk8L2c+JiN4YTsJPGc+JiN4YTsJCTxwYXRoIGQ9Ik04NS43NSwzMjguODRsLTY5Ljc3LTY5Ljc3Yy04LjI3LTguNS0xMy40Mi0yMC40OS0xMy40Mi0zMi4yYzAtNS40MiwzLjA3LTEzLjksNS4zNy0xOC43OGw2NC40LTEzNC4xNyYjMTA7JiM5OyYjOTsmIzk7TDg1Ljc1LDMyOC44NHoiIGZpbGw9IiMwMTU3OUIiLz4mI3hhOwkJPHBhdGggZD0iTTMyNC41OCw4Ny4zM2wtNjkuNzctNjkuNzdjLTYuMS02LjEyLTE4Ljc4LTEzLjQyLTI5LjUyLTEzLjQyYy05LjIyLDAtMTguMjgsMS44NC0yNC4xNSw1LjM3TDcyLjMyLDczLjkxJiMxMDsmIzk7JiM5OyYjOTtMMzI0LjU4LDg3LjMzeiIgZmlsbD0iIzQwQzRGRiIvPiYjeGE7CQk8cG9seWdvbiBwb2ludHM9IjE2OC45NCw0MTIuMDIgMzM3Ljk5LDQxMi4wMiAzMzcuOTksMzM5LjU3IDIxMS44OCwyOTkuMzIgOTYuNDksMzM5LjU3IiBmaWxsPSIjNDBDNEZGIi8+JiN4YTsJCTxwYXRoIGQ9Ik03Mi4zNCwyOTEuMjdjMCwyMS41MiwyLjcsMjYuODEsMTMuNDIsMzcuNTdsMTAuNzMsMTAuNzNoMjQxLjUxTDIxOS45MywyMDUuNEw3Mi4zNCw3My45MVYyOTEuMjd6IiBmaWxsPSIjMjlCNkY2Ii8+JiN4YTsJCTxwYXRoIGQ9Ik0yODcuMDEsNzMuOTFINzIuMzRsMjY1LjY2LDI2NS42Nmg3Mi40NVYxNzMuMmwtODUuODctODUuODdDMzEyLjUyLDc1LjIyLDMwMS44LDczLjkxLDI4Ny4wMSw3My45MXoiIGZpbGw9IiMwMTU3OUIiLz4mI3hhOwkJPHBhdGggZD0iTTg4LjQ0LDMzMS41MmMtMTAuNzMtMTAuNzgtMTMuNDItMjEuMzktMTMuNDItNDAuMjVWNzYuNTkmIzEwOyYjOTsmIzk7JiM5O2wtMi42OC0yLjY4djIxNy4zNkM3Mi4zNCwzMTAuMTMsNzIuMzQsMzE1LjM2LDg4LjQ0LDMzMS41Mmw4LjA1LDguMDVsMCwwTDg4LjQ0LDMzMS41MnoiIGZpbGw9IiNGRkZGRkYiIG9wYWNpdHk9IjAuMiIvPiYjeGE7CQk8cG9seWdvbiBwb2ludHM9IjQwNy43NywxNzAuNTEgNDA3Ljc3LDMzNi44OSAzMzUuMywzMzYuODkgJiMxMDsmIzk7JiM5OyYjOTszMzcuOTksMzM5LjU3IDQxMC40NSwzMzkuNTcgNDEwLjQ1LDE3My4yIiBmaWxsPSIjMjYzMjM4IiBvcGFjaXR5PSIwLjIiLz4mI3hhOwkJPHBhdGggZD0iTTMyNC41OCw4Ny4zM2MtMTMuMy0xMy4zLTI0LjIxLTEzLjQyLTQwLjI1LTEzLjQySDcyLjM0JiMxMDsmIzk7JiM5OyYjOTtsMi42OCwyLjY4aDIwOS4zMUMyOTIuMzQsNzYuNTksMzEyLjU0LDc1LjI1LDMyNC41OCw4Ny4zM0wzMjQuNTgsODcuMzN6IiBmaWxsPSIjRkZGRkZGIiBvcGFjaXR5PSIwLjIiLz4mI3hhOwkJJiN4YTsJCQk8cmFkaWFsR3JhZGllbnQgZ3JhZGllbnRVbml0cz0idXNlclNwYWNlT25Vc2UiIGdyYWRpZW50VHJhbnNmb3JtPSJtYXRyaXgoMSAwIDAgLTEgMCA2NjguOTczNykiIHI9IjIwMy45MzUiIGN5PSI0NjAuOTExOCIgY3g9IjIwNi40OSIgaWQ9IlNWR0lEXzFfIj4mI3hhOwkJCTxzdG9wIHN0eWxlPSJzdG9wLWNvbG9yOiNGRkZGRkY7c3RvcC1vcGFjaXR5OjAuMSIgb2Zmc2V0PSIwIi8+JiN4YTsJCQk8c3RvcCBzdHlsZT0ic3RvcC1jb2xvcjojRkZGRkZGO3N0b3Atb3BhY2l0eTowIiBvZmZzZXQ9IjEiLz4mI3hhOwkJPC9yYWRpYWxHcmFkaWVudD4mI3hhOwkJPHBhdGggZD0iTTQwNy43NywxNzAuNTFsLTgzLjE5LTgzLjE5bC02OS43Ny02OS43NyYjMTA7JiM5OyYjOTsmIzk7Yy02LjEtNi4xMi0xOC43OC0xMy40Mi0yOS41Mi0xMy40MmMtOS4yMiwwLTE4LjI4LDEuODQtMjQuMTUsNS4zN0w3Mi4zMiw3My45TDcuOTIsMjA4LjA3Yy0yLjMsNC44OC01LjM3LDEzLjM2LTUuMzcsMTguNzgmIzEwOyYjOTsmIzk7JiM5O2MwLDExLjcyLDUuMTUsMjMuNywxMy40MiwzMi4ybDY0LjMsNjMuODNjMS41NCwxLjg4LDMuMzQsMy44LDUuNDcsNS45NGwyLjY4LDIuNjhsOC4wNSw4LjA1bDY5Ljc3LDY5Ljc3bDIuNjgsMi42OGgxNjYuMzdoMi42OCYjMTA7JiM5OyYjOTsmIzk7di03Mi40NWg3Mi40NXYtMC4xOVYxNzMuMkw0MDcuNzcsMTcwLjUxeiIgZmlsbD0idXJsKCNTVkdJRF8xXykiIG9wYWNpdHk9IjAuMiIvPiYjeGE7CTwvZz4mI3hhOzwvZz4mI3hhOzwvc3ZnPg==;" parent="1" vertex="1">
          <mxGeometry x="-185" y="204.65" width="90" height="145.35" as="geometry" />
        </mxCell>
        <mxCell id="LTjXMn_Se3MsG3HputFX-27" value="" style="shape=image;verticalLabelPosition=bottom;labelBackgroundColor=default;verticalAlign=top;aspect=fixed;imageAspect=0;image=data:image/svg+xml,PHN2ZyB4bWxuczp4bGluaz0iaHR0cDovL3d3dy53My5vcmcvMTk5OS94bGluayIgeG1sbnM9Imh0dHA6Ly93d3cudzMub3JnLzIwMDAvc3ZnIiB4bWw6c3BhY2U9InByZXNlcnZlIiB2aWV3Qm94PSIwIDAgNDA2IDczNy44NSIgaGVpZ2h0PSI3MzcuODVweCIgd2lkdGg9IjQwNnB4IiB5PSIwcHgiIHg9IjBweCIgaWQ9ImNvbnRlbnQiIHZlcnNpb249IjEuMSI+JiN4YTs8Zz4mI3hhOwk8ZyBvcGFjaXR5PSIwLjU0Ij4mI3hhOwkJPHBhdGggZD0iTTM1LjY4LDY0MS4zN2g1Mi42djEwLjNoLTQxLjl2MzEuMWgzNy44djEwLjJoLTM3Ljh2MzkuNGgtMTAuN0MzNS42OCw3MzIuMzcsMzUuNjgsNjQxLjM3LDM1LjY4LDY0MS4zN3oiLz4mI3hhOwkJPHBhdGggZD0iTTEwMC45OCw2NDEuMzdoMTAuOHY5MC45aC0xMC44VjY0MS4zN3oiLz4mI3hhOwkJPHBhdGggZD0iTTEzMy4zOCw3MjcuNDdjLTQuMS00LjYtNi4yLTExLTYuMi0xOS4ydi00MC44aDEwLjh2MzkuMWMwLDYuMiwxLjQsMTAuNyw0LjIsMTMuNmMyLjgsMi45LDYuNiw0LjMsMTEuMyw0LjMmIzEwOyYjOTsmIzk7JiM5O2MzLjYsMCw2LjktMSw5LjctMi45czUtNC41LDYuNi03LjZzMi4zLTYuNCwyLjMtOS45di0zNi42aDEwLjh2NjQuOGgtMTAuM3YtOS40aC0wLjVjLTEuOCwzLjItNC42LDUuOS04LjUsOC4xJiMxMDsmIzk7JiM5OyYjOTtjLTMuOSwyLjItOCwzLjMtMTIuNCwzLjNDMTQzLjQ4LDczNC4yNywxMzcuNDgsNzMyLjA3LDEzMy4zOCw3MjcuNDd6Ii8+JiN4YTsJCTxwYXRoIGQ9Ik0yMTcuMTgsNzMzLjA3Yy0yLjItMC45LTQuMS0yLTUuNy0zLjVjLTEuNy0xLjYtMy0zLjUtMy44LTUuN3MtMS4zLTQuOC0xLjMtNy45di0zOC43aC0xMS4zdi05LjhoMTEuM3YtMTguM2gxMC44djE4LjMmIzEwOyYjOTsmIzk7JiM5O2gxNS43djkuOGgtMTUuN3YzNi4xYzAsMy42LDAuNyw2LjMsMiw4YzEuNiwxLjksMy45LDIuOSw3LDIuOWMyLjUsMCw0LjgtMC43LDcuMS0yLjJ2MTAuNWMtMS4zLDAuNi0yLjYsMS0zLjksMS4zJiMxMDsmIzk7JiM5OyYjOTtjLTEuMywwLjMtMywwLjQtNSwwLjRDMjIxLjg4LDczNC4yNywyMTkuNDgsNzMzLjg3LDIxNy4xOCw3MzMuMDd6Ii8+JiN4YTsJCTxwYXRoIGQ9Ik0yNjMuMDgsNzMzLjA3Yy0yLjItMC45LTQuMS0yLTUuNy0zLjVjLTEuNy0xLjYtMy0zLjUtMy44LTUuN3MtMS4zLTQuOC0xLjMtNy45di0zOC43aC0xMS4zdi05LjhoMTEuM3YtMTguM2gxMC44djE4LjMmIzEwOyYjOTsmIzk7JiM5O2gxNS43djkuOGgtMTUuN3YzNi4xYzAsMy42LDAuNyw2LjMsMiw4YzEuNiwxLjksMy45LDIuOSw3LDIuOWMyLjUsMCw0LjgtMC43LDcuMS0yLjJ2MTAuNWMtMS4zLDAuNi0yLjYsMS0zLjksMS4zcy0zLDAuNC01LDAuNCYjMTA7JiM5OyYjOTsmIzk7QzI2Ny43OCw3MzQuMjcsMjY1LjI4LDczMy44NywyNjMuMDgsNzMzLjA3eiIvPiYjeGE7CQk8cGF0aCBkPSJNMzAxLjM4LDcyOS44N2MtNC45LTMtOC43LTctMTEuNS0xMi4zYy0yLjgtNS4yLTQuMS0xMS4xLTQuMS0xNy42YzAtNi4zLDEuMy0xMiwzLjktMTcuM2MyLjYtNS4yLDYuMi05LjQsMTEtMTIuNiYjMTA7JiM5OyYjOTsmIzk7YzQuNy0zLjEsMTAuMi00LjcsMTYuNS00LjdzMTEuOSwxLjQsMTYuNSw0LjNjNC43LDIuOCw4LjIsNi44LDEwLjcsMTEuN2MyLjUsNSwzLjcsMTAuNywzLjcsMTcuMWMwLDEuMy0wLjEsMi40LTAuNCwzLjNoLTUxLjImIzEwOyYjOTsmIzk7JiM5O2MwLjMsNC45LDEuNCw5LjEsMy42LDEyLjRjMi4xLDMuNCw0LjgsNS45LDguMSw3LjZjMy4zLDEuNyw2LjcsMi41LDEwLjIsMi41YzguMywwLDE0LjctMy45LDE5LjItMTEuN2w5LjEsNC40JiMxMDsmIzk7JiM5OyYjOTtjLTIuOCw1LjItNi42LDkuNC0xMS40LDEyLjRzLTEwLjYsNC42LTE3LjMsNC42QzMxMS43OCw3MzQuMjcsMzA2LjI4LDczMi44NywzMDEuMzgsNzI5Ljg3eiBNMzM2LjY4LDY5My4wNyYjMTA7JiM5OyYjOTsmIzk7Yy0wLjItMi43LTAuOS01LjQtMi4zLTguMWMtMS40LTIuNy0zLjUtNS02LjQtNi45cy02LjYtMi44LTExLTIuOGMtNS4xLDAtOS40LDEuNi0xMi45LDQuOWMtMy41LDMuMy01LjgsNy42LTYuOSwxMi45JiMxMDsmIzk7JiM5OyYjOTtMMzM2LjY4LDY5My4wN0wzMzYuNjgsNjkzLjA3eiIvPiYjeGE7CQk8cGF0aCBkPSJNMzYwLjY4LDY2Ny40N2gxMC4zdjEwLjRoMC41YzEuMy0zLjYsMy43LTYuNSw3LjQtOC45YzMuNi0yLjQsNy40LTMuNiwxMS40LTMuNmMzLDAsNS41LDAuNSw3LjYsMS40djExLjYmIzEwOyYjOTsmIzk7JiM5O2MtMi43LTEuNC01LjgtMi05LjEtMmMtMy4xLDAtNiwwLjktOC42LDIuN3MtNC43LDQuMi02LjMsNy4ycy0yLjMsNi4zLTIuMyw5Ljd2MzYuM2gtMTAuOHYtNjQuOEwzNjAuNjgsNjY3LjQ3TDM2MC42OCw2NjcuNDd6Ii8+JiN4YTsJPC9nPiYjeGE7CTxnPiYjeGE7CTwvZz4mI3hhOzwvZz4mI3hhOzxnPiYjeGE7CTxnPiYjeGE7CQk8Zz4mI3hhOwkJCTxkZWZzPiYjeGE7CQkJCTxwYXRoIGQ9Ik00MDUuNjQsMjMyLjI1TDI3MS4xLDM2Ni44bDEzNC41NSwxMzQuNThsMCwwSDI1MS44N2wtNTcuNjgtNTcuNjhsMCwwbC03Ni45LTc2LjlsMTM0LjU4LTEzNC41NUg0MDUuNjQmIzEwOyYjOTsmIzk7JiM5OyYjOTsmIzk7TDQwNS42NCwyMzIuMjVMNDA1LjY0LDIzMi4yNXogTTI1MS44NywxLjU4TDEuOTcsMjUxLjQ4bDc2LjksNzYuOUw0MDUuNjQsMS41OEgyNTEuODd6IiBpZD0iU1ZHSURfMV8iLz4mI3hhOwkJCTwvZGVmcz4mI3hhOwkJCTxjbGlwUGF0aCBpZD0iU1ZHSURfMl8iPiYjeGE7CQkJCTx1c2Ugb3ZlcmZsb3c9InZpc2libGUiIHhsaW5rOmhyZWY9IiNTVkdJRF8xXyIvPiYjeGE7CQkJPC9jbGlwUGF0aD4mI3hhOwkJCTxnIGNsaXAtcGF0aD0idXJsKCNTVkdJRF8yXykiPiYjeGE7CQkJCSYjeGE7CQkJCQk8aW1hZ2UgdHJhbnNmb3JtPSJtYXRyaXgoMi44Mzk4IDAgMCAyLjgzOTggOTIuODQyNyAyMDguODgzNCkiIHhsaW5rOmhyZWY9ImRhdGE6aW1hZ2UvcG5nO2Jhc2U2NCxpVkJPUncwS0dnb0FBQUFOU1VoRVVnQUFBSDRBQUFCaUNBWUFBQUNXTjJkb0FBQUFDWEJJV1hNQUFBUFlBQUFEMkFGdVIyTTFBQUFBJiMxMDtHWFJGV0hSVGIyWjBkMkZ5WlFCQlpHOWlaU0JKYldGblpWSmxZV1I1Y2NsbFBBQUFGSzFKUkVGVWVOcnNuVnR2SkVsV3g4K0p5S3lMJiMxMDs3KzRidTczc01NdEt2SXpnWlJBU1R5d1M4RFlTRW9JWFBnQVMwbjRHOWdQd0lYaGNhUjlBZ2llRUJHODhqYlJvTmJ3Z2RtZTNoOW51JiMxMDtzYnZ0ZHRsVldSbVh3LzlFWkpYTGJ0dnRTN202cWx3NUhaTlpXVm5selBqRnVVVkVuU0JhYlE5eTQ5WHpML1FtSy9BM2V0WWZvZndkJiMxMDt5dWNvLzRqenZRVjZqRTJVUDVHODEvdis0MXMxQm40WXNIK0k4aEhLaSthMVF3bk44UkRsT1VwN0FlcGlDS2hmNjcwMnIydUZqM1BmJiMxMDthUnJFUnpqK20ydkJYMkx3UCtSVDJBcDZBL3QxcG05dkVPM1VUUDZZdnVXUHVTT2VSRXFVeWFyNERaVE9uRHhIaGZJcXcyS2hvUkY2JiMxMDtXV3dJY1VGVWxrU0RyNFYrL2xHakFYNG11Vkg4QXZ0L3ZySUI4SEpLK1dmWS9TWm4ySkhwaWZETzVtUGU5SVk5TTN1cE9ZYklSY1MxJiMxMDs2d09TSXA2cmh4MlVjazRlUnh2dElXNFV4RzJMeUZ1MDJVS1lUOGdXM1ZqWWdZVG81V1hvQ3IzWUErZ095aEhLQzVSL3ZSUStMNmVVJiMxMDtXK3hmRzNwYzhmYjZHbmNqRytrVVJ2QmY0WWl0RnhOdE1MRXdrQ0hId2hIVlUvSnBkZGo1YXNjc29wTFBiSW1qRlRQd2dpZUlsVzJMJiMxMDtaWW1ta2toNlFDSHVEZkV3ZXdkNG9NR1Y4SmNJL0djOGx2Sm4yN3pkOWFidEtodkx3Z0NwTlFhOERSbnJyYlZzVERRQWp6cVRpT2FnJiMxMDs5VklVWEREa2FvNmVLT0sydk1QL1dJOUV3UXVlSXhyQ1hUUEhPcUw5a2d2R3Q0TXpkYkIxRmZ0dEc0Nk9pL2ZDTDVZSCtqTk9rdjQ0JiMxMDttazJGWGtBVEdzSHpCZXVwVlVCRUNxWllpS1VpNEZ4a3NUWWFpSGFBSGxEckdXSG5VYXR6SXd2YUhBVTNxUzBBYlpPVnRjU28wQ01IJiMxMDtzaUVZRkE3aWd3VjNhMElkT3I0N2hHblk4SFJFdTBSN1c0Qi90SlFTai92L1M1UmRsSnFmUHYzWWRMdHRPK0JqTUE4RmlTblJGbHJRJiMxMDs2QzNVV291TWFhSHE0TWt4RExqQVVKckNFRU9BQWdRZC85VERzeCs0VmhSUkdEMmR3UTFCMnJGWC9ERktRQU1JdUUzUDFqZ1lnQnJ2JiMxMDsxRGhiVzVHNkxwMExRNjQ3RXYxd0dNTCsvamY0cGhZK2U0RHlFNWxzQU1WU1FQKzQ1aWZ0WjdaMTNMSW5NUlNtMVNtdG9WWWsxNGJVJiMxMDt0RkYxSFNqeERvUUdMaSszd2JnbGNPVmhGcUVKb0MwVnZ2ck0zTGoyOHVHZkxEbHpnQzRKT3BwcmhJUWI4aXdBYm1PTmswT1lyQ0V1JiMxMDt0S3I0YTdRV2NXak5saUgrYUIxdEtLL3U3ekc5V01lbC8vYk9ueWlXQlhyN2VNZkM3Qlh0c2dKd3htUGJOaXhpRnhLeWhxdTdnSWs5JiMxMDs0N1Zvbk5hR3BDZjRxRm1WY2ZnQVFjbnpoNGNPcTJOaUV1K3NnZ0trbkhGelVPL2dHNDBaaWtaMVViMjkyTWZGYUE5b0pyYUFHU0JWJiMxMDtYWTVyWjFyUWdDMzNOYitpalF2L3pJS0NQd3U5cERVcm5aTVN3bDRpNW1uRGErdkM3MUhRMnR6WDhYcUQ5VmhrRFI5Y2cyUWo1bUhWJiMxMDtnUzBtZFpVaE5aTGtyRkh5TW1ObHo2Zk5UZFNEWjlWQlVmL0RiUVhJcnNldGFXL05FRmRXdU10QnVtZWpia0NJVUFXSVZXSXBQc1YrJiMxMDt5VkZoVnA5SDhaNmNOKzJ5b09BL2ZRYzZlNGVITnEzSWtIUklOM3loZGJUOGRkVG5KcXB1QzlXd0NkZ2JlT1FOUFBVYWJIODNRUmVvJiMxMDtmbzJQVXZ5bTBvNjRqN1EyWjJmbGVRdzlKbW1QbVU1c1RxaTFCM1NJYitxMjQ0RUNUcG9KT2dHZjliZ0ltcDAxVmpWY3dPR3ZVUjN3JiMxMDtZRVdHMEJVSHVHN0FGeG12WXZHZy94R2d2N2tBdW0yRFdwZFV3b1UzRTNUaGJWVE9ObzYzY0Y0TDlCNnZveDVnODFQWG5FcTlCdjBqJiMxMDtseTU1OTZlU2YrK2VuTWlJQ2VjR1lISVVwOUlPRlErYkRxOVZVcit5UXRkV3FkZEZuODVGS3RUelE0czFrcm9lN2ZqR2pXbVR0YXJ3JiMxMDtUbEJlVHJxT2l3YStnZjdvbFhuUy9zNEYwT01hYW1VZHpzOG1SR0VMNm00YmRibUQ2dGpCOHdJK04rQkZ3Y1Btdzh0blNEeHNQQ2RQJiMxMDtDb296Vnh0L0VCVlBDU21naXlycUxPa0pPa1JYZTI0eVdaWCtLc0ZHN0htcXZVT0s4YlZQRXI2S2FQRENYRWxXOHd0dDQwK2hyejkvJiMxMDtZa3AzR1hSSU9rVUFKd1dOUUpaMzBNWjNjaCtzU2owcitEWHM0ZVJSQy91UzFWWW1RVXZVdVJFTHZsLzFma2IxanNJc1NaS2VuTGlzJiMxMDszbk1YWkZMOEhwYmJLbnU5UzBRbjZWb2NxMGVLQm1LOUY5SHVpZURWVWlGYzBmMGhQMWNYQjEvenhTS0NQd3Q5dDlxMVVTNkRMdHRaJiMxMDt3bWtYajc4YldYWlJVenQ0K3UzMFBtc3Q4QnJsa1l4V2VuNFJGUlZWbDZNdTIxbm9lUm4xMFVqK2c5cG5uS0JyWngzdXBjNHFQVFVBJiMxMDticnJ4ZEVCQlZieUhUVWZnSm1vQ2Fud0JITHJvb0xJOExEMGFTQWNpNytBQXZNSGJYNko4alBLSnh2R0xCUDVkNk42R2dxc0xvQnRBJiMxMDtwd1k2cEIyVjl5aExPdTN3Mkw0MzBwNmhsNmo0Z2hMMFdYbjBaMVc3dmdUWHhwSFRRRngwREVteUxVK3FJYXIwWjhjdXFYd2RxaHRBJiMxMDszZ2ZKNWhOWEVQcGhGQXRQTGpyNGU3NXdSNkhITGg1cEY4YXJ4NUtsL1NlTDFHVjdNWFJieFpibjhtcm93bzhrU2Izc29QSzJkTXlTJiMxMDtzN1IzemtoN2N1ckVuQlZ5dmlmNC9LNTZsd1E1Uy92SXd1Undic0tUUitoR0FLM0RjVnFpSEVQMGoySGs5WFVmenpvb0tkUlVTaDJIJiMxMDt3Y2R1RVZxSFR5THQ5Mk1ldTZkRnN2R1hRM2VBYnE2QWp1b0RkTmxOdHAzTk5pcHRFOVdyaGs3dGVvYWVKSjFTL0Q3eTVzOTJZUE85JiMxMDtLWGhPWkRsMXptVG9lc3k1bzViVm9VTzhMbWwyU0pXQ2NBQ0dhZS9obVhwUTUwZjRYQS9YOUJENG5VZ01mWXBGaGZCMUdMaDJ2bUFmJiMxMDtmQ3NjdHZwTlEzcTNxM2FPd2I4SE9rdjNLdWlOZmRkekNUb3BkTmJZZlVMU09UMjNhYVQ5bFBTOTk5cEo3aWZLZjJnRVBEYTk4em9PJiMxMDtOOVRBRzVmMEtVMnRFUlIraThhQ3dvZFFFRy9SQ043aVV6MTRkVDAyMG9lL000QmpNUFIxNll3NzhZZlJSWHExZ2UvOFlnUjlFU1QrJiMxMDsvZENoNHRjNVhnTTYwd1IwNlpBTzBvelZleHA5YlZTODhQMUhjTktvZXA1VSs0MWR6MkdiU2ppY2pYNkt3VVNPY0d0SHJETXdKTTNDJiMxMDtnT2pHUXhNWXgrWW81c2wyZmZGcTY5MndFOWg1ditXS1lpTzhmdkhmb3hHNWQyTDNPUVYvUGVnbUFLaTlIWFRXRWJrTTNKd0N2MWNuJiMxMDtYczdGY1JEYUpQVmpaeTZwOWpUTEFpQWxCZDRLWFNYOEFIZDRnSytBZTg0SDBIS0FqOFlnb1lmUTdrU0NnVmFRcXZSVTE2NTAxaDZHJiMxMDtGeTkrSFM4YmpUdS9tVVdERHVXOE5UM29OS1BJTGR2MEJucnVuQkZ4dURlMTVWbTFDeDNqK0MyT0Q3Rlh0WDZBYXhybzhVQ2lnUWFRJiMxMDtvMkQ0T0VPUFZVbStkcHN0WnplOC8zcFhvZGZ4T3REbkJQek5vT09PdHhjRXVweUJUbm5BNVF4MHVSZzY5bSt1QmIwTDZEV2dkd0Q5JiMxMDtDNFcrZXkzb00rNmVQTDk5akwvOUNWUHJ0N2g0V3ZIbTFtTzc1dGRzbEZqQ3pVR2NYa3lFYklDdXZYR0dkbENGdTFET3o3U0RaZ0w2JiMxMDtWZ045cllIZW5vQnU1d0I2bUlCZVQwQS9tWUMrai8xQkEvMUFqNU9Oai94V1BmblFxSGNFQXNNMDJhWlZ1QmlxOEUzY0MvUy9zWUg5JiMxMDtEOWVDL2dFbC9nN1FjNmkyYk5BUFp3bjlBNEcvSTNUbVIwc0kvWENXMEQ4QStDbEFseFgwdTBML0FPQ25BSjJXRXZxYldVS2ZNZmhQJiMxMDtwd05keHQ3NzBrQlg3MzJXMEdjSVBvZHNVNEZPeXdkZFE3WlpRcDhSK05NNGZTclFlUnluTHcxMGpkTm5DWDBHNE05Mnprd0Z1dWhVJiMxMDs2ZVdDM25UT3pBejZQWU8vYU9iTUZLQXpkZVlNZXB3QzlPTlpRcjlIOEJkM3cwNEZ1c2dLK255Q3Y3enZmU3JRbWN0bGc2NTk3N09FJiMxMDtmZy9ncng1d21RWjBuTGR6UE9CeWN0c0JsMWxDbnpMNDY4NmN1UnQwbGZabGc2NmpiTE9FUGtYdzE1dzVNd1hvV2RxWEM3b09yYzRTJiMxMDsrcFRBMzJBOGZTclF4M01qbDJzOGZZYlFwd0QreHBNb3BnQmRtSlp5RXNYc29OOFIvTTFuemt3SCtyM1BIYmtwOUtQcHpKeVpIZlRiJiMxMDtxa3UrNlBmcGwvNlc3ZXhzMkVXYU9STXZDZG42RGZUZUJQUzlpNFpXaGFVWGlVL1FBUHBHd3BDTFdFdFJPa2Y5c0QvOEp0Q1gxNXNZJiMxMDtPUThTZnhmb3Uwc0svV0RSb044VS9GMmhQMXBTNkFlTEJ2Mkc0RmZRTDRIK1p0R2czd0Q4WitPVVl1TkVReXZvQ3d0ZHQrSjYwSitOJiMxMDs4OGhwU2pITkxxV0pobExPR1VQWC95M2JFa0tuQllSK0hmQ29qKy9sakpGUGg2YmRKanVnbkZKTXMwdHBvaUhTbE5CaVVpYUtkMytxJiMxMDtMRXNQblNNdEhQVDNnVWQ5L0JubDNMQXRzOTJwYkNYOXdwU2JwZWFSeXluRkpDVWFTamxuK1BRWExwZEFYMTlLNkhoLzBhQy9CN3dtJiMxMDs5OWRrREgzZTdsanVXR01wVUtFWkl6VjVvQ1FWSDFOS01ZQlc2RHZZSjRsUGtxL0hmUDZueW5NM2MrYk8wSVg1ZU5HZ1grWGNOZW0vJiMxMDtJZTJQTGJlOXM4NFk2UHV5RkE0dFZGdEhFdlNVVWlsSk95b3daWmpLNmw0elVjZ1c0RzVjOGx1MnBZRWVoUmNPK251OCtoY3B5Yi9tJiMxMDtlNWVXbUFMQ0R2MVFTb2p0SUxIYkpCdlF2REpiVU91QW5LUTdKUnFpbkhOR2wwekltU2cwS2NHU1F1Y28xYUpCdndMOGp5aXRqUENzJiMxMDtTMnZTTldJMVgyb28wQTVLaWFKSjFEcWNFZ2xwLzdxbUVFc1pweEpzSFhyRk9RVytKcFNjdjA1T0xiYWMwSTFkUE9oWGdQOXJsTzh6JiMxMDs3VzR4UWphT25qbDRzbEhoR1NwTmx0NU9TZzZjMWZoNnloZ3BLWGZzV2tvZ21ETkhRdElwcFFpbk5IT0c1M0htekoyZ1UyRVdEdnBsJiMxMDs0RkUvLzBUSnhrZFBNVVFxUW1HaUxZMWhvM25kQzlTZ1puMUdrVFlxc28zWGJWMEZSL2VjWWJmeDJHVXVNcGwraEpjTnVtZm5GdzM2JiMxMDtGUkt2OXIwaUNnTThvd1hoWk9FMWJmNW9LWTlSeGloTkIycFJ0VVZLbFN6VVNEWkt6aXBsUnJuZ2FUSzcxUDF2TnhsYXZSUDB0KzVOJiMxMDtYRFRvMSt5NVc3aHRwdENIcjZBUzAyV0xBLzBLaWYrdUpCTnR1Mkk0aUdOUFBtaHZoK2IxWmsyWHJkbWF0REtEWUkvYVRhazJjNTYyJiMxMDt0SkpmWUVrWm5acmtmVExPMXpwSDBJK25BdjFrc0hEUUx3T1BCL2h6N0g2bDVweU1OZVN0anlhNEdIVXRIQmordEdZWG96MmdJdUdwJiMxMDthL0o4emMrVzlpbWR0aWJvWTRRRnFYQnFESlRUZXpXNTNVWjUzcFlCK2s4WERqclJwUXVzL1l6VGdudlZrTGM3QlV2Ym02S3dhQUxSJiMxMDtwQnpwZ3M5WnRlMjYzR0dhN3R6WWM3WDkwQWw1RmErVWFKbnl5Zy9VSk9ObEhzK1pHeVg2bTRxajk3NXUySW8wbFZpZURYdEVvMmxTJiMxMDtUSHU0ZmgvWHZzYU52Y1o3Yi9BTm1tYnNiY3c5Y2lkR1FzVWwxY1pZTnlnRzRXMXZMN2lYc09uVlYvaGJuNlA4anl5aVBid0UvSmVvJiMxMDt1eitFdkhiWlBUYmNjalVIYm1tU2ZNTUZxaUN0a0NNRnB3VEFLZDk3Y3VqeTYzR2FVRjBBSUh2eUtTa3ZxcE9Ub3plaXp1Zm0wZkU5JiMxMDtRYi9jZTgvUUQxaFRpMFZJdXVpQUMwME11UGdobFZ3am1uSDlvaDk2UjYrRDMrc0kxYitVbkRueXk0V0VmZ1Y0aGZDMzJQMlNmZDNuJiMxMDtyWGFYSTZTK0hJSjRhVTFhR29OVDZuUXp5dld1a3B4T1pxQ3BrYVNYNDB6TVBJTFBVNFIvcHdHWExPa1BEL3BWNExIdGNWcGMxMjJ3JiMxMDtmOUttZFZoMDJIcEU4cDFjeDVJVzZVdXdkUTNFdEVSYUlwcG82MUlyalpxbis0Si81MUcycE40ZklQVDNnSC9Sckt2K08rUjlpL3pHJiMxMDtDYmRyWGZtbXBUNGJweXpNSnVYM1Qwdmo2REk2U2NnVjRDbFdwalBxbnJJV3VEdjg2UXl0WnB2KzRLQy9CN3h1KzZqVDMyZXFEOGs3JiMxMDt4OCsybm91dkRiVnRJQStQSjZYaWhlSTN6Wkk2U1o0VFRPRnhJbkFlUncrY09uMGthNFU3d0ovZWVIcDI1QjRjOUd1QTEwM1RyWDRYJiMxMDtvdDRqNXl4dHJyY28rTFlVcGtLY2x2VzdMcEJuWXVNY25JSFBmQTYrelcvZEd2NlVaODdBZTMrQTBLOEovaVhsQlpGK0YrQmZVdmlJJiMxMDthTDN1a085R0tYeEFnSzY5c3dCaGRXWHJkK0RUT2ZpMk9iNE4vT25QbkJsUG9uaFkwSzhKZmdSZnMydC9Rczd2VVhnSytHNk5Rb3R1JiMxMDtDdjkwUllpYndhZDdtamx6OGhDaDN3Qzhici9POEFjTi9GMXpHL2gyMUpGemZmZ1RFZWIwWjg1VUR4SDZEY0ZQQmY2cHFuOFAvRk0xJiMxMDtQNnI3dE1KRHpHVktNMmUwUis0QlFyOEYrRHZETnhOcS96M3c2Wng5NTlISzZtRmFNMmUwRy9ZaFFyOGwrRHZCdCtkcy9pWHdLWGNBJiMxMDtqZGR4YVpieUlOR2x0S2MyaVVMNzNoOGk5RHVBdnpWOGM0SEQ5eTU4YW9aNHNwb2ZMY2luNjdlNHhzdWN5c3daSFhCNWlORHZDUDVXJiMxMDs4Tk13emFYd20vOG5aWC9XcnZ0YzBuQ3ZMdHlqdzZwM0hscE5vMndQRVBvVXdOOFFmaVBONStHUHUzZXpmWi93NVp0VkY1TzB3NjVUJiMxMDtXbUl6cmNtV2hsZVozdEpkeHRQVDBPckRnejRsOE5lSHorbGYxdCtuOEp1aG5iRXJONTRib21GYjVHWmRObDBYT3kzR2w5ZkcxcHd6JiMxMDthUkcreWFRRWRPTkpGSjgvU09oVEJIODkrQ1BYN1VMNE1sN1BXZEtVTGFiUjZzbHExNGY0WElhdXMyZEdPV2Z5bVBvdG9mOTBZU2RSJiMxMDt6Qm40RWZ6L0JQeS9JUGZOeitYb2UxNmU5TGFsMnJEU0hWYlJVWmx0dHBFSW02OHJKUWVqbnJySllackpvVnFRTkYxTEhCUkVBczU1JiMxMDs1a3dQTFVZWDQ5UEJsWDIwb05mNFRDcjR4Z05jZTI3bVRLeU0vc0tsTEozalFkZ0Q4ZkFMTkQ1M2lIdjRNY3JlZzRWK0QrQkgyMytnJiMxMDsvQlhhd2EvbzhQdWVucjNkcFA1R1FhM2FuYlA1TERxWlIvdGhtemxaT3JRZmNUNHRzQ3M2L3BzWDJCM2crQVNmTzhKN3F1WTFHVUdTJiMxMDtkSHlMcXZ5alJmeXA4aEtDdnhpKzZ4Q2QybndBTjFucHAyWFNzL3JYUnBCbTdlS1Z5MTY4TkpralRRcmRWS29ibXc2MUxuRHUrQ2l5JiMxMDs2UWtaUU9mQkN2b0hCLzh1L0ozQjlqbUhML2x5U2YwYk5tclhjODljbnBsYjZ3eGVhbXc3Tjh0bk41NzhJUnVWZEtNTkFXR2RTanF0JiMxMDtvTThQK0xQd3cvTnk3UENWUGxMZ1VxZnFDOXNvMk9uQ3E0QXZhVWx0MkhESEdyN2xKYlZWemVzczJaN0UyRXZTTG1nSUhJOEJ2eS9SJiMxMDtEZ3pGaW92Z1Z0RG5CdndwZk9lL3l0NStiNDI4RXludEVQQmo4dktaVFREVzZHUSt6MnlkeHUydyswT29kWlg0UGh2VzViV1ByYkU5JiMxMDtSQU05YUlnVE5KTStXZ3lndXlIWDRzUUJlbnNGZlk3QU4vQUhmOXFNNXh2YWNKc1VmVGVXaGJyenJPWmVKK3htajU0TndqaXVkVEFHJiMxMDtid0E4Q3NJek1mWWtlZmphRUxMRFYxa3Foc1oxMEZEYXZ0N3NyYURQSDNnNmpmTy9BWHdvOVBWMWtITURpU1ZIemJuQTZ2VGpIVFFDJiMxMDtlUFNRWUlFY1J4cWlTVlR3QlFhVzR5QU5wM3FFZUdRcmIyTHQ2OHBaOFdFNEhJVDlGNEIrdUlJK2grQ2JUaDZkeWVNVWZxRGQ3VktDJiMxMDtXeE1QSjg5R2p0N1lFQU1uK0JRdHBEN1dLWjRuZzdCT2hzNFhRemgyd3dnL0lFYWpIZ09nSDRYOS9VT2NXa0dmVS9EbjRaL0lZWHhHJiMxMDtjZGZKZW44b2RTakZsekVJK1ZBVWJVK21jSkIwRk92WWxBN09uS3Z4RDg2Y3MzVWRYS3NPcitwdTZMOGFTbzRFVjlEbkdQd2svRDlJJiMxMDtrM2k5WDVQZTgwMDQ5cTlrZStqVjFRdHhyUldDRk5BSklVUURtMThVZU1QNVZyOEM4TDdmMzFvUFZmOXhwUDlUNGU5SytwSG5DdnExJiMxMDtOLzd3Zi85VFNubnZFWnJUOWpPbTN6N2h0ZXBiL08yNnd5SDB4dmZIWEpBcjErU3I5cjdRUVNYMGxYYmpWNU5TVGl2b2l3TitBcjZtJiMxMDtUdFVmc2xiTjZ5WXJCNzNKdjl5bHAvazMrN1NKL1g5aC8xeUhWR2tGZlhIQlQ5ekxEN0Q3ZTVSL3VlSytORDN1RzhtWnVWYkFsNjB4JiMxMDtOdVVIVGJLa2YrZXo1K2Vxd2E2MjFiYmFWdHRxVzIzenVQMi9BQU1BbXYrTkR3VDFCR1FBQUFBQVNVVk9SSzVDWUlJPSIgaGVpZ2h0PSI5OSIgd2lkdGg9IjEyNyIgb3BhY2l0eT0iMC4yIiBvdmVyZmxvdz0idmlzaWJsZSI+JiN4YTsJCQkJPC9pbWFnZT4mI3hhOwkJCQk8Zz4mI3hhOwkJCQkJPHBvbHlnb24gcG9pbnRzPSI0MDUuNjQsMjMyLjI1IDQwNS42NCwyMzIuMjUgNDA1LjY0LDIzMi4yNSAyNTEuODcsMjMyLjI1IDExNy4zMiwzNjYuODMgMTk0LjE5LDQ0My43IiBmaWxsPSIjNTRDNUY4Ii8+JiN4YTsJCQkJPC9nPiYjeGE7CQkJPC9nPiYjeGE7CQk8L2c+JiN4YTsJCTxnPiYjeGE7CQkJPGRlZnM+JiN4YTsJCQkJPHBhdGggZD0iTTQwNS42NCwyMzIuMjVMMjcxLjEsMzY2LjhsMTM0LjU1LDEzNC41OGwwLDBIMjUxLjg3bC01Ny42OC01Ny42OGwwLDBsLTc2LjktNzYuOWwxMzQuNTgtMTM0LjU1SDQwNS42NCYjMTA7JiM5OyYjOTsmIzk7JiM5OyYjOTtMNDA1LjY0LDIzMi4yNUw0MDUuNjQsMjMyLjI1eiBNMjUxLjg3LDEuNThMMS45NywyNTEuNDhsNzYuOSw3Ni45TDQwNS42NCwxLjU4SDI1MS44N3oiIGlkPSJTVkdJRF8zXyIvPiYjeGE7CQkJPC9kZWZzPiYjeGE7CQkJPGNsaXBQYXRoIGlkPSJTVkdJRF80XyI+JiN4YTsJCQkJPHVzZSBvdmVyZmxvdz0idmlzaWJsZSIgeGxpbms6aHJlZj0iI1NWR0lEXzNfIi8+JiN4YTsJCQk8L2NsaXBQYXRoPiYjeGE7CQkJPHBvbHlnb24gcG9pbnRzPSI3OC44NywzMjguMzggMS45NywyNTEuNDggMjUxLjg3LDEuNTggNDA1LjY0LDEuNTgiIGZpbGw9IiM1NEM1RjgiIGNsaXAtcGF0aD0idXJsKCNTVkdJRF80XykiLz4mI3hhOwkJPC9nPiYjeGE7CQk8Zz4mI3hhOwkJCTxkZWZzPiYjeGE7CQkJCTxwYXRoIGQ9Ik00MDUuNjQsMjMyLjI1TDI3MS4xLDM2Ni44bDEzNC41NSwxMzQuNThsMCwwSDI1MS44N2wtNTcuNjgtNTcuNjhsMCwwbC03Ni45LTc2LjlsMTM0LjU4LTEzNC41NUg0MDUuNjQmIzEwOyYjOTsmIzk7JiM5OyYjOTsmIzk7TDQwNS42NCwyMzIuMjVMNDA1LjY0LDIzMi4yNXogTTI1MS44NywxLjU4TDEuOTcsMjUxLjQ4bDc2LjksNzYuOUw0MDUuNjQsMS41OEgyNTEuODd6IiBpZD0iU1ZHSURfNV8iLz4mI3hhOwkJCTwvZGVmcz4mI3hhOwkJCTxjbGlwUGF0aCBpZD0iU1ZHSURfNl8iPiYjeGE7CQkJCTx1c2Ugb3ZlcmZsb3c9InZpc2libGUiIHhsaW5rOmhyZWY9IiNTVkdJRF81XyIvPiYjeGE7CQkJPC9jbGlwUGF0aD4mI3hhOwkJCTxwb2x5Z29uIHBvaW50cz0iMTk0LjE5LDQ0My43IDI1MS44Nyw1MDEuMzggNDA1LjY0LDUwMS4zOCA0MDUuNjQsNTAxLjM4ICYjMTA7JiM5OyYjOTsmIzk7JiM5OzI3MS4xLDM2Ni44MyIgZmlsbD0iIzAxNTc5QiIgY2xpcC1wYXRoPSJ1cmwoI1NWR0lEXzZfKSIvPiYjeGE7CQk8L2c+JiN4YTsJCTxnPiYjeGE7CQkJPGRlZnM+JiN4YTsJCQkJPHBhdGggZD0iTTQwNS42NCwyMzIuMjVMMjcxLjEsMzY2LjhsMTM0LjU1LDEzNC41OGwwLDBIMjUxLjg3bC01Ny42OC01Ny42OGwwLDBsLTc2LjktNzYuOWwxMzQuNTgtMTM0LjU1SDQwNS42NCYjMTA7JiM5OyYjOTsmIzk7JiM5OyYjOTtMNDA1LjY0LDIzMi4yNUw0MDUuNjQsMjMyLjI1eiBNMjUxLjg3LDEuNThMMS45NywyNTEuNDhsNzYuOSw3Ni45TDQwNS42NCwxLjU4SDI1MS44N3oiIGlkPSJTVkdJRF83XyIvPiYjeGE7CQkJPC9kZWZzPiYjeGE7CQkJPGNsaXBQYXRoIGlkPSJTVkdJRF84XyI+JiN4YTsJCQkJPHVzZSBvdmVyZmxvdz0idmlzaWJsZSIgeGxpbms6aHJlZj0iI1NWR0lEXzdfIi8+JiN4YTsJCQk8L2NsaXBQYXRoPiYjeGE7CQkJJiN4YTsJCQkJPGxpbmVhckdyYWRpZW50IGdyYWRpZW50VHJhbnNmb3JtPSJtYXRyaXgoMC4yNSAwIDAgLTAuMjUgLTE3MjIgLTI4Ny41KSIgeTI9Ii0yNzU1LjE2MTQiIHgyPSI3OTgzLjU3NzEiIHkxPSItMjk4NC4yNDM3IiB4MT0iNzc1NC40OTUxIiBncmFkaWVudFVuaXRzPSJ1c2VyU3BhY2VPblVzZSIgaWQ9IlNWR0lEXzlfIj4mI3hhOwkJCQk8c3RvcCBzdHlsZT0ic3RvcC1jb2xvcjojMUEyMzdFO3N0b3Atb3BhY2l0eTowLjQiIG9mZnNldD0iMCIvPiYjeGE7CQkJCTxzdG9wIHN0eWxlPSJzdG9wLWNvbG9yOiMxQTIzN0U7c3RvcC1vcGFjaXR5OjAiIG9mZnNldD0iMSIvPiYjeGE7CQkJPC9saW5lYXJHcmFkaWVudD4mI3hhOwkJCTxwb2x5Z29uIHBvaW50cz0iMTk0LjE5LDQ0My43IDMwOC4yNCw0MDQuMjMgMjcxLjEsMzY2LjgzIiBmaWxsPSJ1cmwoI1NWR0lEXzlfKSIgY2xpcC1wYXRoPSJ1cmwoI1NWR0lEXzhfKSIvPiYjeGE7CQk8L2c+JiN4YTsJCTxnPiYjeGE7CQkJPGRlZnM+JiN4YTsJCQkJPHBhdGggZD0iTTQwNS42NCwyMzIuMjVMMjcxLjEsMzY2LjhsMTM0LjU1LDEzNC41OGwwLDBIMjUxLjg3bC01Ny42OC01Ny42OGwwLDBsLTc2LjktNzYuOWwxMzQuNTgtMTM0LjU1SDQwNS42NCYjMTA7JiM5OyYjOTsmIzk7JiM5OyYjOTtMNDA1LjY0LDIzMi4yNUw0MDUuNjQsMjMyLjI1eiBNMjUxLjg3LDEuNThMMS45NywyNTEuNDhsNzYuOSw3Ni45TDQwNS42NCwxLjU4SDI1MS44N3oiIGlkPSJTVkdJRF8xMF8iLz4mI3hhOwkJCTwvZGVmcz4mI3hhOwkJCTxjbGlwUGF0aCBpZD0iU1ZHSURfMTFfIj4mI3hhOwkJCQk8dXNlIG92ZXJmbG93PSJ2aXNpYmxlIiB4bGluazpocmVmPSIjU1ZHSURfMTBfIi8+JiN4YTsJCQk8L2NsaXBQYXRoPiYjeGE7CQkJPGcgY2xpcC1wYXRoPSJ1cmwoI1NWR0lEXzExXykiPiYjeGE7CQkJCSYjeGE7CQkJCQk8cmVjdCBoZWlnaHQ9IjEwOC43MyIgd2lkdGg9IjEwOC43MyIgZmlsbD0iIzI5QjZGNiIgdHJhbnNmb3JtPSJtYXRyaXgoMC43MDcxIC0wLjcwNzEgMC43MDcxIDAuNzA3MSAtMjAyLjQ5NzcgMjQ0Ljc1NjYpIiB5PSIzMTIuNDUiIHg9IjEzOS44MyIvPiYjeGE7CQkJPC9nPiYjeGE7CQk8L2c+JiN4YTsJPC9nPiYjeGE7CSYjeGE7CQk8cmFkaWFsR3JhZGllbnQgZ3JhZGllbnRVbml0cz0idXNlclNwYWNlT25Vc2UiIGdyYWRpZW50VHJhbnNmb3JtPSJtYXRyaXgoMC4yNSAwIDAgLTAuMjUgLTE3MjIgLTI4Ny41KSIgcj0iMjQ0NS45MDg3IiBjeT0iLTEyOTIuNjI5MiIgY3g9IjY5NDEuMzE2NCIgaWQ9IlNWR0lEXzEyXyI+JiN4YTsJCTxzdG9wIHN0eWxlPSJzdG9wLWNvbG9yOiNGRkZGRkY7c3RvcC1vcGFjaXR5OjAuMSIgb2Zmc2V0PSIwIi8+JiN4YTsJCTxzdG9wIHN0eWxlPSJzdG9wLWNvbG9yOiNGRkZGRkY7c3RvcC1vcGFjaXR5OjAiIG9mZnNldD0iMSIvPiYjeGE7CTwvcmFkaWFsR3JhZGllbnQ+JiN4YTsJPHBhdGggZD0iTTQwNS42NCwyMzIuMjVMMjcxLjEsMzY2LjhsMTM0LjU1LDEzNC41OGwwLDBIMjUxLjg3bC01Ny42OC01Ny42OGwwLDBsLTc2LjktNzYuOWwxMzQuNTgtMTM0LjU1JiMxMDsmIzk7JiM5O0g0MDUuNjRMNDA1LjY0LDIzMi4yNUw0MDUuNjQsMjMyLjI1eiBNMjUxLjg3LDEuNThMMS45NywyNTEuNDhsNzYuOSw3Ni45TDQwNS42NCwxLjU4SDI1MS44N3oiIGZpbGw9InVybCgjU1ZHSURfMTJfKSIvPiYjeGE7PC9nPiYjeGE7PC9zdmc+;" parent="1" vertex="1">
          <mxGeometry x="-70" y="186.39999999999998" width="90" height="163.6" as="geometry" />
        </mxCell>
        <mxCell id="LTjXMn_Se3MsG3HputFX-29" value="" style="endArrow=classic;startArrow=classic;html=1;rounded=0;exitX=1;exitY=0.435;exitDx=0;exitDy=0;exitPerimeter=0;" parent="1" source="LTjXMn_Se3MsG3HputFX-24" edge="1">
          <mxGeometry width="50" height="50" relative="1" as="geometry">
            <mxPoint x="140" y="230" as="sourcePoint" />
            <mxPoint x="220" y="240" as="targetPoint" />
          </mxGeometry>
        </mxCell>
        <mxCell id="LTjXMn_Se3MsG3HputFX-30" value="" style="endArrow=classic;startArrow=classic;html=1;rounded=0;entryX=0.079;entryY=0.5;entryDx=0;entryDy=0;entryPerimeter=0;exitX=1.003;exitY=0.654;exitDx=0;exitDy=0;exitPerimeter=0;" parent="1" source="LTjXMn_Se3MsG3HputFX-24" target="LTjXMn_Se3MsG3HputFX-8" edge="1">
          <mxGeometry width="50" height="50" relative="1" as="geometry">
            <mxPoint x="140" y="230" as="sourcePoint" />
            <mxPoint x="190" y="180" as="targetPoint" />
          </mxGeometry>
        </mxCell>
        <mxCell id="LTjXMn_Se3MsG3HputFX-39" value="" style="image;aspect=fixed;html=1;points=[];align=center;fontSize=12;image=img/lib/azure2/app_services/App_Services.svg;container=0;" parent="1" vertex="1">
          <mxGeometry x="200" y="-160" width="30" height="30" as="geometry" />
        </mxCell>
        <mxCell id="LTjXMn_Se3MsG3HputFX-40" value="&lt;span id=&quot;generated-id-1695256723420-k3xlq1dxu&quot; style=&quot;&quot;&gt;&lt;span style=&quot;&quot; id=&quot;generated-id-1695256762705-z5atwp1ln&quot;&gt;&lt;font id=&quot;generated-id-1695256765906-nrp94r0nq&quot; style=&quot;font-size: 16px;&quot;&gt;Azure App Service&lt;/font&gt;&lt;/span&gt;&lt;br&gt;&lt;/span&gt;" style="text;strokeColor=none;align=center;fillColor=none;html=1;verticalAlign=middle;whiteSpace=wrap;rounded=0;container=0;" parent="1" vertex="1">
          <mxGeometry x="230" y="-150" width="150" height="20" as="geometry" />
        </mxCell>
        <mxCell id="LTjXMn_Se3MsG3HputFX-43" value="" style="group" parent="1" vertex="1" connectable="0">
          <mxGeometry x="180" y="-110" width="436" height="188.81" as="geometry" />
        </mxCell>
        <mxCell id="LTjXMn_Se3MsG3HputFX-35" value="" style="rounded=1;whiteSpace=wrap;html=1;strokeColor=default;fillColor=#FFFFFF;container=0;" parent="LTjXMn_Se3MsG3HputFX-43" vertex="1">
          <mxGeometry y="-10" width="436" height="170" as="geometry" />
        </mxCell>
        <mxCell id="LTjXMn_Se3MsG3HputFX-38" value="&lt;span id=&quot;generated-id-1695256723420-k3xlq1dxu&quot; style=&quot;&quot;&gt;&lt;b style=&quot;&quot; id=&quot;generated-id-1695256762705-z5atwp1ln&quot;&gt;&lt;font id=&quot;generated-id-1695256765906-nrp94r0nq&quot; style=&quot;font-size: 24px;&quot;&gt;Token Server&lt;/font&gt;&lt;/b&gt;&lt;br&gt;&lt;/span&gt;" style="text;strokeColor=none;align=center;fillColor=none;html=1;verticalAlign=middle;whiteSpace=wrap;rounded=0;container=0;" parent="LTjXMn_Se3MsG3HputFX-43" vertex="1">
          <mxGeometry x="10" width="194" height="40" as="geometry" />
        </mxCell>
        <mxCell id="LTjXMn_Se3MsG3HputFX-41" value="" style="shape=image;verticalLabelPosition=bottom;labelBackgroundColor=default;verticalAlign=top;aspect=fixed;imageAspect=0;image=data:image/svg+xml,PHN2ZyB4bWxuczp4bGluaz0iaHR0cDovL3d3dy53My5vcmcvMTk5OS94bGluayIgeG1sbnM9Imh0dHA6Ly93d3cudzMub3JnLzIwMDAvc3ZnIiB4bWw6c3BhY2U9InByZXNlcnZlIiBzdHlsZT0iZW5hYmxlLWJhY2tncm91bmQ6bmV3IDAgMCAyNTQuNSAyMjU7IiB2aWV3Qm94PSIwIDAgMjU0LjUgMjI1IiB5PSIwcHgiIHg9IjBweCIgaWQ9IkxheWVyXzEiIHZlcnNpb249IjEuMSI+JiN4YTs8c3R5bGUgdHlwZT0idGV4dC9jc3MiPiYjeGE7CS5zdDB7ZmlsbDojMkRCQ0FGO30mI3hhOwkuc3Qxe2ZpbGw6IzVEQzlFMTt9JiN4YTsJLnN0MntmaWxsOiNGREREMDA7fSYjeGE7CS5zdDN7ZmlsbDojQ0UzMjYyO30mI3hhOwkuc3Q0e2ZpbGw6IzAwQUNENzt9JiN4YTsJLnN0NXtmaWxsOiNGRkZGRkY7fSYjeGE7PC9zdHlsZT4mI3hhOzxnPiYjeGE7CTxnPiYjeGE7CQk8Zz4mI3hhOwkJCTxnPiYjeGE7CQkJCTxwYXRoIGQ9Ik00MC4yLDEwMS4xYy0wLjQsMC0wLjUtMC4yLTAuMy0wLjVsMi4xLTIuN2MwLjItMC4zLDAuNy0wLjUsMS4xLTAuNWwzNS43LDBjMC40LDAsMC41LDAuMywwLjMsMC42JiMxMDsmIzk7JiM5OyYjOTsmIzk7JiM5O2wtMS43LDIuNmMtMC4yLDAuMy0wLjcsMC42LTEsMC42TDQwLjIsMTAxLjF6IiBjbGFzcz0ic3QwIi8+JiN4YTsJCQk8L2c+JiN4YTsJCTwvZz4mI3hhOwk8L2c+JiN4YTsJPGc+JiN4YTsJCTxnPiYjeGE7CQkJPGc+JiN4YTsJCQkJPHBhdGggZD0iTTI1LjEsMTEwLjNjLTAuNCwwLTAuNS0wLjItMC4zLTAuNWwyLjEtMi43YzAuMi0wLjMsMC43LTAuNSwxLjEtMC41bDQ1LjYsMGMwLjQsMCwwLjYsMC4zLDAuNSwwLjYmIzEwOyYjOTsmIzk7JiM5OyYjOTsmIzk7bC0wLjgsMi40Yy0wLjEsMC40LTAuNSwwLjYtMC45LDAuNkwyNS4xLDExMC4zeiIgY2xhc3M9InN0MCIvPiYjeGE7CQkJPC9nPiYjeGE7CQk8L2c+JiN4YTsJPC9nPiYjeGE7CTxnPiYjeGE7CQk8Zz4mI3hhOwkJCTxnPiYjeGE7CQkJCTxwYXRoIGQ9Ik00OS4zLDExOS41Yy0wLjQsMC0wLjUtMC4zLTAuMy0wLjZsMS40LTIuNWMwLjItMC4zLDAuNi0wLjYsMS0wLjZsMjAsMGMwLjQsMCwwLjYsMC4zLDAuNiwwLjdsLTAuMiwyLjQmIzEwOyYjOTsmIzk7JiM5OyYjOTsmIzk7YzAsMC40LTAuNCwwLjctMC43LDAuN0w0OS4zLDExOS41eiIgY2xhc3M9InN0MCIvPiYjeGE7CQkJPC9nPiYjeGE7CQk8L2c+JiN4YTsJPC9nPiYjeGE7CTxnPiYjeGE7CQk8ZyBpZD0iQ1hIZjFxXzFfIj4mI3hhOwkJCTxnPiYjeGE7CQkJCTxnPiYjeGE7CQkJCQk8cGF0aCBkPSJNMTUzLjEsOTkuM2MtNi4zLDEuNi0xMC42LDIuOC0xNi44LDQuNGMtMS41LDAuNC0xLjYsMC41LTIuOS0xYy0xLjUtMS43LTIuNi0yLjgtNC43LTMuOCYjMTA7JiM5OyYjOTsmIzk7JiM5OyYjOTsmIzk7Yy02LjMtMy4xLTEyLjQtMi4yLTE4LjEsMS41Yy02LjgsNC40LTEwLjMsMTAuOS0xMC4yLDE5YzAuMSw4LDUuNiwxNC42LDEzLjUsMTUuN2M2LjgsMC45LDEyLjUtMS41LDE3LTYuNiYjMTA7JiM5OyYjOTsmIzk7JiM5OyYjOTsmIzk7YzAuOS0xLjEsMS43LTIuMywyLjctMy43Yy0zLjYsMC04LjEsMC0xOS4zLDBjLTIuMSwwLTIuNi0xLjMtMS45LTNjMS4zLTMuMSwzLjctOC4zLDUuMS0xMC45YzAuMy0wLjYsMS0xLjYsMi41LTEuNiYjMTA7JiM5OyYjOTsmIzk7JiM5OyYjOTsmIzk7YzUuMSwwLDIzLjksMCwzNi40LDBjLTAuMiwyLjctMC4yLDUuNC0wLjYsOC4xYy0xLjEsNy4yLTMuOCwxMy44LTguMiwxOS42Yy03LjIsOS41LTE2LjYsMTUuNC0yOC41LDE3JiMxMDsmIzk7JiM5OyYjOTsmIzk7JiM5OyYjOTtjLTkuOCwxLjMtMTguOS0wLjYtMjYuOS02LjZjLTcuNC01LjYtMTEuNi0xMy0xMi43LTIyLjJjLTEuMy0xMC45LDEuOS0yMC43LDguNS0yOS4zYzcuMS05LjMsMTYuNS0xNS4yLDI4LTE3LjMmIzEwOyYjOTsmIzk7JiM5OyYjOTsmIzk7JiM5O2M5LjQtMS43LDE4LjQtMC42LDI2LjUsNC45YzUuMywzLjUsOS4xLDguMywxMS42LDE0LjFDMTU0LjcsOTguNSwxNTQuMyw5OSwxNTMuMSw5OS4zeiIgY2xhc3M9InN0MCIvPiYjeGE7CQkJCTwvZz4mI3hhOwkJCQk8Zz4mI3hhOwkJCQkJPHBhdGggZD0iTTE4Ni4yLDE1NC42Yy05LjEtMC4yLTE3LjQtMi44LTI0LjQtOC44Yy01LjktNS4xLTkuNi0xMS42LTEwLjgtMTkuM2MtMS44LTExLjMsMS4zLTIxLjMsOC4xLTMwLjImIzEwOyYjOTsmIzk7JiM5OyYjOTsmIzk7JiM5O2M3LjMtOS42LDE2LjEtMTQuNiwyOC0xNi43YzEwLjItMS44LDE5LjgtMC44LDI4LjUsNS4xYzcuOSw1LjQsMTIuOCwxMi43LDE0LjEsMjIuM2MxLjcsMTMuNS0yLjIsMjQuNS0xMS41LDMzLjkmIzEwOyYjOTsmIzk7JiM5OyYjOTsmIzk7JiM5O2MtNi42LDYuNy0xNC43LDEwLjktMjQsMTIuOEMxOTEuNSwxNTQuMiwxODguOCwxNTQuMywxODYuMiwxNTQuNnogTTIxMCwxMTQuMmMtMC4xLTEuMy0wLjEtMi4zLTAuMy0zLjMmIzEwOyYjOTsmIzk7JiM5OyYjOTsmIzk7JiM5O2MtMS44LTkuOS0xMC45LTE1LjUtMjAuNC0xMy4zYy05LjMsMi4xLTE1LjMsOC0xNy41LDE3LjRjLTEuOCw3LjgsMiwxNS43LDkuMiwxOC45YzUuNSwyLjQsMTEsMi4xLDE2LjMtMC42JiMxMDsmIzk7JiM5OyYjOTsmIzk7JiM5OyYjOTtDMjA1LjIsMTI5LjIsMjA5LjUsMTIyLjgsMjEwLDExNC4yeiIgY2xhc3M9InN0MCIvPiYjeGE7CQkJCTwvZz4mI3hhOwkJCTwvZz4mI3hhOwkJPC9nPiYjeGE7CTwvZz4mI3hhOzwvZz4mI3hhOzwvc3ZnPg==;container=0;" parent="LTjXMn_Se3MsG3HputFX-43" vertex="1">
          <mxGeometry x="12" y="11.169999999999996" width="190" height="167.65" as="geometry" />
        </mxCell>
        <mxCell id="LTjXMn_Se3MsG3HputFX-42" value="" style="shape=image;verticalLabelPosition=bottom;labelBackgroundColor=default;verticalAlign=top;aspect=fixed;imageAspect=0;image=data:image/svg+xml,PHN2ZyB4bWxuczp4bGluaz0iaHR0cDovL3d3dy53My5vcmcvMTk5OS94bGluayIgeG1sbnM9Imh0dHA6Ly93d3cudzMub3JnLzIwMDAvc3ZnIiB4bWw6c3BhY2U9InByZXNlcnZlIiBzdHlsZT0iZW5hYmxlLWJhY2tncm91bmQ6bmV3IDAgMCAxMTguMSAzNi43OyIgdmlld0JveD0iMCAwIDExOC4xIDM2LjciIHk9IjBweCIgeD0iMHB4IiB2ZXJzaW9uPSIxLjEiPiYjeGE7PHN0eWxlIHR5cGU9InRleHQvY3NzIj4mI3hhOwkuc3Qwe29wYWNpdHk6MDtmaWxsOiMzMDMwMzA7fSYjeGE7CS5zdDF7ZmlsbDojMjkyRTMxO30mI3hhOwkuc3Qye2ZpbGw6IzgyODI4Mjt9JiN4YTsJLnN0M3tmaWxsOiNDNkM2QzY7fSYjeGE7CS5zdDR7ZmlsbDojMDBBRkQxO30mI3hhOwkuc3Q1e2ZpbGw6IzRBRTFGRjt9JiN4YTs8L3N0eWxlPiYjeGE7PGcgaWQ9IkxheWVyXzEiPiYjeGE7CTxyZWN0IGhlaWdodD0iNTAwIiB3aWR0aD0iODAwIiBjbGFzcz0ic3QwIiB5PSItMjMwLjIiIHg9Ii0zMTUuMiIvPiYjeGE7CTxnIGlkPSJYTUxJRF8xN18iPiYjeGE7CQk8cGF0aCBkPSJNNTIuNSwyMi4zYzAuMywyLDIsMy40LDQuOCwzLjRjMS41LDAsMy40LTAuNSw0LjMtMS41bDIuNSwyLjVjLTEuNywxLjctNC40LDIuNi02LjksMi42JiMxMDsmIzk7JiM5OyYjOTtjLTUuNSwwLTguOC0zLjQtOC44LTguNGMwLTQuOCwzLjMtOC4zLDguNS04LjNjNS4zLDAsOC43LDMuMyw4LjEsOS44SDUyLjV6IE02MS4yLDE5LjFjLTAuMy0yLTEuOS0zLjEtNC4xLTMuMSYjMTA7JiM5OyYjOTsmIzk7Yy0yLjEsMC0zLjksMS00LjUsMy4xSDYxLjJ6IiBjbGFzcz0ic3QxIiBpZD0iWE1MSURfMThfIi8+JiN4YTsJCTxwYXRoIGQ9Ik04MS43LDI2LjhjLTEuOCwxLjgtMy44LDIuNS02LjEsMi41Yy00LjYsMC04LjUtMi44LTguNS04LjRjMC01LjYsMy45LTguNCw4LjUtOC40JiMxMDsmIzk7JiM5OyYjOTtjMi4zLDAsNCwwLjYsNS44LDIuM2wtMi41LDIuNmMtMC45LTAuOC0yLjEtMS4yLTMuMi0xLjJDNzMsMTYuMyw3MSwxOC4yLDcxLDIxYzAsMywyLjEsNC42LDQuNSw0LjZjMS4zLDAsMi41LTAuNCwzLjUtMS4zJiMxMDsmIzk7JiM5OyYjOTtMODEuNywyNi44eiIgY2xhc3M9InN0MSIgaWQ9IlhNTElEXzIxXyIvPiYjeGE7CQk8cGF0aCBkPSJNODcuNCw2LjR2OC44YzEuNC0xLjgsMy4yLTIuNCw1LTIuNGM0LjUsMCw2LjUsMyw2LjUsNy43djguM0g5NXYtOC4zYzAtMi45LTEuNS00LjEtMy42LTQuMSYjMTA7JiM5OyYjOTsmIzk7Yy0yLjMsMC0zLjksMi0zLjksNC4zdjguMWgtMy45VjYuNEg4Ny40eiIgY2xhc3M9InN0MSIgaWQ9IlhNTElEXzI1XyIvPiYjeGE7CQk8cGF0aCBkPSJNMTE4LjEsMjFjMCw0LjUtMy4xLDguMi04LjMsOC4yYy01LjIsMC04LjMtMy43LTguMy04LjJjMC00LjUsMy4yLTguMiw4LjMtOC4yJiMxMDsmIzk7JiM5OyYjOTtTMTE4LjEsMTYuNSwxMTguMSwyMXogTTEwNS41LDIxYzAsMi40LDEuNSw0LjYsNC4zLDQuNmMyLjksMCw0LjMtMi4yLDQuMy00LjZjMC0yLjQtMS43LTQuNy00LjMtNC43JiMxMDsmIzk7JiM5OyYjOTtDMTA3LDE2LjMsMTA1LjUsMTguNiwxMDUuNSwyMXoiIGNsYXNzPSJzdDEiIGlkPSJYTUxJRF8yN18iLz4mI3hhOwk8L2c+JiN4YTs8L2c+JiN4YTs8ZyBpZD0iTGF5ZXJfMiI+JiN4YTsJPGcgaWQ9IlhNTElEXzFfIj4mI3hhOwkJPHBvbHlnb24gcG9pbnRzPSIwLjgsMy4yIDYuMSwwLjIgMTEuMywzLjIgNS45LDYuMiIgY2xhc3M9InN0MiIgaWQ9IlhNTElEXzJfIi8+JiN4YTsJCTxwb2x5Z29uIHBvaW50cz0iNy4yLDYuOSAxMi41LDMuOCAxNy44LDYuOSAxMi40LDkuOCIgY2xhc3M9InN0MiIgaWQ9IlhNTElEXzNfIi8+JiN4YTsJCTxwb2x5Z29uIHBvaW50cz0iMjAuNyw2LjggMjYsMy43IDMxLjIsNi44IDI1LjgsOS44IiBjbGFzcz0ic3QzIiBpZD0iWE1MSURfNF8iLz4mI3hhOwkJPHBvbHlnb24gcG9pbnRzPSIyNy4zLDMuMSAzMi42LDAgMzcuOCwzLjEgMzIuNCw2IiBjbGFzcz0ic3QzIiBpZD0iWE1MSURfNV8iLz4mI3hhOwkJPHBvbHlnb24gcG9pbnRzPSIwLDQuMiAwLDEwLjggNS4zLDEzLjggNS4zLDcuMyIgY2xhc3M9InN0NCIgaWQ9IlhNTElEXzZfIi8+JiN4YTsJCTxwb2x5Z29uIHBvaW50cz0iNi42LDcuOSA2LjYsMTQuNSAxMiwxNy40IDEyLDExIiBjbGFzcz0ic3Q0IiBpZD0iWE1MSURfN18iLz4mI3hhOwkJPHBvbHlnb24gcG9pbnRzPSIxMy4xLDExLjQgMTMuMSwxOCAxOC40LDIwLjkgMTguNCwxNC41IiBjbGFzcz0ic3Q0IiBpZD0iWE1MSURfOF8iLz4mI3hhOwkJPHBvbHlnb24gcG9pbnRzPSIzOC4zLDQuMyAzOC4zLDEwLjkgMzIuOSwxMy45IDMyLjksNy40IiBjbGFzcz0ic3Q1Ii8+JiN4YTsJCTxwb2x5Z29uIHBvaW50cz0iMzEuNiw4IDMxLjYsMTQuNiAyNi4zLDE3LjUgMjYuMywxMS4xIiBjbGFzcz0ic3Q1Ii8+JiN4YTsJCTxwb2x5Z29uIHBvaW50cz0iMjUuMSwxMS41IDI1LjEsMTguMSAxOS44LDIxIDE5LjgsMTQuNiIgY2xhc3M9InN0NSIvPiYjeGE7CQk8cG9seWdvbiBwb2ludHM9IjAsMTIuMSAwLDE4LjcgNS4zLDIxLjYgNS4zLDE1LjIiIGNsYXNzPSJzdDQiIGlkPSJYTUxJRF85XyIvPiYjeGE7CQk8cG9seWdvbiBwb2ludHM9IjYuNiwxNS43IDYuNiwyMi4zIDEyLDI1LjMgMTIsMTguOSIgY2xhc3M9InN0NCIgaWQ9IlhNTElEXzEwXyIvPiYjeGE7CQk8cG9seWdvbiBwb2ludHM9IjEzLjEsMTkuMiAxMy4xLDI1LjggMTguNCwyOC43IDE4LjQsMjIuMyIgY2xhc3M9InN0NCIgaWQ9IlhNTElEXzExXyIvPiYjeGE7CQk8cG9seWdvbiBwb2ludHM9IjM4LjMsMTIuMiAzOC4zLDE4LjggMzIuOSwyMS43IDMyLjksMTUuMyIgY2xhc3M9InN0NSIvPiYjeGE7CQk8cG9seWdvbiBwb2ludHM9IjMxLjYsMTUuOSAzMS42LDIyLjUgMjYuMywyNS40IDI2LjMsMTkiIGNsYXNzPSJzdDUiLz4mI3hhOwkJPHBvbHlnb24gcG9pbnRzPSIyNS4xLDE5LjMgMjUuMSwyNS45IDE5LjgsMjguOCAxOS44LDIyLjQiIGNsYXNzPSJzdDUiLz4mI3hhOwkJPHBvbHlnb24gcG9pbnRzPSIwLDE5LjkgMCwyNi41IDUuMywyOS41IDUuMywyMyIgY2xhc3M9InN0NCIgaWQ9IlhNTElEXzEyXyIvPiYjeGE7CQk8cG9seWdvbiBwb2ludHM9IjYuNiwyMy42IDYuNiwzMC4yIDEyLDMzLjEgMTIsMjYuNyIgY2xhc3M9InN0NCIgaWQ9IlhNTElEXzEzXyIvPiYjeGE7CQk8cG9seWdvbiBwb2ludHM9IjEzLjEsMjcuMSAxMy4xLDMzLjcgMTguNCwzNi42IDE4LjQsMzAuMiIgY2xhc3M9InN0NCIgaWQ9IlhNTElEXzE0XyIvPiYjeGE7CQk8cG9seWdvbiBwb2ludHM9IjM4LjMsMjAgMzguMywyNi42IDMyLjksMjkuNiAzMi45LDIzLjIiIGNsYXNzPSJzdDUiLz4mI3hhOwkJPHBvbHlnb24gcG9pbnRzPSIzMS42LDIzLjcgMzEuNiwzMC4zIDI2LjMsMzMuMiAyNi4zLDI2LjgiIGNsYXNzPSJzdDUiLz4mI3hhOwkJPHBvbHlnb24gcG9pbnRzPSIyNS4xLDI3LjIgMjUuMSwzMy44IDE5LjgsMzYuNyAxOS44LDMwLjMiIGNsYXNzPSJzdDUiLz4mI3hhOwkJPGcgaWQ9IlhNTElEXzE1XyI+JiN4YTsJCQk8cG9seWdvbiBwb2ludHM9IjE5LjIsNy40IDEzLjksMTAuNSAxOS4xLDEzLjQgMTkuMSwxMy40IDE5LjIsNy40IiBjbGFzcz0ic3QyIiBpZD0iWE1MSURfMjJfIi8+JiN4YTsJCQk8cG9seWdvbiBwb2ludHM9IjE5LjIsNy40IDE5LjEsMTMuNCAyNC40LDEwLjUiIGNsYXNzPSJzdDMiIGlkPSJYTUxJRF8yM18iLz4mI3hhOwkJPC9nPiYjeGE7CTwvZz4mI3hhOzwvZz4mI3hhOzwvc3ZnPg==;container=0;" parent="LTjXMn_Se3MsG3HputFX-43" vertex="1">
          <mxGeometry x="210" y="63.64" width="200" height="62.71" as="geometry" />
        </mxCell>
        <mxCell id="LTjXMn_Se3MsG3HputFX-45" value="" style="endArrow=classic;startArrow=classic;html=1;rounded=0;entryX=0.685;entryY=0.999;entryDx=0;entryDy=0;entryPerimeter=0;" parent="1" target="LTjXMn_Se3MsG3HputFX-35" edge="1">
          <mxGeometry width="50" height="50" relative="1" as="geometry">
            <mxPoint x="479" y="140" as="sourcePoint" />
            <mxPoint x="520" y="180" as="targetPoint" />
          </mxGeometry>
        </mxCell>
        <mxCell id="LTjXMn_Se3MsG3HputFX-50" value="" style="endArrow=classic;html=1;rounded=0;exitX=1;exitY=0.5;exitDx=0;exitDy=0;" parent="1" source="LTjXMn_Se3MsG3HputFX-48" edge="1">
          <mxGeometry width="50" height="50" relative="1" as="geometry">
            <mxPoint x="160" y="110" as="sourcePoint" />
            <mxPoint x="180" y="-40" as="targetPoint" />
          </mxGeometry>
        </mxCell>
        <mxCell id="LTjXMn_Se3MsG3HputFX-53" value="" style="endArrow=classic;startArrow=classic;html=1;rounded=0;entryX=0.5;entryY=0;entryDx=0;entryDy=0;" parent="1" target="LTjXMn_Se3MsG3HputFX-52" edge="1">
          <mxGeometry width="50" height="50" relative="1" as="geometry">
            <mxPoint x="480" y="350" as="sourcePoint" />
            <mxPoint x="220" y="330" as="targetPoint" />
          </mxGeometry>
        </mxCell>
        <mxCell id="LTjXMn_Se3MsG3HputFX-56" value="" style="group" parent="1" vertex="1" connectable="0">
          <mxGeometry x="410" y="460" width="140" height="170" as="geometry" />
        </mxCell>
        <mxCell id="LTjXMn_Se3MsG3HputFX-52" value="" style="rounded=1;whiteSpace=wrap;html=1;" parent="LTjXMn_Se3MsG3HputFX-56" vertex="1">
          <mxGeometry width="140" height="170" as="geometry" />
        </mxCell>
        <mxCell id="LTjXMn_Se3MsG3HputFX-51" value="" style="shape=image;verticalLabelPosition=bottom;labelBackgroundColor=default;verticalAlign=top;aspect=fixed;imageAspect=0;image=data:image/svg+xml,PHN2ZyB4bWxucz0iaHR0cDovL3d3dy53My5vcmcvMjAwMC9zdmciIHhtbDpzcGFjZT0icHJlc2VydmUiIHZpZXdCb3g9IjAgMCA0MzIuMDcxIDQ0NS4zODMiIGhlaWdodD0iNDQ1LjM4M3B0IiB3aWR0aD0iNDMyLjA3MXB0Ij4mI3hhOzxnIHN0eWxlPSJmaWxsLXJ1bGU6bm9uemVybztjbGlwLXJ1bGU6bm9uemVybztzdHJva2U6IzAwMDAwMDtzdHJva2UtbWl0ZXJsaW1pdDo0OyIgaWQ9Im9yZ2luYWwiPiYjeGE7CTwvZz4mI3hhOzxnIHN0eWxlPSJmaWxsLXJ1bGU6bm9uemVybztjbGlwLXJ1bGU6bm9uemVybztmaWxsOm5vbmU7c3Ryb2tlOiNGRkZGRkY7c3Ryb2tlLXdpZHRoOjEyLjQ2NTE7c3Ryb2tlLWxpbmVjYXA6cm91bmQ7c3Ryb2tlLWxpbmVqb2luOnJvdW5kO3N0cm9rZS1taXRlcmxpbWl0OjQ7IiBpZD0iTGF5ZXJfeDAwMjBfMyI+JiN4YTs8cGF0aCBkPSJNMzIzLjIwNSwzMjQuMjI3YzIuODMzLTIzLjYwMSwxLjk4NC0yNy4wNjIsMTkuNTYzLTIzLjIzOWw0LjQ2MywwLjM5MmMxMy41MTcsMC42MTUsMzEuMTk5LTIuMTc0LDQxLjU4Ny03YzIyLjM2Mi0xMC4zNzYsMzUuNjIyLTI3LjcsMTMuNTcyLTIzLjE0OGMtNTAuMjk3LDEwLjM3Ni01My43NTUtNi42NTUtNTMuNzU1LTYuNjU1YzUzLjExMS03OC44MDMsNzUuMzEzLTE3OC44MzYsNTYuMTQ5LTIwMy4zMjIgICAgQzM1Mi41MTQtNS41MzQsMjYyLjAzNiwyNi4wNDksMjYwLjUyMiwyNi44NjlsLTAuNDgyLDAuMDg5Yy05LjkzOC0yLjA2Mi0yMS4wNi0zLjI5NC0zMy41NTQtMy40OTZjLTIyLjc2MS0wLjM3NC00MC4wMzIsNS45NjctNTMuMTMzLDE1LjkwNGMwLDAtMTYxLjQwOC02Ni40OTgtMTUzLjg5OSw4My42MjhjMS41OTcsMzEuOTM2LDQ1Ljc3NywyNDEuNjU1LDk4LjQ3LDE3OC4zMSAgICBjMTkuMjU5LTIzLjE2MywzNy44NzEtNDIuNzQ4LDM3Ljg3MS00Mi43NDhjOS4yNDIsNi4xNCwyMC4zMDcsOS4yNzIsMzEuOTEyLDguMTQ3bDAuODk3LTAuNzY1Yy0wLjI4MSwyLjg3Ni0wLjE1Nyw1LjY4OSwwLjM1OSw5LjAxOWMtMTMuNTcyLDE1LjE2Ny05LjU4NCwxNy44My0zNi43MjMsMjMuNDE2Yy0yNy40NTcsNS42NTktMTEuMzI2LDE1LjczNC0wLjc5NywxOC4zNjdjMTIuNzY4LDMuMTkzLDQyLjMwNSw3LjcxNiw2Mi4yNjgtMjAuMjI0ICAgIGwtMC43OTUsMy4xODhjNS4zMjUsNC4yNiw0Ljk2NSwzMC42MTksNS43Miw0OS40NTJjMC43NTYsMTguODM0LDIuMDE3LDM2LjQwOSw1Ljg1Niw0Ni43NzFjMy44MzksMTAuMzYsOC4zNjksMzcuMDUsNDQuMDM2LDI5LjQwNmMyOS44MDktNi4zODgsNTIuNi0xNS41ODIsNTQuNjc3LTEwMS4xMDciIHN0eWxlPSJmaWxsOiMwMDAwMDA7c3Ryb2tlOiMwMDAwMDA7c3Ryb2tlLXdpZHRoOjM3LjM5NTM7c3Ryb2tlLWxpbmVjYXA6YnV0dDtzdHJva2UtbGluZWpvaW46bWl0ZXI7Ii8+JiN4YTs8cGF0aCBkPSJNNDAyLjM5NSwyNzEuMjNjLTUwLjMwMiwxMC4zNzYtNTMuNzYtNi42NTUtNTMuNzYtNi42NTVjNTMuMTExLTc4LjgwOCw3NS4zMTMtMTc4Ljg0Myw1Ni4xNTMtMjAzLjMyNmMtNTIuMjctNjYuNzg1LTE0Mi43NTItMzUuMi0xNDQuMjYyLTM0LjM4bC0wLjQ4NiwwLjA4N2MtOS45MzgtMi4wNjMtMjEuMDYtMy4yOTItMzMuNTYtMy40OTZjLTIyLjc2MS0wLjM3My00MC4wMjYsNS45NjctNTMuMTI3LDE1LjkwMiAgICBjMCwwLTE2MS40MTEtNjYuNDk1LTE1My45MDQsODMuNjNjMS41OTcsMzEuOTM4LDQ1Ljc3NiwyNDEuNjU3LDk4LjQ3MSwxNzguMzEyYzE5LjI2LTIzLjE2MywzNy44NjktNDIuNzQ4LDM3Ljg2OS00Mi43NDhjOS4yNDMsNi4xNCwyMC4zMDgsOS4yNzIsMzEuOTA4LDguMTQ3bDAuOTAxLTAuNzY1Yy0wLjI4LDIuODc2LTAuMTUyLDUuNjg5LDAuMzYxLDkuMDE5Yy0xMy41NzUsMTUuMTY3LTkuNTg2LDE3LjgzLTM2LjcyMywyMy40MTYgICAgYy0yNy40NTksNS42NTktMTEuMzI4LDE1LjczNC0wLjc5NiwxOC4zNjdjMTIuNzY4LDMuMTkzLDQyLjMwNyw3LjcxNiw2Mi4yNjYtMjAuMjI0bC0wLjc5NiwzLjE4OGM1LjMxOSw0LjI2LDkuMDU0LDI3LjcxMSw4LjQyOCw0OC45NjljLTAuNjI2LDIxLjI1OS0xLjA0NCwzNS44NTQsMy4xNDcsNDcuMjU0YzQuMTkxLDExLjQsOC4zNjgsMzcuMDUsNDQuMDQyLDI5LjQwNmMyOS44MDktNi4zODgsNDUuMjU2LTIyLjk0Miw0Ny40MDUtNTAuNTU1ICAgIGMxLjUyNS0xOS42MzEsNC45NzYtMTYuNzI5LDUuMTk0LTM0LjI4bDIuNzY4LTguMzA5YzMuMTkyLTI2LjYxMSwwLjUwNy0zNS4xOTYsMTguODcyLTMxLjIwM2w0LjQ2MywwLjM5MmMxMy41MTcsMC42MTUsMzEuMjA4LTIuMTc0LDQxLjU5MS03YzIyLjM1OC0xMC4zNzYsMzUuNjE4LTI3LjcsMTMuNTczLTIzLjE0OHoiIHN0eWxlPSJmaWxsOiMzMzY3OTE7c3Ryb2tlOm5vbmU7Ii8+JiN4YTs8cGF0aCBkPSJNMjE1Ljg2NiwyODYuNDg0Yy0xLjM4NSw0OS41MTYsMC4zNDgsOTkuMzc3LDUuMTkzLDExMS40OTVjNC44NDgsMTIuMTE4LDE1LjIyMywzNS42ODgsNTAuOSwyOC4wNDVjMjkuODA2LTYuMzksNDAuNjUxLTE4Ljc1Niw0NS4zNTctNDYuMDUxYzMuNDY2LTIwLjA4MiwxMC4xNDgtNzUuODU0LDExLjAwNS04Ny4yODEiLz4mI3hhOzxwYXRoIGQ9Ik0xNzMuMTA0LDM4LjI1NmMwLDAtMTYxLjUyMS02Ni4wMTYtMTU0LjAxMiw4NC4xMDljMS41OTcsMzEuOTM4LDQ1Ljc3OSwyNDEuNjY0LDk4LjQ3MywxNzguMzE2YzE5LjI1Ni0yMy4xNjYsMzYuNjcxLTQxLjMzNSwzNi42NzEtNDEuMzM1Ii8+JiN4YTs8cGF0aCBkPSJNMjYwLjM0OSwyNi4yMDdjLTUuNTkxLDEuNzUzLDg5Ljg0OC0zNC44ODksMTQ0LjA4NywzNC40MTdjMTkuMTU5LDI0LjQ4NC0zLjA0MywxMjQuNTE5LTU2LjE1MywyMDMuMzI5Ii8+JiN4YTs8cGF0aCBkPSJNMzQ4LjI4MiwyNjMuOTUzYzAsMCwzLjQ2MSwxNy4wMzYsNTMuNzY0LDYuNjUzYzIyLjA0LTQuNTUyLDguNzc2LDEyLjc3NC0xMy41NzcsMjMuMTU1Yy0xOC4zNDUsOC41MTQtNTkuNDc0LDEwLjY5Ni02MC4xNDYtMS4wNjljLTEuNzI5LTMwLjM1NSwyMS42NDctMjEuMTMzLDE5Ljk2LTI4LjczOWMtMS41MjUtNi44NS0xMS45NzktMTMuNTczLTE4Ljg5NC0zMC4zMzggICAgYy02LjAzNy0xNC42MzMtODIuNzk2LTEyNi44NDksMjEuMjg3LTExMC4xODNjMy44MTMtMC43ODktMjcuMTQ2LTk5LjAwMi0xMjQuNTUzLTEwMC41OTljLTk3LjM4NS0xLjU5Ny05NC4xOSwxMTkuNzYyLTk0LjE5LDExOS43NjIiIHN0eWxlPSJzdHJva2UtbGluZWpvaW46YmV2ZWw7Ii8+JiN4YTs8cGF0aCBkPSJNMTg4LjYwNCwyNzQuMzM0Yy0xMy41NzcsMTUuMTY2LTkuNTg0LDE3LjgyOS0zNi43MjMsMjMuNDE3Yy0yNy40NTksNS42Ni0xMS4zMjYsMTUuNzMzLTAuNzk3LDE4LjM2NWMxMi43NjgsMy4xOTUsNDIuMzA3LDcuNzE4LDYyLjI2Ni0yMC4yMjljNi4wNzgtOC41MDktMC4wMzYtMjIuMDg2LTguMzg1LTI1LjU0N2MtNC4wMzQtMS42NzEtOS40MjgtMy43NjUtMTYuMzYxLDMuOTk0eiIvPiYjeGE7PHBhdGggZD0iTTE4Ny43MTUsMjc0LjA2OWMtMS4zNjgtOC45MTcsMi45My0xOS41MjgsNy41MzYtMzEuOTQyYzYuOTIyLTE4LjYyNiwyMi44OTMtMzcuMjU1LDEwLjExNy05Ni4zMzljLTkuNTIzLTQ0LjAyOS03My4zOTYtOS4xNjMtNzMuNDM2LTMuMTkzYy0wLjAzOSw1Ljk2OCwyLjg4OSwzMC4yNi0xLjA2Nyw1OC41NDhjLTUuMTYyLDM2LjkxMywyMy40ODgsNjguMTMyLDU2LjQ3OSw2NC45MzgiLz4mI3hhOzxwYXRoIGQ9Ik0xNzIuNTE3LDE0MS43Yy0wLjI4OCwyLjAzOSwzLjczMyw3LjQ4LDguOTc2LDguMjA3YzUuMjM0LDAuNzMsOS43MTQtMy41MjIsOS45OTgtNS41NTljMC4yODQtMi4wMzktMy43MzItNC4yODUtOC45NzctNS4wMTVjLTUuMjM3LTAuNzMxLTkuNzE5LDAuMzMzLTkuOTk2LDIuMzY3eiIgc3R5bGU9ImZpbGw6I0ZGRkZGRjtzdHJva2Utd2lkdGg6NC4xNTU7c3Ryb2tlLWxpbmVjYXA6YnV0dDtzdHJva2UtbGluZWpvaW46bWl0ZXI7Ii8+JiN4YTs8cGF0aCBkPSJNMzMxLjk0MSwxMzcuNTQzYzAuMjg0LDIuMDM5LTMuNzMyLDcuNDgtOC45NzYsOC4yMDdjLTUuMjM4LDAuNzMtOS43MTgtMy41MjItMTAuMDA1LTUuNTU5Yy0wLjI3Ny0yLjAzOSwzLjc0LTQuMjg1LDguOTc5LTUuMDE1YzUuMjM5LTAuNzMsOS43MTgsMC4zMzMsMTAuMDAyLDIuMzY4eiIgc3R5bGU9ImZpbGw6I0ZGRkZGRjtzdHJva2Utd2lkdGg6Mi4wNzc1O3N0cm9rZS1saW5lY2FwOmJ1dHQ7c3Ryb2tlLWxpbmVqb2luOm1pdGVyOyIvPiYjeGE7PHBhdGggZD0iTTM1MC42NzYsMTIzLjQzMmMwLjg2MywxNS45OTQtMy40NDUsMjYuODg4LTMuOTg4LDQzLjkxNGMtMC44MDQsMjQuNzQ4LDExLjc5OSw1My4wNzQtNy4xOTEsODEuNDM1Ii8+JiN4YTs8cGF0aCBkPSJNMCw2MC4yMzIiIHN0eWxlPSJzdHJva2Utd2lkdGg6MzsiLz4mI3hhOzwvZz4mI3hhOzwvc3ZnPg==;" parent="LTjXMn_Se3MsG3HputFX-56" vertex="1">
          <mxGeometry x="25" y="59.99571428571427" width="90" height="92.71" as="geometry" />
        </mxCell>
        <mxCell id="LTjXMn_Se3MsG3HputFX-78" value="&lt;div style=&quot;&quot;&gt;&lt;b style=&quot;border-color: var(--border-color);&quot; id=&quot;generated-id-1695256762705-z5atwp1ln&quot;&gt;&lt;font id=&quot;generated-id-1695256765906-nrp94r0nq&quot; style=&quot;border-color: var(--border-color); font-size: 24px;&quot;&gt;Database&lt;/font&gt;&lt;/b&gt;&lt;/div&gt;" style="text;whiteSpace=wrap;html=1;align=center;" parent="LTjXMn_Se3MsG3HputFX-56" vertex="1">
          <mxGeometry x="20" y="10" width="100" height="40" as="geometry" />
        </mxCell>
        <mxCell id="LTjXMn_Se3MsG3HputFX-57" value="" style="group" parent="1" vertex="1" connectable="0">
          <mxGeometry x="640" y="460" width="140" height="170" as="geometry" />
        </mxCell>
        <mxCell id="LTjXMn_Se3MsG3HputFX-54" value="" style="rounded=1;whiteSpace=wrap;html=1;" parent="LTjXMn_Se3MsG3HputFX-57" vertex="1">
          <mxGeometry width="140" height="170" as="geometry" />
        </mxCell>
        <mxCell id="LTjXMn_Se3MsG3HputFX-55" value="" style="image;aspect=fixed;html=1;points=[];align=center;fontSize=12;image=img/lib/azure2/containers/Container_Registries.svg;" parent="LTjXMn_Se3MsG3HputFX-57" vertex="1">
          <mxGeometry x="25" y="70" width="90" height="80.74" as="geometry" />
        </mxCell>
        <mxCell id="LTjXMn_Se3MsG3HputFX-79" value="&lt;div style=&quot;&quot;&gt;&lt;b style=&quot;border-color: var(--border-color);&quot; id=&quot;generated-id-1695256762705-z5atwp1ln&quot;&gt;&lt;font id=&quot;generated-id-1695256765906-nrp94r0nq&quot; style=&quot;border-color: var(--border-color); font-size: 24px;&quot;&gt;ACR&lt;/font&gt;&lt;/b&gt;&lt;/div&gt;" style="text;whiteSpace=wrap;html=1;align=center;" parent="LTjXMn_Se3MsG3HputFX-57" vertex="1">
          <mxGeometry x="20" y="10" width="100" height="40" as="geometry" />
        </mxCell>
        <mxCell id="LTjXMn_Se3MsG3HputFX-58" value="" style="endArrow=classic;html=1;rounded=0;entryX=1;entryY=0.5;entryDx=0;entryDy=0;exitX=0.5;exitY=0;exitDx=0;exitDy=0;" parent="1" source="LTjXMn_Se3MsG3HputFX-54" target="LTjXMn_Se3MsG3HputFX-12" edge="1">
          <mxGeometry width="50" height="50" relative="1" as="geometry">
            <mxPoint x="370" y="400" as="sourcePoint" />
            <mxPoint x="420" y="350" as="targetPoint" />
            <Array as="points">
              <mxPoint x="710" y="245" />
            </Array>
          </mxGeometry>
        </mxCell>
        <mxCell id="LTjXMn_Se3MsG3HputFX-59" value="" style="endArrow=classic;html=1;rounded=0;entryX=1;entryY=0.5;entryDx=0;entryDy=0;exitX=0.5;exitY=0;exitDx=0;exitDy=0;" parent="1" source="LTjXMn_Se3MsG3HputFX-54" target="LTjXMn_Se3MsG3HputFX-35" edge="1">
          <mxGeometry width="50" height="50" relative="1" as="geometry">
            <mxPoint x="370" y="280" as="sourcePoint" />
            <mxPoint x="420" y="230" as="targetPoint" />
            <Array as="points">
              <mxPoint x="710" y="-35" />
            </Array>
          </mxGeometry>
        </mxCell>
        <mxCell id="LTjXMn_Se3MsG3HputFX-70" value="" style="group" parent="1" vertex="1" connectable="0">
          <mxGeometry x="-480" y="170" width="140" height="170" as="geometry" />
        </mxCell>
        <mxCell id="LTjXMn_Se3MsG3HputFX-67" value="" style="rounded=1;whiteSpace=wrap;html=1;container=0;" parent="LTjXMn_Se3MsG3HputFX-70" vertex="1">
          <mxGeometry width="140" height="170" as="geometry" />
        </mxCell>
        <mxCell id="LTjXMn_Se3MsG3HputFX-60" value="" style="sketch=0;outlineConnect=0;fontColor=#232F3E;gradientColor=none;fillColor=#232F3D;strokeColor=none;dashed=0;verticalLabelPosition=bottom;verticalAlign=top;align=center;html=1;fontSize=12;fontStyle=0;aspect=fixed;pointerEvents=1;shape=mxgraph.aws4.user;" parent="LTjXMn_Se3MsG3HputFX-70" vertex="1">
          <mxGeometry x="25" y="20" width="90" height="90" as="geometry" />
        </mxCell>
        <mxCell id="LTjXMn_Se3MsG3HputFX-69" value="&lt;div style=&quot;&quot;&gt;&lt;b style=&quot;border-color: var(--border-color);&quot; id=&quot;generated-id-1695256762705-z5atwp1ln&quot;&gt;&lt;font id=&quot;generated-id-1695256765906-nrp94r0nq&quot; style=&quot;border-color: var(--border-color); font-size: 24px;&quot;&gt;User&lt;/font&gt;&lt;/b&gt;&lt;/div&gt;" style="text;whiteSpace=wrap;html=1;align=center;" parent="LTjXMn_Se3MsG3HputFX-70" vertex="1">
          <mxGeometry x="20" y="120" width="100" height="40" as="geometry" />
        </mxCell>
        <mxCell id="LTjXMn_Se3MsG3HputFX-71" value="" style="group" parent="1" vertex="1" connectable="0">
          <mxGeometry x="180" y="660" width="140" height="170" as="geometry" />
        </mxCell>
        <mxCell id="LTjXMn_Se3MsG3HputFX-72" value="" style="rounded=1;whiteSpace=wrap;html=1;container=0;" parent="LTjXMn_Se3MsG3HputFX-71" vertex="1">
          <mxGeometry width="140" height="170" as="geometry" />
        </mxCell>
        <mxCell id="LTjXMn_Se3MsG3HputFX-73" value="" style="sketch=0;outlineConnect=0;fontColor=#232F3E;gradientColor=none;fillColor=#232F3D;strokeColor=none;dashed=0;verticalLabelPosition=bottom;verticalAlign=top;align=center;html=1;fontSize=12;fontStyle=0;aspect=fixed;pointerEvents=1;shape=mxgraph.aws4.user;" parent="LTjXMn_Se3MsG3HputFX-71" vertex="1">
          <mxGeometry x="25" y="20" width="90" height="90" as="geometry" />
        </mxCell>
        <mxCell id="LTjXMn_Se3MsG3HputFX-74" value="&lt;div style=&quot;&quot;&gt;&lt;b style=&quot;border-color: var(--border-color);&quot; id=&quot;generated-id-1695256762705-z5atwp1ln&quot;&gt;&lt;font id=&quot;generated-id-1695256765906-nrp94r0nq&quot; style=&quot;border-color: var(--border-color); font-size: 24px;&quot;&gt;Developer&lt;/font&gt;&lt;/b&gt;&lt;/div&gt;" style="text;whiteSpace=wrap;html=1;align=center;" parent="LTjXMn_Se3MsG3HputFX-71" vertex="1">
          <mxGeometry x="20" y="120" width="100" height="40" as="geometry" />
        </mxCell>
        <mxCell id="LTjXMn_Se3MsG3HputFX-75" value="" style="endArrow=classic;html=1;rounded=0;entryX=0.5;entryY=1;entryDx=0;entryDy=0;exitX=1;exitY=0.353;exitDx=0;exitDy=0;exitPerimeter=0;" parent="1" source="LTjXMn_Se3MsG3HputFX-72" target="LTjXMn_Se3MsG3HputFX-52" edge="1">
          <mxGeometry width="50" height="50" relative="1" as="geometry">
            <mxPoint x="330" y="740" as="sourcePoint" />
            <mxPoint x="260" y="600" as="targetPoint" />
            <Array as="points">
              <mxPoint x="480" y="721" />
            </Array>
          </mxGeometry>
        </mxCell>
        <mxCell id="LTjXMn_Se3MsG3HputFX-76" value="" style="endArrow=classic;html=1;rounded=0;entryX=0.5;entryY=1;entryDx=0;entryDy=0;exitX=1.003;exitY=0.644;exitDx=0;exitDy=0;exitPerimeter=0;" parent="1" source="LTjXMn_Se3MsG3HputFX-72" target="LTjXMn_Se3MsG3HputFX-54" edge="1">
          <mxGeometry width="50" height="50" relative="1" as="geometry">
            <mxPoint x="340" y="770" as="sourcePoint" />
            <mxPoint x="370" y="720" as="targetPoint" />
            <Array as="points">
              <mxPoint x="710" y="770" />
            </Array>
          </mxGeometry>
        </mxCell>
        <mxCell id="LTjXMn_Se3MsG3HputFX-80" value="" style="endArrow=classic;html=1;rounded=0;exitX=1;exitY=0.5;exitDx=0;exitDy=0;entryX=0;entryY=0.5;entryDx=0;entryDy=0;" parent="1" source="LTjXMn_Se3MsG3HputFX-67" target="LTjXMn_Se3MsG3HputFX-24" edge="1">
          <mxGeometry width="50" height="50" relative="1" as="geometry">
            <mxPoint x="-220" y="530" as="sourcePoint" />
            <mxPoint x="-170" y="480" as="targetPoint" />
          </mxGeometry>
        </mxCell>
        <mxCell id="LTjXMn_Se3MsG3HputFX-88" value="" style="group" parent="1" vertex="1" connectable="0">
          <mxGeometry x="-200" y="460" width="140" height="170" as="geometry" />
        </mxCell>
        <mxCell id="LTjXMn_Se3MsG3HputFX-89" value="" style="rounded=1;whiteSpace=wrap;html=1;" parent="LTjXMn_Se3MsG3HputFX-88" vertex="1">
          <mxGeometry width="140" height="170" as="geometry" />
        </mxCell>
        <mxCell id="LTjXMn_Se3MsG3HputFX-91" value="&lt;div style=&quot;&quot;&gt;&lt;b style=&quot;border-color: var(--border-color);&quot; id=&quot;generated-id-1695256762705-z5atwp1ln&quot;&gt;&lt;font id=&quot;generated-id-1695256765906-nrp94r0nq&quot; style=&quot;border-color: var(--border-color); font-size: 24px;&quot;&gt;Verifier&lt;/font&gt;&lt;/b&gt;&lt;/div&gt;" style="text;whiteSpace=wrap;html=1;align=center;" parent="LTjXMn_Se3MsG3HputFX-88" vertex="1">
          <mxGeometry x="20" y="10" width="100" height="40" as="geometry" />
        </mxCell>
        <mxCell id="LTjXMn_Se3MsG3HputFX-93" value="" style="shape=image;verticalLabelPosition=bottom;labelBackgroundColor=default;verticalAlign=top;aspect=fixed;imageAspect=0;image=data:image/png,iVBORw0KGgoAAAANSUhEUgAAAQAAAAEACAYAAABccqhmAAAAAXNSR0IArs4c6QAAIABJREFUeF7tfQeUHNWV9n1VnbsnKWuQhMIo50QGabAwQgIBAmHW2IC9XsQer3EieP17+ce/7QXPjA1e7drIeJENCK+VA4gliFFAEkIiWmQFQAiFkTRBnUO9/9wK3TU9Haqqq2c6vDpnENK8eN+7333vvhsIsI9RgFGgbClAynbmbOKMAowCwACAbQJGgTKmAAOAMl58NnVGAQYAbA8wCpQxBRgAlPHis6kzCjAAYHuAUaCMKcAAoIwXn02dUYABANsDjAJlTAEGAGW8+GzqjAIMADTuAdoy1wK+6DCwO2qB0BAAHIavbD1LCFCNTbBijAIFRwEGABqWhG65vD9YHE8BIeMBoBYohIHAIYhFnoarW5oYCGggIitSkBRgAJBlWej/zq0Dwr8EUe9wCJ0FiPkBgAOwVgLY+wBwlrVQEfwmuWRPoCBXmA2KUSADBRgAZAOAF+ZuA9/xORD1AiSf9gkPYKsJgbXPHWTBtr+xncYoUGwUYACQYcXolktGQfjcQQifSV+KcADO884AByPJgr2dxbYB2HjLmwIMADICwAU/Be+xX3WT/Ml1ODtAxfBl5OqWe8p7O7HZFxsFGABkAoAN456HcOf8rItKKYC9/2fgqbySzHv1cNbyrACjQIFQgAFAmoWg+2da4dPTLSBELk27Vsj4ysfbKDgH/Yos3PtvBbK2bBiMAlkpwAAgHQA8O7kG/G3bAIQpmgAAC7kGC0A9dWTRjiNZKc8KMAoUAAUYAKQDgPWTRkG0YxvQ2JBuRdSSX/1LfBWoGLke9nK3kIZt0QJYXzYERoGMFGAAkA4A1o27GGL+FqBRu2YAwIK26nZw9ruazN/5Ott7jAKFTgEGAGkBYNR8iIaeBxASJdJJfnUbnAXAdd6zZOFr1xX64rPxMQowAEgHABtGL4Ww77Euv9YCAFjB3hfAXjOPXLNzK9tijAKFTAEGAGl1AKOXQ8R3l/hrrYyvtEUIgHvoLnA555P6bWhCyD5GgYKkAAOAtFeAMR9B1DvGEABgJYs7Au7BN5L5O58ryJVng2IUAGBhwVPtArp8phX6nglBLGQQICkAmgi7h34I+/ZOJA1qRQLbd4wChUMBgxu8cCaQj5HQly4bBm2HP9N99I8PRjYQsnoAHIPvIQt2LsvHOFmbjAK5UoABQAoK0o3TFkLw5LP6iZsiNohz0Edgq6gn83ce198eq8EokF8KMABIBQDrxj8MkfYH9JM+BQDwTgD3oKXkmj1/1N8eq8EokF8KMABIBQBrR2MAkHnaSZ8pKhi+CNSeBTuMJFe90aG9TVaSUSD/FGAAkERjuuUaO3jfawEauVg7+bOEBeRsAJ4Rf4L59UsJaVBZFmnvgZVkFMgHBRgAJAPA5pn9IHCyBWhsUnaC64gHau97Etx968lVOz7I3i4rwSjQMxRgAJAMABunjIXQWXQCGpR9CXQAAJ4CHIObyHV778/eLivBKNAzFGAAkAwA68ZcJjoBCTFL+iXQwfjqRhz9w2CvnEHm73qvZ5aX9cIokJkCDACSAWBN3XUg+DdltgEwAgBYhwOoGLUV4MRCsuAg5hZgH6NAr1KAAUAyAKyt+wFEfY+kXhUjjI8tqepZKn3gHDCPLNj1Wq+uPOucUYCZAnffA3Tt6JUQ9X7dPABIAg2C7sKDn4OF1y5iLwKMB3ubAuwE0O0EMOo4RP1JCkATJL+6H2s1gHPQLeSa7at7ewOw/subAgwAVOtPW+Y64PThAAiRZFgwsEuygIZr2FsQEOrJLcw4yABxWRWTKMAAQA0Amy8cDf7PP078k8mSX71ovDsCrgE3kQWvbTZpLVkzjAK6KcAAQA0AmybdAoEzqhRfRgBAYx10F3bUfgpB2wRyC8srqHvnsgqmUIABgBoA1o//PYTb/zlrJqC0pNfI/Ep9dBTynP8LMn/7g6asJmuEUUAnBRgAyASjFAisr2uBiG+OMQDQyfzYL4Yacww8CLa+9WTBti90rh0rziiQMwUYACgAsPtiJxz7HC0AL9RPVYPMjx3xDgr2QT8mi15PY3ugfzRaatBVE2xQOWCYWLbz1OfklvfDWuqxMqVFAQYACgCsmjAIoL0FqDBO3xLnwPxiR6K7cAictvPJvL0n9fWtvzR9+St9IRr9LgD5KdCYnPOACwPQh8BqXUbmbc2QCll/f6xGYVOAAYACAOvGT4JoJ3oB9tO+ZLkyv9wTGgdVjloJe3fens/4gaKrMxfYBeGO6RA6ywGVkxdhRiN7HwGsVe8AdV1MFjzPzJS1b4KiLskAQAGA9XVzIRJ4BWhMI01MYn5l+9hrToGtzzyycM/f87GjaMtcixCI/jcXOnM7BE93NU9WTiL2PgDO/k+Bw/JtUs9Sm+VjHQqtTY2bvdCGbf546JqRN0EssEabAtBk5sfpcFYAZ+1fyHX77jR/dgDh5y6ZZg23vQLB1pqM7Tv6toGzfz2Z/+o7+RgHa7OwKMAAIHEC+FcIe/89+/LkgfmVTh0DAJzVs8jVr76RfRzaS2CQctg46zEIHruru5Wjuh2qANEfyaI3l2rvgZUsVgowAFAAYG3dJoh6s+TzyyPz4zjEXALDXwa34zpSvy1o1qbyr7noQiff8SoEW9PEOEial71fDJx9LybX7N5n1hhYO4VJAQYAcQAY2QZRf3X6Zcoz8ysdWz0BcA66lizY/YoZW4aumOuAAaEX4NyhK4CmC0eY7LFIMM35DnC5rjYTiMyYD2vDXAowAEB12Kq5HoCD5+Ja8W407iHmj58Chr4OC/ddRIg6kICxhY9svPxSS/TYixDudHVvIcO8rBV+cAy+ily7Z7exnlmtYqAAAwAEgOdmTgbvsXdTL1gPMr/C79YqAMeg28jCV5/JZRPRVUt4cBx5FvxH5wONpWgqw9zwadB13v/CddcvZHELclmFwq7LAAABYMPkb0Go9QldEjLduurNJBxvR82MaBx03tvg7DMvF8Oc6MbLlvCxk6sg1JY0Wo2gZqsG8NQuIVfvXFPY25iNzigFGAAgAKwf92cIt9/RlYgamURdyRTmlxu0uCg4a79BFu4xdAqgWy6spNHYNuL7dHpOwOYZ/ibwlnqyYG+n0U3G6hUuBcoeAGhDAweT/9wC0eAViWXqZeYXB0IAPEOPAzdghBHLvOjGCxbykVPrIOK15TQvizsM9gE3kEX7ny/cbcxGZpQCDABemOKGjtZtQOksiYiFwPzycqK7sGvow7Bg10/1KATpljo7RKveAP/RiV01/wbmRgiAa8gHYPFOZ5GMjbJZ4dZjALB56nkQPI1egKMLivmVPeMYcBRsVfVkwe5DWrcRfe7y+8D/eSNEfXIVA4yvBkPejaeRB8iC3Y1ax8DKFQcFGACsnzANoh0tIEQz2ACkWUwz7/zp9gtnB3AO/im5bt9DWrYUXXfJAMp5t5HAl+NzOvonn4acte+Ds7KeXL37lJZxFEIZ2gBc8PLFQ/m+joFWS4wGWjuPO+ufP0YMIX0hzMj8MTAAWDfqSoj6XwYq6KNFTzC/ogtwDPIDbx1Prnvj82xbILp+9p189MSfIBrgje/zFCcG3hkD5+Bvk+v2P5ltDIXw+3NbrunvGlb9O0K4iwDIQEIopQI9TmOxbdzZ0H2kfkN7IYyzt8egb9P39mjz0D9dM/IfIObTp2nvMeZXtBI8CJ6RG98+Floya+kbySGL41Shq2ZWgYMeAt/RvhLz53j070Jv8WnyLFicIwr9RSD42k2jbU7LesKHJkK0A0AISEpVzglgqYFomHuh84T3lr4Lni/7lw0GAGtH/QKi3p9pxpYeZn4MG4ZdUmtNR8w+6Erbop1vphkriT13xaOc7/A9EMMNb+TLAhh4Hakc9R/kmle/b6T1nqgTfGNRndXm2sTFTo2HmFcFgvLc0N+CrwaB1CznJv/tn/UoV3ti/D3dBwOAtSNfgaivXhPhe4H5cVwCAgBYAVy1K/nr3/hmqk0b2HTFCEfs9CsQPDXcXMmfRBlH/0/BUVNPrnntU00068FCwd2L6qxu+7McbR0LMUUBigPoDmyU7/uhv42v99RvOdGDQyy4rsoaAMRAoGtH+CHmd2RdmV5iflH6UyLlKrX1FaKWqvmOxXtfSh5vbMOs/8OFj/8CYkEDa6rjqsDbKDhqf0YWvanBdTorVU0rgMxvq3BvJLHjE7Ixv9gpsfqB61tPpj37ummDKMKGDGyWIpxlmiHTlmnV0HqqLbWdvKpSbzG/LLwE1E9SPAmgcdDI19ujnV8ZcMv7eL4VP/+qi89z2v2fgv+LDCnNM62bDgDAZly1UQDr+eT6t74shN0gS/7NHG0dp4n5RQDgIRa2L7RctGNLIcyht8ZQ3gCwadpsCBzPLAF6mfnFE4AguQWK3rxWT4g4BlxnlU8Bq5Ys4W/61vGnuc5Pbk3vzZhue+lk/HgzPEBl3V9h39XfIA0N6XyMe2RPi5K/0r2BRI9P1Mz88sgC55z3uObuXNYjAy3QTsobANZP+B6Ez/xH2rXpJeZXxiPe/eXXSWR+AVmN8ECd57179ETHBaPvORiiz108GUKnX4bQ2QH695gBAFBogjEMHQPzFsNQy1yC+28YZbVaUfKP18v82H4k7Fxhu3jnt7X0VaplyhsA1o1ZB5GOG1Mubi8zf/zuL8gPevin/LJHLRUAzvPud9y8sym2afbjXODodzKH+kqeoQHGF68jqnoYw9BV+yey6O1/6g3mQOa32R0bSOzEJCPML03HeYibtbOuN8ZfKH2WLQCIvvLw2jag4cu6LUYBMD+OCe/+caYXlYH4j0R8FQDn4A+JxfVDu63jeQjoTSdgAABS0QRjGPLVU8n1e9PEUsjPNhclv826iRNatSn80g2Ds8PBnScdeJLKz0gLv9XyBYAtF1aC93NMBDKjyzL1MvMrghaHISr/5Lu/BARE1ANQ/AvnFCyuQR0WOFKTPtRXHiS/ukl8U/eMeB4C/ht6KrNQcNcNo2yVuUl+9RROf1Exrv/1LR8VPqvmZ4TlCwBrx58PMTET0Ig4aQuB+ZWTtiLpRSCQn7Ll50BBoEDQHtBvBfvAEGBeEW2fSZJf3ZnV4wVH7TXkur2vahuD8VJ03+KRgo3fxNFW3Qq/1L1S8LZV31oxb6sqI7Tx8RVjzTIGgDGzIebFTEBuScwaYA6porF1T9GfKORVkl486seP/gldACAgdAhAIwC8B8CGuYwyrqR5Y+w2WQwd5h66lSx6a54xQmirhcxPHdYNJHZystE7f6KnBD0ikcrf2y5q+a62UZReqTIGgJHzIBZ4ST5TG1xZcxlLwYRud3/xBID6ACoOl4QoCJ1S38h/tkEAnCrsR/fJGBinHkC01wC4Bs4n1+x5wSAhM1aTJf9GjrYaVvh17UCtzHRvh407rsxnSrZ80MSsNssXANYMvwNigT8XguRXFjMu8WXln/QSIL//KycBjO3ZKUl/5eMr5FNAt11hgPENnYbQUWjobgDPfHL9rnNmbU5sJ7hv8Uirw7qBM1nyK2OkAr//9BFX/YBbtsUNq8wcf6G3VcYAMPI3EPX+yNgCmc9YYovyu7/4/q86+ivXANQFkDAFitJfPQQCYB8MgL46aSWd1onqkfzqNnl3BNy1N5JrX39Oa1fZygX3LRxptbk2cLTVhGO/TOBkCsW4T4LnKupdX3nlWLbxlOLvyxkA9kHUK4cB07O0+WH+1Hd/1ACqrADxKtAupDT441wAdjQFElfU/DFmphAmH8OsRsPeh+venmSGh53I/I6K9VzsxBQz7/zdIJLybdGAu952eUtZ5kIsSwAQA4FOfCICsSCnh/XzxVjxoz7a+itaf/H5D12BpX8T7/5BCsK51MyN/GcbCMCJbk0GAMCo5Ff3ZfFgLoGl5Nq9f9RH166l23cuHFlR6VjP0TMmMH8WehCeAnXMIzN3mJKJKZd590bd8gSAFy4ZAO2HTuq7/xtgKo33aenIn2B0UdmnmAGr7/4o/VPl95B3DuekYB9kYBuZwfxKt87aA0Crv0IWGwsdFth73Qi7y7WexE5OzafkT1CJQPCc7Xbn3N1PGaBc0VcpTwBYN3kOhE9u0756+WN+xclHcfmV0vdJ2n61HwAEKdA00j8+D0rFUwDG8NT8mcn82KnFScE1+HZy7ZtPax6DXLB9+3Uj3FW29RY4YwLzaz8JhXyuJscVO+/XO95SKF+eALB+zL9CqF2jP3t+mV868svSn1LJzFc2+VUrAulZ9AZKs+VUTIxXAHwWxCtB1s9s5hc7FEOHnQDr0OF68hkE9tww3F5hX0+iJ6f1jORPUCcac+2yXrCzu0l4VgIWf4HyBIC1o56DyLkF2Zcvf8yv3A7iR33R9l86+ku+vyRhAeilQAMZxqJmZAJgQxP9bKeAvDC/TFHegWnO/x0WvvYzLQpBZH6L07LeAqdNYH7tkj++/sQZhk2vOsvRFqDsAIDun2mFw8cxDPilmQEgv8yvAIAY5ENmfNHkFz+VHQBEZc1/KumfhonRUc8+JIN1YD6ZXyGqo99nYKmtJ4t2HMlEZ2R+m8e+nov1vORPjIuHz96vqR3+zReOZxcKpVWi/ABg5eQa4E+3AMSmpl/K/DI/to6ER4YXg30oSj/F9Fd++sMjP/FTEHxpxpOBka19ASxVKWbYE8yP3Yr5DGrvJde/9Zt0dBYlv8Oy3kJ6SfIrA6MUOk7UXFV97daXS4u9s8+m/ABgfd0oCPvQB2BoavLkl/kVyS8KehEApFEkLP4kF2D8IVEKQluS0Y+6gQzrS/AUMBi6Ogr1FPMrLxeuQedIsGo0+frebv7K4p3f7VhHhBPTe/rOHyebih7hYNWD9stafpGdZUqrRPkBwNq6iyDqbwEaTREINP/Mr9xQRS1/TL7uKwyTfPdHk99UnuoaGdnaD8BSKW9YjXW6b2+dNFHmgi8ZxArUPfIZPnz+7eSW1fEHzLY9NwyvclnXENo6M3fmVyhqgDFVNKFcxfPcjO0a9EIG+ingKuUHAKuGzwcafL67D73Oja46PupZX+nZD7lEVvIp/v7ikUCS/vhrdPelHUmaf51MjI5C9qEAhBicm16DIjXzy67L1NrntGAfVG9fvPsATlFkfo9jLYmdmJE78xucVwo6Umrdc2hPn/rR9zxfVsFByg8AVg9fCjH/Y12Z1ryNlA0MpKO+ZOGn7EPF31959xdiAJyPgpCs+dcJADgWSxUFa59so0r1e500ScH84hWH2iBmH7zM9fV37gnsWny+zcOv5ejpmVLSjjiKGhmgMYvHNFcoQeDe8/k8cyvrt502OJiirFZ+ALB25GMQ8S7NefMZYEa1hZ9SPdXdHyIUKN79DZ4y1HPDYCFoHYg6Ae2fScwfI4BgBvYBkai79huuMQMe4IRTsuRX+tDZV66gkWbdKOWOh0MV9Y7Lyis6UPkBwJoRH0LUN1baRwY3nwHml+L6U8DTuOjvryj+ZKMf8QYgKwUJ3v3DagFpZJyJOpZqAGuNVvbX2Vc6yR8DEGIYwowAOCvBPnU25eA0KTTJnziD8BFCPfVkdssurZQqhXJlBQB0+Uwr9DkZgljYeIZoI8yPCjHFrx+ku78CAN2s/tDdt0PW/BvqKwWwobvweQBoH5D5M4v5JckvMX8F2CdNB47vAOnOX1iSP0EPAuGAc7H98lfXZ6NSKf2+vADghdlDoe3zz9Pb1GbjD50MojrCK097cZt/lea/i80/hvpSpL8hAEg9RrQMtPXPFDpM59w0Sf4KsE+eBhzXCYUq+dUrHvY7HrBfsbuxlBg821zKCwA2Tb4G/CeMpYLKgRnFJz9R2y+RW7H4kyL8Kn4AcqgvUfrrZEYN92LRXRhDh3ULGmLgKpSW+YtR8idYJBpyrrVeuuvmbExTSr8vLwBYN+YhCLf9RPcC5sKQqug+Soov8ZlPSfmlDvvVLoBo+muov+ygIQYQxVNAly97veTi0vASLxnilUa+84uOTU4POMRjf3FI/vhBjbhOcTNfRYdqnUTRvaMKpkJ5AcDqES9CzHuVLurnyIzK3T9+9JcFrvTvicQfYrCPTvmooGuAOiQ4Ogqhu7AzvuX19aRB8lOR+WcUwZ0/xdSJFQ7ugqrR9+zt1EeY4i1dNgBAt9TZ4ZwYBvxizctliPlVDCkzjOTw093qL373x6eyNgz1ZUTw6KvDOQHsA1EXoK9ePDx5CUr+xH6g0PFlzczqRa+8qXmPFHnB8gGAzTP7gf8LTAQySdOaGWL+rkyV6u4vNiv+yCm+8DrgF9KG+so8Vp1MjI2JpwCqOgVooIZmya8c+wtZ259qvgk6+n2VS91ztucU0kwDRQumSPkAwMaxYyHU0QJCbHBW6hti/q5HcYXRRdNeJcVXPNJvwuEHYjRtoE/TmV8cIgXxFIA3XS2rn0XbL87N4QHH5OK786slv/L/MVr5lGX29tuz7pESKaBlC5TEVOm6kZeJTkBCLHMiLUPMnyT5ZSkvPf0lmfzKrwFiN6gNxFBfcpIP7YQ2IPll5lf6sPYHwCTDGT8tkr8L8xev5I/TgTh3wqHz6tXOS9rXpfhKlg8ArBl2HcSCmzJq2A0xf1fJH+cz0fIvzd1fTvIpAsAZQXtuT3F/5c784k3AJrsL82k2bZlJfoUKVODeav+0pr7PLS93FB876x9xGQHA8O9D1PdoWhIZYv7UzKi++ycMgNR3f9nS7xwF6tfD0HrKqmaaam6oC+gv5Rbs9pWj5JeJIMS4T8PeqrnOr7zymX52Kr4a5QMAa0c8DRHvbSmXyBDzp5HGqnf/9Hd/KiX3wHf/DGG+u47VROaXGxZPAbVJAUQ1SX63fOc/VxQWfikRLi2v8t5IzFNvu3Db/uJjZ/0jLh8AWDP8S4j6uisADTF/GmZUG/2kdPeVTgGiIZBPAIpXZk2f+cyvdGvpA2Ctlv+mSfIj8+M7Pxr5lMCdvxv9OQiFbfMdl+Qn0amm5e7BQmUBALRlrgNaPw6AoMqoKQpwg4yV5h6uHPfFTL5KLI8umn856i86ypzRavRjcIwa5xYPHcYr5Mhg4ecoZcmf4Dq/z3G3e86e5T3Ih73WVXkAwMYZdRA4+kkXKmtkED3HcCW+n5LeWwQExBk85qtOB6STAg1qYWwtZVLd4fXVw4AhvBg6LJn5E7b9VGT+Upb8CTqGAq7ljst33d1rXNmDHZcHAGyYeDMET62O09UQ86e58yuNykf7eKIPVaBPERhkMIBwilBfqRUTxraBkbmhu/AQCsDJIcmSbfvjkt8LEFNn/9YHNIkJGaxnZG5ip/r6E6jrAD9712RjC1BctcoDANaN+U8It31X2gv6NoO0nFnqpLj7S9cBKcUXxvrDT7z7nxOABrJtEiNjNDY3xbGH9xCw9JWDksiRfERfhbjkVxR+ytgMjjEbLdORJh/rlq4v4oi9v7nDNbHhfXVYlmyLVpS/L3kAwCA8sGZ4C8R8c4wxf3YASFj9Je7+ktRHAJBIjGUw0KeAKb4yfgYZywCDKMwvuiRzAFb0EeCkSD6ShZ9y5y8PyR8He8LBqU9rRg28aevhouRqHYMufQBYdbET4EgLxKIX6qCLXFQbM0p+/bJ3n8js0nlfZCJF14dNYbCPjDFntfXXbR45Mr+ivOTcBPgqeR7lKPlVp5P2jqrFNV/ZXvLRgUofADZOGgj+1m0AsXF5AQD57q+O6oM5/kSpryT9xL9gqK92RRGQaiS9y/zo04+Wi7aBBIinTCW/alkikerf2C7edq/+PVNcNUofADbVTQT/uW1AY/20L41GZozf/aWjP1XSesfDfUnRfhAPuA4BhLTSX2N/yRMwSfIjUMUQAAQCln5uqLhiBnCWMrrzp9BLUM6zlcx49SrjwSO177beLFn6ALB6+FyIBV4BGtMxV20Mqdz9lfTeGPU3/tynBPtAu/sQBQGlf8pPW1/5OvaLkl+Q7vxchRsqr5wOvL3M7vwp1oVSy+sn3hxcX7t0s783GTTffetginwPJT/t09XnL4aof21WTb50aNc8iITiLznGnxznT7n7o86vXQCaZIMUVzhp7lFVMA+SX2T++hnAO8pb8itUpgL3kd9XOddTv+2EkSUqljplAADDH4Co92FtC6IPABTFn3j4FyWpDCEqzT+EVGG+uwxCe19dq+mvp9b2Kwq/bpK/fjrwDib54wBA+dORcEW9/dJtYkqzUv3KAQA2QNR7feYF1MdUigAW7/3KC0D83p+IASA+/Z3FUF/dLu/G9hOT/El007duicoa6hFegJjrSnLBzu3GFqs4apUBAAw7C1F/lrw4GjaE+gQuP+VLue8SZr5Sjr9EABDwU6DnktvW11e8W5OYn0l+rfQnEPY6vm6fu+evxcHKxkZZ0gBAX5jihrZT3hQiWKaW1s2g5n7Zwi85rLcc/Sce/BPt/5Uw3wkuNrZKJjG/WtvP7vzZlyLsc/zSPue1f8tesnhLlDYAbJo6EXzHMtzh9AOAYuKL5r1ilu+4t5+s/JMTf3BimG91+/r7EreVSczPJL9++kcjzq3Wi/fMK172zj7y0gaAjePuAP/pP3cng/7NIPGi7M6ruPuqjv9qk1/xFIAmv/FgH8b6M4v51ZKfoLZ/7gywOHtR228A1KQ1NEhHg/UocfrJzD2eUrYFKG0AWDtqBYQ77jQNAAQ09Ukk9Ei4/0p3/3jsfB8F6lM2q8FNa4BJsmn7kfmr5k4H3sm0/dllIxpwWOD4fk//2qXbTmsqX4SFShYAaEMDBxP+1AKx4BW6tL8pF1G27Vckvmzkoxz/u5j8yqG+xBgABiUPk/zJi2AQRI3SX9V964mqKwZcu31nEfK2piGXLgCICsCTmAlothkAIL35JxJ6xLX/4lMgEWPs4z2b81MQvDJSaFqCpEL5kvz104B3+MrCnz+360LX9Qj5qu9zzNnWbGQpi6FO6QLAxrG14G/bBiCMNiyJZQmSbPKLfxf9feSXgLiuLkaBnokH1tO//iYxf/c7/3SwiMd+r+riOaPDAAAgAElEQVRU0oNS1cC8cmNio3NLcVkklZu4mTuy2JHoX+pCqVG6ALBq9DSgnZgIpDpnAIgb+8jOPSo7gC53/05BY6ivFMtvgEm03fmnAe/yAURLP5JPbqCRmiUpse0m+2NzydI3UhpzFwojGx1H6QLA2vPrIRLYqs8JSCGjSoIo7r6Kkk82+RWlvtrdNyKn+MoW7yPVSpnE/Cklv8sLEGWS3yiDUMq9e+5M//qq+S+cNdpGIdcrXQBYPfRWiPoNWnElAEC5+8fTe8sMLpkBE+mSgP/xCjqTfMjbwiTmV7/zoz9/Fd75meTPmfco5b8IRyrqHZdsO5hzYwXYQOkCwJrhP4fIuQf10Tzp7ihf5xV337jWX2UFKLYfoUDbtIb5Vo3IJObvIvk96NU3HSxM8utb+nSlCR8C4qknM7bvMafBwmqldAFg9flbIeq9Uh+5ux79uzzzyRZ+Cdt/2eYftYEY6ktv+EiTmJ9JfvMUfqn3CgehgG2R4/LXNuvbS8VRuiQBQAwEunqoH2J+h7Zl6L6JEtJeNvCRPf/EG4By98dCEQCKNv969qFJzM8kvx6ia9sJqUqF/I4fOa547RHjLRRuzdIEgPXTqiH0ZZuUkUPLl/roL4GAIumlpz+Rd8W7P2oHAQDDfAe19MHu/OmpZISRjdTRsU6qopGg8xnbZXtS55U01mTB1CpNANg0cTb4TryencqpN1Fyhh/FxDfh7itZBoqhvjp0bEQm+ZOWRAftutQ0Wi/7jkhZgjiPkZl7hhisXdDVShMA1oz5F4icWZad8ik2UpKRj2T7r4T9llpUAoHg3R+vAJo+k5if3fl7mPlFpLcB7BfcZOkbJRcfsEQBYORaiHQsNnLkjLv3UgyU2TXgRzzFF+7BEADt1Hj3N4n5u935504Hi5u982sCYEOFFLAh0PZ59eQ+i0svPFjJAQBdtYQH2NUCsdDlugEgOcVXl8g/eDSQs/ygagE1/1qkv0nMn5D8IMbtF7363MzCzxBfa6rU9aRxrr3qzsp5O/6iqWoRFSo9AHi6rhIsHS1AhRnd1yHz8VGK7S8p+USFnwIAovF/wt2XBCgI3UJ9pVh1k5i/q+R3QaUo+ZH5mYVffnit+z6JxaqesFy44x/z01/vtVp6ALB54jDwtaIX4EhdAJB8948H+aRSii/57i8G+UDp3y3QZ7J+S/9dNbNtvyT5K+dOA4vbz2z788YzadaNc+2ATXvqSYP49lMyX+kBwMaRsyDgxUxA7sQqZWfGuLsvqO/+UgSguM0/NhOkQLuE+mKSPzs3ZKd/6jaM1ss+Ir39UYF748xxV33/63epvaqMdlQw9UoPANYOmweRwEvx87skuzMTXDH5VTn8KOG/lHd/sRWU/m1CZvMCk479Xe78bpdk3usOAEQ7VXMxyiAG6xmYmzRYI/0ZqZMLX2W7HnKHgm0V9a6rdxzNpZdCq1t6ALB62O0Q9cnKGm2bSLn7K5I+ntwzWfp7aWaHHwMMkurY3+XO73aKGXsSx35lTtrmpusalG53GpiXccY3Chi5sFZ2WlLKdxLwzCWzd7yVS0+FVrf0AGDt+c0Q9v5Y8wZUa/7FUF9UVAASJb23oguIySa/6YwLDTBJ1js/k/w580s0xkEwYhF/ogIH+PeYwElKXgzjJP+XIxR4TgALL4CFE8BhjYo/+HfxIzxEI9avWi/a+1LOgyqgBkoPAFYP2wtR7wVaaKzwrGToIzF/wtknEfxTPMEGUiX5kHsxifmZ5M8uibOtqy9kgyOt1XC8vQJOdHqgw28XmT8UsUAkxokgEBOBHl96pO2PzE9EAKAi81t5AewyAFS5gjCo0guDq73ggdjdI27YujzbGIrp9yUFAFIg0McjEAtwmhZBfffHiL/xv8vXVjn8t6j5x7t/Kv2vSczP7vz6mR+leUfAAR0BOxw5VQMfHO8HR89Wisydj49SSgkheymlWwghOwDgi2Aw+MWyZcvSJn7PxzjMbDM/lDJzhDraoi9cMgDOfnxS8tLJ/iXu/hLDd7X8k52AcF+iw08gRXsmMT+T/PqYPxzl4Z2jg+CtTwdBq9cF3qBNPNb38IdmYJg5+GMAeIZS+rfm5mZfD48h5+5KCwA2jr8C/Cc1JXNMHPXld/4kXUA8xn9UvvsnY4pJzM8kvzbmD0V4ONFRAe8cHQhvfDoYAmFrzpvf5AbOEkKeFARhFcdxBxobG4viubC0AGBd3U8gdPahrAsbZ3Y89ickfeIEkHABJj4BhGQXEJOYv5vkx4w9HsXIh2n7cR3xvv7u0YHw6ifD4GSHB1D6F/iHuwXT0T3qdrvXNjQ06A0V06PTKy0AWHP+cxA5tyAbBSXjHmQw0iW9t6L9F0EBJT5K/+RQXyYxfzfJjxZ+niB755cXzx+2isq8lg9GwOdnqrItaSH+HjcY6gsetlgsOx5++OG2QhxkyQAAXT7TCtVHW0CIXpqN0BTj94u5/iRJ31UXkJD+gGG+1eodk5ifSf70x35ckw+P94MXD4yEEx2e3rjbZ9s+en+PJwA8Efxft9u9paGhQZuCSm8vBsuXDgCIUYC+2AZUmJqRFoL0zo9ft2CfKocfCANQ9PePn8S13VXVfWt652eSXyQZMv5ZnxN2fHQ+vH64thQYP3kbhgkhf4pEIo9UVVUdLhQgKB0AWDt6JEQ78AQwLC0AKE99ivSPJ/xIhPqSgAGA6xRAUKR/wUt+/eAkc51BuWGwvzQmwcj82z86H3Z/MhTatYZxNDjyAqj2OQD8l9vtbi4EECghABh+EUT8LUCjqQOBykY+Ei9Ld/x4ei91ii8BgIQpCO3yJjeJ+dmdPzVooNTf9OZYeP/L/gXAmz06hE2U0h80Nzcf6dFekzorHQBYNWQ+CMHnU1rryEwcv+ur7v7xq4By2lcH+zCJ+fN35zcoiQ3MS9o3BvtLU++DL/vDprfGwFmvy3DLvck8ufSNRkUcxx0SBOFHzc3Nz+ZA3FyGIRpDl8RHV513F8QC3c004/a+KomfpP3v4u4bpkAx0KeiKNBBHXbnT0Ws7qCBT3mvHRoCLx4YVQzPejp2gKGiPkLIzwRBeLw3DIlKBwBWD/sDRL13d1kCFfOL2n5kfMUGQHX/V0J94TGdoMkv5vnT+Wny6jPtnV//+Arlzo82+evfGAdvfz4obouvk9SlWBzDy/xPMBj87rJly9T+3nmfaykBwAcQ9Y6LU0x1zFWs/kTnj3iyz6T03sj8QQzzrf+VJqvkd6E/P77zhwCiHapFNcjIRg/MPXr07z43b8gGz749Bt78dHDeN3YRdoC3gpVWq/VHDz30UGtPjb8kAIC2zLXAqY9CIIQkg/Ckja729xff/+PBPonoNiAWxz/bYqLxj54vq+R3yf78HiWYRy4WfgYBo0cZP7WuAB12/ue1yXDoVI0e8pZdWUrpNo7jbmtsbPyyJyZfGgCwYfZQCBz+XBTvyZtdnd5bZn4xwYc6vbfo7itkD/WVtCKaJD++81eUt+TvDNjhqd1T4bPTRWnR1xN8mNzHHkLIzT0BAqUBABsnzgf/8edTMX/87i9r+eNJPsSjgGzyi/YBZwUQ3X41ftok/3SVeW95Sn489q/cPYVJfo37SlWsxWKxfC3f14HSAIC1o34FobM/7UZjlb9/wvtPyfKjOAFRAJ8AFCNsa/y0Sf6pYKkIl/WdHwNxoMLvrc/YnV/j1kou9nS+FYOlAQCrhr4IUe9VaurFGV4x+VWn+EJloHj3p6LUF7P7arz7M8mfaiunfupbt388vMmY3yDvS7dUAFhJKb07X0+ERQ8AdEudHTowEUj04mQAkEBASvIRD/iBheTYfyJ5/RlCfRm588+ZCpbK8pb8SLadH58Pz709mj315cL+Ut0oIeS+xsbG3+XDWKj4AWDduL4QakUnoEkKrZW3/mR3X/Hf49l/0NkcpLu/hpc/TZIfM/ZUKC695XnnxzVAC7+VeyYzI5/cmV9pASMN3drU1IQWg6Z+JQAAI8dAuLMFhFhtHADiKb0SwT6QgaX03olnP/AKQDXke81+53dC5ZxpTPIDiB59j2+bAWe8LlM3ark3Rgg5KAjCV832HSh+AFg17DIQ/AgAFuXWpFjxoolv3PJPkf7ydUBM7Il3/yzSP7vkd0AlWvgxyS+69P7l1aniCcCgxUK583na+csBSTe73e4bzfQiLH4AWD3sWoh6NytPgAltv5zgMy7xE+G/8BpAsiX5iNsTqerJpwiMIyCaDaORD5P8Eu7KLr1b3hnNmDi/FHjATFfi4geAvw25B2I+VJDEpX03d18xDgCRM/+iWgXf/UXngAyIKylh41GDZJfhGB4aBALExSS/mnh45F/eMrMc/Pnzy97ZW8d4Alc2NTUdyl40e4niB4BVQ56EqO+bIrsqxj5qd185048YK142+RWz+2aI5M7u/Kk2Tnq0RNpueHMc7Dk4JPuOYyVypgCl9Pcej+d7ZlwFSgEAjkHUV6s4+SjHUREM4sk+VDH+I2nCfMvLwu78+pgfS+Od/8ldU0oxjFfOzJqnBjDO4E1mvAoUNQCINgCdnUEQIiplnxLoUzriS9p/aZri3b+TAg2mlmZZJb8T7/xTwVIVKWsLP/Wmxui9qPU/1laZp73Omk1DgTd5np+Xa7ThIgeAmaOg/fDBZHdflPyJcF8J6S+G+mrTzvxdIvk4HVKWXqbt77If3zvWH57ezaR/L8AUBhld0tjYuCmXvosbADaOXgy+02u7pvfGTD+yQlAU+4kw32KMf3z+S/qY5Nd/7McamLTjD6/MLta4/bnwTaHUfc3tds/JJflIcQPA2hHLINj+L2KqZ1HJR+PBPhUzYOV0ABjqCwN9Jh0Ast75meRPu9nf+mwQ/PW1yYXCDOU4DtzNtzU1Nf3V6OSLFgAoxvdaPaQFIr45IgAoUl8J8KFyAhKNfdoFoElJmpjkNyb5sRbm6vvj9plwtDiz9hjll0Kst5cQcpXRXITFCwCrLnbS6MctIAgXds3qq9gDqDT/QTnQp2r5NEl+tO2vxGAeGKatfG37U+36z05Xw+PbZzB7/96HBD+ldF5zc/MeI0MpXgB4ZtJACsdbaCw2XozqKyf0UAICxfP7iaG+urr7MslvXPIrNTe/NRZ2fpw+B4uRzcjqGKbAI01NTT8yUrt4AWBN3UQabmuhMaG/2slH0v4nSf/OxN2fSf7cmR/Dev9q8+UFlaK7X79+MGXKFBg8eDA4HA7o6OiAI0eOwPvvvw+BQMAIb4DT6YQJEybAiBEjoKqqCoLBIBw/fhzeffddOH36tKE281TpLKV0mJGYAcULAKuGzKHhwCuCIHBikE8l9p8S609UUwMAhvmWg30wyZ8782ML+w7Xwup9E/O0l/U127dvX7jyyith1qxZQEj37ezz+eDFF1+Et956S2RgLR8CyIwZM+Cqq64Ct9vdrQoGktm3bx+88sorcPbsWS1N5r0MIeTbjY2NK/R2VLwA8PTgG2M0uE5hftHgJ1n6+yhQr3R3Z5LfHOaPChw8sWM6HDzZR+9eM738yJEjYcmSJYAgkOlDhsWTwJo1awABIdOHDI9tjh8/PiWgqOueOXMG/va3v8Gnn35q+twMNLg1GAwuXLZsWQYj9+6tFi0AxP5nyE9oyPeQEuZb+jNh8Udl6S8G/RAxIINXH1r4XTEFLNVRZuGXZeeh089jLTOho5eTeCLTf+c738nK/Orp7NmzBzZu3AiCEhY6aa48z8MNN9wAF154oWb+QxB4/PHHC+EkcBQA6vU6CRUtAET/OnQDDXuv7xrsM+H/T+RQX0zymyP5lVYOt9aIpr8xQUrB0FsfSunZs2fr6h5PAs888wy88847KevNnDkTbrnllqySP7kyAsv69et1jSUPhdHE7aqmpqbtetouVgAgkZVDzkLEVx0P+KE+AUQByFkBBDHMN5P8XTdEbqE6tr43El44MErPHjO9LCr87rvvPt2MigP57LPPRIkdDnc1CrHb7XDXXXfB0KFDdY8XTxS//vWvoa2tTXddkyv8W1NT0y/1tFmUAEBXTfDEQq3nhKik3ZPu/7K7L+7vcxQEnxT6J60/P1r4sXd+PXtFLPufL1/Q66a/qPSbP3++7rFjhc7OTli+fDm0tnbNvjVgwAC4++67wePxGGr32WefhR07dhiqa2KlPU1NTZfoaa8oASC0avJkzv/Fu6j0wwmgt1/c5DdCgbahSTCT/GZKfmzLF7LB/9t4hWR23YvfbbfdBlOnTjU0ApT8CABHj+KVOfENGzZMBACLRYosp/fbv38/rFq1Sm81s8sLgiAM/M1vfqP5jbJ3V9Lg9MMrR98JkdMr4u6+6mAfXkGU/hkl/5zpYKliFn56yX/giwHw5C5jjKe3r0zl//Ef/xHGjh1rqMlYLAaPPfaYeBVQf/jWjwCQ6ilRS0cHDhyAJ598UkvRvJahlC5ubm7WrJAoSgCIPjP8z0Ko4w7x/q/O8YcOP2eFLsyPCt94DD+HrO2vYdp+I7vwpQOj4KX3Rhqpamqdm2++GS644AJDbaItAJ4Ajh071qX+kCFDRACw2WyG2t29ezds2LDBUF0zK1FKG5qbm3+utc2iAwDa0MBFRi1voZHgFTjJuKRHhV+nAEIgERuwiz+/Q77zM8mvdW90K4cJPv9+dIDh+mZVRG391772NUPN4bMdAkB7e3uX+jU1NbB06VLo08eYfQO+Lrz99tuGxmRmJUrpmubm5iVa2yw6ADi1aoKn2n+yhVJhVjzsNzJ/hILQTgHf/5UcAEzya90G2ctFYxw81jKr1xWAOFI00b3//vtTWullm8nf//53WLlyZTdbALQB+MY3vgETJ+q3cDx37hw0NjZCKKTLBifbUI3+HmME1Dc0NGgyeyw6APA/XjeE59tbAGJ1ovIPzYBRG9hJIaZIf4FAPHovk/xGN1KXet6gTQSAU53dTWNN6UBnI5dccglcf/31uu7s0WgUHn30UTh16lTK3gYNGgTf//73AcFA64e2BevWrYO9e/dqrZLvch+Ew+H63/3udye1dFR0ABBeOXwajXhbIBarlgCAAoQBYmdR8Sdl/0lIfodk4VcTYxZ+WnZDhjKnz2HY71nQEbDn2JI51dFe/9ZbbxWddbR8kUhENNZBbX2mD3ULCCxWq1VLs/Dee++J5sBa/Qw0NZpDIUrpMYvFMvfhhx8+qKWZogOAwJPnXcnFQi8LUYGIT30xAoIc5rvrnd8uvfNXYaJO5s+vZTNkKnOiwwOPvTILMAhooXxot4/2AMi0mbT3KPlRSuMdHf8/04fPgOgIdOONN2Y8CaDkR6n/wgsvZPUv6GF6nYlGo/WPPPLI37X0W3QA4H1iyDd4wf8UHvuFGAEaoiB04P8zya9lwY2W+eJspXgFQFfgQvrwuI42AZdeeimgIg9PBhzHiYzu9XpF911k0hMnTugaNl4Hrr76atG9GI2DEBjQ4g8lPVr87dq1SzQpxmfFQvoIIV70CWhsbMx81JEHXXQA4Hti6L9zUe+/KtIe3X2FkPrOzyR/PjYkRgBCJ6De9gFINzc05UWffQQABAU88qPnH1r+GWVSbKeyslJUNuKVANtBAMBYAwWi8EtFjjCldK7WCEFFBwD+/x6yDaL+OajkgwCFWDtGAZZz9aHCj93588H/cKS1WtQBiCbX7CtkCkQ5jqv/9a9//aqWQRbVamIg0OCK8/yxUMCBR37M7xcLy7n6HHaoRAu/anbn17LwesugFyDqANhX8BRA2zh0C9bkFVhUANC5fEw/jra1CnjvCqBiX7r7E4cDKi6fAtY+TNufr+15uLUaHntFn/ttvsbC2s1IgRIGgD+MvZTQ1leFKAHhrACxMAHisEPF3OlgZdr+PPIFhSOtNewKkEcKm9h06V4B2v4w6sdctK0Zw3xFzzHJb+KmydCUFD9AUgLOKiglIGr7UemHCkD8EzX1qLjDf0eFHf6gMhAVd/iDnoD4fKfnq66uBvzBNvEVANvEFwZsDxWB+Ge6CEN6+jGxbOkqAdsfG7me+jtuQJNfsNihYs50sLI7v4l7J7mpBLNIz4Cze/0ZEJkcg3bU1dWJ0XpRQ6+AAGrqEQDQJkBhVmR6hVnRD+DQoUPwySefaI7qW1tbC+h+jEFIEDwUUFGYH18aMPrwwYMHRRfjbHYGeVwssemSfQbcf9dM66hJx1uoN3Qpjdqg4rLJYO2L8f47VDTVh+6Jigbr6ZQmufVncIyGd1zX/iRDoNk9bgiEzIzv8BiwY9KkSeKbv9GgHWpSoF0ARvZFQMAQ38kRgtRlkflvv/12QNuATB/aHaBtALoGo7kx/l3vicPwciUqlqYh0NGGiX1c7tYWCPFTKi6fBtZqTNHNLPxM2DApmugONpIp8OweNQXGo/3ll18O06ZNE730jAbryEQjzBlw8uRJMZoPRg5Od5xHd+E777xTtAvI9uEpAMOFo+Xhzp07e9RmoGRNgU89NKqOt4RbKmaOH8Ikf7YtmMvvU580JGeg2T3iDIRHefTKu/baazUxXC6zVeqipD58+DBs3rxZtBpMBQQXXXSRaCKsJ2gIGiJhuDD0GUB9RA98pekMdOwPsy51DahpcdfGrFYbWjuyXH3mb6b01wzJHTj/qcDxTo9Mhk4++ZD42WiGx/aWlhZRcid/qAi84447xJwBej48EeDpAp2RsuUl0NNumrKl6Q5Mt1xjPxM890MC3m/ZXVydo4rjePRLMWTJYPA+XUZ3/lSbSwoIMtCEPZq6CZfLJSrcRo8enbc+tDb80ksviZl/ks2IcWzf/va3dbkMK31+/PHHYlhyv9+vdRi6y5V8QJDW/55eKzhjt9ld3C+tLmJzVHPA8VpRoBgYH9fc4Dh1b5f4AVhTTSkkWH5CgqN0Xbx4seFQX5omoKMQavlXrFghXgvUHzocYegw/NPI9/rrr4ueifl6Oiz5kGAK0b9cPnGYra/lt7yFzHNWc1VWFwJBtiUxyFhlLvkVqh74YmDegoJiph9kLHToKZQPk4A+/fTTXYaDikkMHYZKQSMfOhJhUFJ8kszHVxZBQRXCtTTMtUwYc2Y2b+N+ZXVw9fYKDmxuAt1zRBYD4xeu5FfoLYUFn5OXsODDhw8XAQBPAoXy4dPgz372sy7DwfEhAKANgpEPJT8CQJ7yCZZHWPBkwmN6gBNPTVpic1l+anWSKc4qjvB2NRAUAwAYHKORXSjWMdAfpfCfWy+Ez89UG+41XcVRo0aJjFVoH8YeTP4QqDAxqdEPg5Ki/UEevvJIDJKOcMefmN6fd0auszotv7Y6SD9nNQHOqlU/oGq1R4/8BpnR8O4xwPjiEKV6W98fBS8cqDPcOwMAEKMS5wkAyiM1WLbdd6RhWnXFRPpbnieL7FWkr91DgLPoAIIeBQCDDJmNCCl/b7AvFT0Ot/aBx7ebHxiEnQAMLai6UlklB81KLboK+DaYPEEQ4IdWF3+7zUN4eyWXQj/AJH9GYiaBoZgefNts09ODMwDIuqWzFSiv9ODZqKH8HvUDx1dMvNpWyf/Sbucm26s4m8WZSlGYOOZqbTtRzohkNVJH/8ikGgb7SnESigocPLFjBhw81dfoYFLWYwCQMzm3BoPBhcuWLdOVnEDHuTjnAfZqA5/8R11ldX/7XM7KL7O5uGGOKg4sDnn6PXrkz4EhDVHQPOZXut935DxYvW+SodEwHUB+dACEkG83Njau0LsoZQMACmE+/O+xFf0rbT8nHLnZUckPsVcQwhlLCGtQshpkSL0ra7LkV3ePkYF/9ewcCJgYIhzdbhctWmRolvmshE92yR+OE8dr9Nu0aRN8+eWXRqunqneWUjqsubnZp7fRsgMAmUDk6IrxdXY7/12bm/u+zcWBoxqvBVrJYZSJjdbTu6w5nDI0noY2vz0Odn58vpGBsTrmU+CRpqamHxlpVuuON9J2UdQ59ccJ0/gavtFiJ5c7qnmH1UGAZLVFMcLIRuoYJaHBvjQyP44KIwQ9vqPw8gQYpVgR1/NTSudpDQOePM+yBwAkyNHfDnHaB/WZw9tJs9UBE1E/gEDQ/TPIWEaVcIZ2pcEx6mB+HFYoYoE/7pgFR88UjumuIXIVf6W9hJCrGhsbzxmZCgMAFdVWLQG+/qaJ3+Ot/L/Y3NwoRyUB3qYmkRHmMlLHyFLm/9ifPKq3PhsEf9071ehgWb3cKYCb67ampqa/Gm2KAUAS5fDZsO3JiUMFO3crZycP2lyc21VFgGR1NEq1BKXL/Pi0iFmC/tByQV5Mg41u6DKrh77/cxoaGsJG580AIAPlPvv95JHu/uR3vIXOddZwHlQWZtcPKA2WNvMrs3zvywHw9O5pBRUt2CgzFFm9MCFkSWNj46Zcxs0AIAv16KoJtpNhOsNi439udXJfRWtCu4tkCURSHsyPpMNswY9vnw3H2rLHystlo7K63SjwJs/z8x5++OG2XGjDAEAj9dD1ePyok3daXZYf2JzcOEcV4VE/YJrrscZxdC1mEGh0KvwSfabu74PjA+DJXewUYGgJjVXCI/9NTU1NzxqrnqjFAEAnBY8/UdffYrPfwLm539gdXAXaD/Bxj0ODDKlzDFJxg32ZzPziSCiBDW+Nhz0HhxmaCaukjwKU0t97PJ7vNTQ0YIrcnD4GAAbJd+IPowZY+jqbOQtc46zi+2EgEuMWhXoHUTjMr4wcnYSWb5sN7X6n3smw8voo8DkAXNnU1GRKQAEGAPqI36U0bQCudcSEqZyD/JvVyd9oqyCArseaDQoN9V14zK+cArZ/NBy2vDvW0KxYJc0UeMDtdjebIf2xRwYAmumeueDJFeOvsngsv7A4yCxnDeEtqB/IalGot/PCZH5lFngV+Muu6fDBlwOMXlD0EqRsylNKKSFks9vtvtEs5mcAYPL2ObJiWnWlK/xVzsL/lneQ85zVHKYwNOkrbOaXJknhrM8lvgrglYB95lGAEHJQEISvNjc3HzGvVXYCMJOW8baONAx3uAeqXYoAAAfSSURBVMa6/91qJf/gqOIHiRGJMIeB4a8YmF8CAPzwVWDlnmm9nkjUMLkLryJ6+d1qhtY/eWrsCpCnxUb9wJkxk8fECNxld8K/2NzEij4G+q8FxcD83ce48+Ph8Nw740CgbIvluMWihJD7Ghsbf2f86Sf9CNjq5Lg6GqqTo8tHX+DpY2vmHGSWo0qrx2FComroo2uRPDz1ZR5DdwDAmAHr3pgEb35m3G9e97xLrwISdiWl9G4jvv5ayMEAQAuVTCjz5fKZLuryX2p3cI/YnJzkcejMRP7ilPxqUqHH4Po3JzIQMLh/KKVPh0Kh7y5btgzTYOflYwCQF7Kmb/TIiuEOj8P1AG/jvmlzcyMdVYTwGLG4y0oUA/NrO6F4QzZRH3DI5BiCPbxsvdFdi8Vi+dpDDz3Ums/OGQDkk7oZ2j7z10lDBRr9lsVpfdDmIjy+GEgeh8XA/PrG2Bmww1O7Z8BneUgo0kvLl+9u9xBCbm5sbDQ1bliqQTMAyPdSZmn/6J9G1TkrHL/lbaTeWUM8NqcCBDoGVgB3/myj7fDb4ZndU+HIWXOjCWfrtwh/30II+UZPMD/ShgFAAeyQ9xom2PqPphfxVvJri5O7CAOR2NwarYh6lPn1SX6FtEKUQqA9Bm3ttvAz712y/3So4mK297ptPLT1WWm1Wn+U72O/umcGAAUAAMoQxByHK8fdYbNx99lc3ARMfY4WhWlhukeZX//1RIgBhH0CBNpi7UIMXu5oj/z40QML2x0Ox3/huzYAGI7HXEDLZsZQogDwP8FgMK8KP3YFMGOpeqCNUysmDKI2eqPNhVmPSY2zhu/uaNSjzK9T8lOAkJdCsDMG0QC8GI3EHvzg8Hlv1Ddsw40O9957r5sQchcA/AIA3D1A0kLuwkcI+ZkgCI/n66kv0+TZCaCAtwZ6HFr7OB7lbDDfUcnXxD0Oe5T5tUt+HFY0RFHiC9EgfSvqo78c+K2PN6QhMbnvvvsWEkIeEQRhFNEek72AV0z70PC8z3HcIUrpD5uamp4zrv3V3ic7AeRGq16pTRvmWlrHnppMgD5gc3FLbBUcZ8zjUKcUF2ervU4sTMHfLkAkACeiQeG+cNC3Zeh3vjibjWj33nvvCELIowBQeFlBsg0+t99vopT+wGzbfr1DYicAvRTrpfINDcD9c9346y128qDVSSY6qzlr6ohEqQaonZG71s5eT4gABL0CBDvoyVgstqr1Q8tPJza879VDpoaGBs7n890LAN8FgFKPKoL+/P9lpkuvHlonl2UAkAv1eqFu24rh1SHOebXdQ37HO8hA0eOwS+jy5EFlZ+Lu08hehwoAwQ4Bwj4aCfuFP3C89bG+Hx74iDSAoSg1CAIdHR0jeZ7/ISHkOwBg6wXy5rPLMKX0T4SQ37rd7iNmuvTmMmgGALlQrxfrHnlkeHVFrfNXxEJucFRytQ4PlyIiUXZGTj2F9PWQ8SNB8VkvKITI/o6OwH0j/unTvbruCxnoJp8GFgDAzwEAM5AWOxBg/L4DAPB/3W73lkJhfGUJGAD0IhPn2jU+G555ZsxYCvyPLS7uOw4PAYxaLEUkMsL8metE/BQCnQKE/cI74aBwLwn6dtcu/dKf6zxS1f/JT35SE41GryCE/AQALixCuwEkJmbteYjjuJ25Ru/NB42xTQYA+aJsD7d79MkJFzqd9GGrjbvEWU1smPrcFNdj1OxHKIQ6qBDyC4dohPvz3z/y/7a+4dNgT0yxoaHB5vP5bgKAH8gngkKPNIKAeIBS+ojH41mXS9KOnqAvA4CeoHIP9XHiySlu3hK+kreS31qcpC59jkNtegI05EELvqgfwmGf8GA4GFs55J8OftFD0+nSzf33318hCMIkjuNuoZTeDgB9emMcGfrEF4+/UEpXcxx3wGiuvp6eEwOAnqZ4D/S3/C6w3njF2Ps5G3eX3cMNE3McWjOdCBJHf3zLR9NdPO7724UOKsDL4Tb+R7VL30PtdUF8siHR1wDg6wAwBgAGAUBOMZcMTAzv9icB4GNCyEpBEFb1hiGPgXF3qcIAIFcKFmh9SoGcWjF6BLVwi2xu7kHOQmowPiFmPeZtHHA8Fa8IqNTDn1hEgEgIIBqkIgCE/fQpIUr/88MjtW8qFnyFNtXvfe97dofDMQQA8OdyAEDlIeoLNDpS6J4RvnCgwnMLAOwEgC+CweAXy5YtC+luqUAqMAAokIXI5zDeuXeKe/CU0K2cg0P7+4EAMIAQ8BCO2gUBogTATymcJgTOgAC7QifCy2q/f7hgJL4e2jQ0NPTzer0IBlNQZ0AIQXCoopRWEkIchBA7pRRfFhAklJSvMQAQCCH4VBeilAYJIRiEo4NSilce1OK/6/F4djY0NJzWM55CL8sAoNBXyMTx0SXAH5szrtrRR+hvsRGPIFCHwFkisXAsEArA6ZAvdmb0PQeLVpqlIlVDQ4Ojra2tyul0VoRCIafVarULgmDleZ4XBEEEAI7jYvhxHBeJRCIhu90eCAQC52pqajoaGhp6RNlp4jLraooBgC5yscKMAqVFAQYApbWebDaMAroowABAF7lYYUaB0qIAA4DSWk82G0YBXRRgAKCLXKwwo0BpUYABQGmtJ5sNo4AuCjAA0EUuVphRoLQowACgtNaTzYZRQBcFGADoIhcrzChQWhRgAFBa68lmwyigiwL/H96/NWj4QsliAAAAAElFTkSuQmCC;" parent="LTjXMn_Se3MsG3HputFX-88" vertex="1">
          <mxGeometry x="15" y="50" width="110" height="110" as="geometry" />
        </mxCell>
        <mxCell id="LTjXMn_Se3MsG3HputFX-95" value="" style="endArrow=classic;startArrow=classic;html=1;rounded=0;entryX=0.5;entryY=0;entryDx=0;entryDy=0;" parent="1" target="LTjXMn_Se3MsG3HputFX-89" edge="1">
          <mxGeometry width="50" height="50" relative="1" as="geometry">
            <mxPoint x="-130" y="370" as="sourcePoint" />
            <mxPoint x="-70" y="440" as="targetPoint" />
          </mxGeometry>
        </mxCell>
        <mxCell id="LTjXMn_Se3MsG3HputFX-98" value="&lt;span id=&quot;generated-id-1695256723420-k3xlq1dxu&quot; style=&quot;&quot;&gt;&lt;b style=&quot;&quot; id=&quot;generated-id-1695256762705-z5atwp1ln&quot;&gt;&lt;font id=&quot;generated-id-1695256765906-nrp94r0nq&quot; style=&quot;font-size: 24px;&quot;&gt;RTC Engine&lt;/font&gt;&lt;/b&gt;&lt;br&gt;&lt;/span&gt;" style="text;strokeColor=none;align=center;fillColor=none;html=1;verticalAlign=middle;whiteSpace=wrap;rounded=0;container=0;" parent="1" vertex="1">
          <mxGeometry x="-200" y="-110" width="194" height="40" as="geometry" />
        </mxCell>
        <mxCell id="LTjXMn_Se3MsG3HputFX-99" value="" style="endArrow=classic;html=1;rounded=0;exitX=0.5;exitY=0;exitDx=0;exitDy=0;entryX=0.161;entryY=0.999;entryDx=0;entryDy=0;entryPerimeter=0;" parent="1" source="LTjXMn_Se3MsG3HputFX-72" target="LTjXMn_Se3MsG3HputFX-12" edge="1">
          <mxGeometry width="50" height="50" relative="1" as="geometry">
            <mxPoint x="120" y="590" as="sourcePoint" />
            <mxPoint x="250" y="360" as="targetPoint" />
          </mxGeometry>
        </mxCell>
        <mxCell id="LTjXMn_Se3MsG3HputFX-100" value="" style="endArrow=classic;html=1;rounded=0;exitX=0;exitY=0.5;exitDx=0;exitDy=0;entryX=0.708;entryY=1;entryDx=0;entryDy=0;entryPerimeter=0;" parent="1" source="LTjXMn_Se3MsG3HputFX-72" target="LTjXMn_Se3MsG3HputFX-24" edge="1">
          <mxGeometry width="50" height="50" relative="1" as="geometry">
            <mxPoint x="110" y="420" as="sourcePoint" />
            <mxPoint x="-40" y="420" as="targetPoint" />
            <Array as="points">
              <mxPoint x="80" y="745" />
            </Array>
          </mxGeometry>
        </mxCell>
        <mxCell id="LTjXMn_Se3MsG3HputFX-102" value="&lt;font id=&quot;generated-id-1695256051513-y0d345dh5&quot; style=&quot;font-size: 16px;&quot;&gt;Build&lt;/font&gt;" style="text;strokeColor=none;align=center;fillColor=none;html=1;verticalAlign=middle;whiteSpace=wrap;rounded=0;" parent="1" vertex="1">
          <mxGeometry x="80" y="710" width="90" height="30" as="geometry" />
        </mxCell>
        <mxCell id="LTjXMn_Se3MsG3HputFX-103" value="&lt;font id=&quot;generated-id-1695256051513-y0d345dh5&quot; style=&quot;font-size: 16px;&quot;&gt;Admire&lt;/font&gt;" style="text;strokeColor=none;align=center;fillColor=none;html=1;verticalAlign=middle;whiteSpace=wrap;rounded=0;" parent="1" vertex="1">
          <mxGeometry x="340" y="685" width="90" height="30" as="geometry" />
        </mxCell>
        <mxCell id="LTjXMn_Se3MsG3HputFX-106" value="&lt;font id=&quot;generated-id-1695256051513-y0d345dh5&quot; style=&quot;font-size: 16px;&quot;&gt;GraphiQL&lt;/font&gt;" style="text;strokeColor=none;align=center;fillColor=none;html=1;verticalAlign=middle;whiteSpace=wrap;rounded=0;" parent="1" vertex="1">
          <mxGeometry x="250" y="600" width="90" height="30" as="geometry" />
        </mxCell>
        <mxCell id="LTjXMn_Se3MsG3HputFX-108" value="&lt;span id=&quot;generated-id-1695262287474-reh1jqvfd&quot; style=&quot;font-size: 16px;&quot;&gt;Push Image&lt;/span&gt;" style="text;strokeColor=none;align=center;fillColor=none;html=1;verticalAlign=middle;whiteSpace=wrap;rounded=0;" parent="1" vertex="1">
          <mxGeometry x="330" y="775" width="110" height="30" as="geometry" />
        </mxCell>
        <mxCell id="LTjXMn_Se3MsG3HputFX-109" value="&lt;font id=&quot;generated-id-1695256051513-y0d345dh5&quot; style=&quot;font-size: 16px;&quot;&gt;CI/CD&lt;/font&gt;" style="text;strokeColor=none;align=center;fillColor=none;html=1;verticalAlign=middle;whiteSpace=wrap;rounded=0;" parent="1" vertex="1">
          <mxGeometry x="700" y="400" width="90" height="30" as="geometry" />
        </mxCell>
        <mxCell id="LTjXMn_Se3MsG3HputFX-110" value="&lt;span id=&quot;generated-id-1695262326803-6j5t65sh2&quot; style=&quot;font-size: 16px;&quot;&gt;Diesel&lt;/span&gt;" style="text;strokeColor=none;align=center;fillColor=none;html=1;verticalAlign=middle;whiteSpace=wrap;rounded=0;" parent="1" vertex="1">
          <mxGeometry x="470" y="400" width="90" height="30" as="geometry" />
        </mxCell>
        <mxCell id="LTjXMn_Se3MsG3HputFX-112" value="&lt;span id=&quot;generated-id-1695262326803-6j5t65sh2&quot; style=&quot;font-size: 16px;&quot;&gt;Google Provider&lt;/span&gt;" style="text;strokeColor=none;align=center;fillColor=none;html=1;verticalAlign=middle;whiteSpace=wrap;rounded=0;" parent="1" vertex="1">
          <mxGeometry x="-270" y="400" width="130" height="30" as="geometry" />
        </mxCell>
        <mxCell id="LTjXMn_Se3MsG3HputFX-113" value="&lt;div style=&quot;&quot;&gt;&lt;span id=&quot;generated-id-1695262646998-t8v5ep9a2&quot; style=&quot;font-size: 16px; background-color: initial;&quot;&gt;HTTP&lt;/span&gt;&lt;/div&gt;" style="text;strokeColor=none;align=center;fillColor=none;html=1;verticalAlign=middle;whiteSpace=wrap;rounded=0;" parent="1" vertex="1">
          <mxGeometry x="70" y="204.65" width="90" height="30" as="geometry" />
        </mxCell>
        <mxCell id="LTjXMn_Se3MsG3HputFX-114" value="&lt;span id=&quot;generated-id-1695262326803-6j5t65sh2&quot; style=&quot;font-size: 16px;&quot;&gt;WebSocket&lt;/span&gt;" style="text;strokeColor=none;align=center;fillColor=none;html=1;verticalAlign=middle;whiteSpace=wrap;rounded=0;" parent="1" vertex="1">
          <mxGeometry x="60" y="295" width="110" height="30" as="geometry" />
        </mxCell>
        <mxCell id="LTjXMn_Se3MsG3HputFX-117" value="&lt;div style=&quot;&quot;&gt;&lt;span id=&quot;generated-id-1695262646998-t8v5ep9a2&quot; style=&quot;font-size: 16px; background-color: initial;&quot;&gt;HTTP&lt;/span&gt;&lt;/div&gt;" style="text;strokeColor=none;align=center;fillColor=none;html=1;verticalAlign=middle;whiteSpace=wrap;rounded=0;" parent="1" vertex="1">
          <mxGeometry x="470" y="80" width="90" height="30" as="geometry" />
        </mxCell>
        <mxCell id="LTjXMn_Se3MsG3HputFX-118" value="&lt;span id=&quot;generated-id-1695262326803-6j5t65sh2&quot; style=&quot;font-size: 16px;&quot;&gt;Channel&lt;/span&gt;" style="text;strokeColor=none;align=center;fillColor=none;html=1;verticalAlign=middle;whiteSpace=wrap;rounded=0;" parent="1" vertex="1">
          <mxGeometry x="-170" y="78.81" width="90" height="30" as="geometry" />
        </mxCell>
        <mxCell id="LTjXMn_Se3MsG3HputFX-119" value="&lt;div style=&quot;&quot;&gt;&lt;span id=&quot;generated-id-1695262646998-t8v5ep9a2&quot; style=&quot;font-size: 16px; background-color: initial;&quot;&gt;Token&lt;/span&gt;&lt;/div&gt;" style="text;strokeColor=none;align=center;fillColor=none;html=1;verticalAlign=middle;whiteSpace=wrap;rounded=0;" parent="1" vertex="1">
          <mxGeometry x="65" y="-76.96999999999997" width="90" height="30" as="geometry" />
        </mxCell>
        <mxCell id="LTjXMn_Se3MsG3HputFX-120" value="&lt;div style=&quot;&quot;&gt;&lt;span id=&quot;generated-id-1695262646998-t8v5ep9a2&quot; style=&quot;font-size: 16px; background-color: initial;&quot;&gt;Application&lt;/span&gt;&lt;/div&gt;" style="text;strokeColor=none;align=center;fillColor=none;html=1;verticalAlign=middle;whiteSpace=wrap;rounded=0;" parent="1" vertex="1">
          <mxGeometry x="-315" y="219.98000000000002" width="90" height="30" as="geometry" />
        </mxCell>
        <mxCell id="n70Z5CCRPduq9kV0x2DH-1" value="" style="endArrow=classic;html=1;rounded=0;exitX=0.5;exitY=1;exitDx=0;exitDy=0;entryX=0.5;entryY=0;entryDx=0;entryDy=0;" parent="1" source="LTjXMn_Se3MsG3HputFX-48" target="LTjXMn_Se3MsG3HputFX-24" edge="1">
          <mxGeometry width="50" height="50" relative="1" as="geometry">
            <mxPoint x="-250" y="110" as="sourcePoint" />
            <mxPoint x="-200" y="60" as="targetPoint" />
          </mxGeometry>
        </mxCell>
      </root>
    </mxGraphModel>
  </diagram>
</mxfile>
